<svg width="134" height="134" viewBox="0 0 134 134" fill="none" xmlns="http://www.w3.org/2000/svg">
<path d="M129.782 66.9842C129.782 101.502 101.8 129.484 67.2822 129.484C32.7644 129.484 4.78223 101.502 4.78223 66.9842C4.78223 32.4664 32.7644 4.48422 67.2822 4.48422C101.8 4.48422 129.782 32.4664 129.782 66.9842Z" fill="#DB464C"/>
<path d="M67.2822 131.484C102.905 131.484 131.782 102.607 131.782 66.9842C131.782 31.3619 102.905 2.48422 67.2822 2.48422C31.6599 2.48422 2.78223 31.3619 2.78223 66.9842C2.78223 102.607 31.6599 131.484 67.2822 131.484Z" stroke="#FDFAEC" stroke-opacity="0.85" stroke-width="4"/>
<path d="M123.245 75.9479C123.568 75.8449 123.858 75.7064 124.113 75.5324C124.372 75.3619 124.593 75.1577 124.774 74.9198C124.958 74.6819 125.099 74.4102 125.195 74.1048C125.29 73.803 125.338 73.471 125.338 73.1087C125.338 72.4944 125.18 71.9404 124.864 71.4468C124.548 70.9532 124.085 70.5626 123.474 70.2749C122.867 69.9908 122.123 69.8488 121.242 69.8488C120.358 69.8488 119.61 69.9926 119 70.2803C118.389 70.5679 117.925 70.9621 117.609 71.4628C117.293 71.9635 117.135 72.5335 117.135 73.1727C117.135 73.7657 117.256 74.2824 117.497 74.7227C117.739 75.1666 118.08 75.5093 118.52 75.7508C118.964 75.9958 119.486 76.1183 120.086 76.1183L120.006 76.5445V73.423H121.365V77.711H120.123C119.207 77.711 118.412 77.5157 117.737 77.1251C117.066 76.738 116.547 76.2018 116.182 75.5164C115.816 74.8346 115.633 74.0533 115.633 73.1727C115.633 72.1854 115.86 71.319 116.315 70.5732C116.769 69.831 117.414 69.2522 118.248 68.8367C119.087 68.4212 120.081 68.2135 121.231 68.2135C122.101 68.2135 122.883 68.3342 123.575 68.5757C124.268 68.8172 124.855 69.1563 125.338 69.5931C125.825 70.0335 126.196 70.5501 126.452 71.1432C126.711 71.7398 126.84 72.3914 126.84 73.0981C126.84 73.6876 126.753 74.2362 126.579 74.744C126.405 75.2554 126.159 75.7099 125.839 76.1077C125.519 76.5089 125.139 76.841 124.699 77.1038C124.262 77.3665 123.778 77.5441 123.245 77.6364V75.9479Z" fill="white"/>
<path d="M114.602 77.8188L125.318 79.8628L124.036 86.5811L122.644 86.3157L123.617 81.2141L120.352 80.5913L119.446 85.3423L118.06 85.0779L118.966 80.3269L115.685 79.7011L114.7 84.8655L113.308 84.6L114.602 77.8188Z" fill="white"/>
<path d="M121.476 87.6889L122.806 88.1767L119.9 96.1034L118.569 95.6156L119.741 92.4199L110.829 89.1521L111.394 87.6118L120.306 90.8796L121.476 87.6889Z" fill="white"/>
<path d="M115.352 102.069L106.191 96.1455L107.085 94.7633L116.245 100.687L115.352 102.069Z" fill="white"/>
<path d="M108.065 111.431L99.4102 104.79L100.331 103.59L110.054 104.061L110.116 103.98L103.768 99.1102L104.77 97.8043L113.425 104.445L112.498 105.654L102.763 105.181L102.701 105.261L109.058 110.137L108.065 111.431Z" fill="white"/>
<path d="M102.19 113.306L103.061 114.423L96.4 119.611L95.5294 118.494L98.2147 116.402L92.3819 108.913L93.6763 107.905L99.509 115.394L102.19 113.306Z" fill="white"/>
<path d="M83.524 119.61C82.9652 118.588 82.6717 117.608 82.6435 116.668C82.617 115.731 82.8212 114.887 83.256 114.135C83.6894 113.388 84.3189 112.789 85.1446 112.338C85.9733 111.884 86.8207 111.676 87.6865 111.712C88.551 111.754 89.3712 112.04 90.1472 112.571C90.9231 113.102 91.5897 113.876 92.1468 114.895C92.7057 115.917 92.9983 116.897 93.0248 117.833C93.053 118.773 92.8504 119.616 92.417 120.363C91.9822 121.115 91.3504 121.718 90.5216 122.171C89.696 122.622 88.8509 122.827 87.9865 122.786C87.1206 122.75 86.2997 122.466 85.5237 121.935C84.7494 121.407 84.0829 120.632 83.524 119.61ZM84.9542 118.828C85.3801 119.607 85.8649 120.194 86.4086 120.589C86.951 120.989 87.5152 121.206 88.1013 121.242C88.686 121.282 89.2526 121.153 89.8009 120.853C90.3524 120.551 90.7689 120.143 91.0503 119.629C91.3335 119.118 91.4547 118.526 91.4141 117.852C91.372 117.183 91.138 116.459 90.712 115.68C90.2861 114.901 89.802 114.312 89.2597 113.912C88.7159 113.517 88.1517 113.3 87.567 113.259C86.984 113.222 86.4167 113.354 85.8653 113.655C85.3169 113.955 84.9011 114.361 84.618 114.872C84.3334 115.388 84.2122 115.98 84.2542 116.649C84.2949 117.323 84.5282 118.049 84.9542 118.828Z" fill="white"/>
<path d="M76.9696 126.281L75.3971 126.785L73.208 119.952C72.975 119.225 72.9394 118.526 73.1011 117.855C73.2639 117.188 73.6033 116.594 74.1192 116.075C74.6363 115.559 75.3108 115.167 76.1427 114.901C76.9712 114.635 77.7459 114.563 78.4666 114.682C79.1884 114.805 79.8094 115.091 80.3298 115.539C80.8512 115.991 81.2284 116.581 81.4613 117.308L83.6504 124.141L82.0829 124.643L79.9345 117.937C79.7839 117.467 79.5469 117.082 79.2236 116.783C78.8969 116.485 78.5089 116.293 78.0596 116.205C77.6114 116.121 77.1252 116.163 76.601 116.331C76.0734 116.5 75.6516 116.749 75.3355 117.078C75.0172 117.411 74.8151 117.793 74.7292 118.223C74.6399 118.654 74.6706 119.105 74.8212 119.575L76.9696 126.281Z" fill="white"/>
<path d="M63.0178 123.722L64.6686 123.531C64.7731 123.876 64.9273 124.173 65.1313 124.421C65.3353 124.669 65.5734 124.872 65.8455 125.029C66.1177 125.187 66.4145 125.296 66.736 125.355C67.0539 125.415 67.3857 125.424 67.7314 125.384C68.3558 125.312 68.8966 125.09 69.354 124.718C69.8079 124.348 70.1424 123.842 70.3577 123.202C70.5694 122.563 70.6245 121.806 70.5228 120.931C70.4204 120.049 70.1929 119.321 69.8402 118.747C69.484 118.174 69.041 117.76 68.5111 117.507C67.9812 117.254 67.4076 117.164 66.7903 117.235C66.4481 117.275 66.1289 117.358 65.8327 117.486C65.5334 117.617 65.2691 117.789 65.04 118.002C64.8108 118.214 64.6252 118.463 64.4831 118.747C64.3378 119.036 64.2518 119.357 64.2249 119.71L62.5735 119.897C62.5998 119.354 62.7139 118.844 62.9159 118.366C63.1147 117.893 63.3928 117.471 63.7502 117.1C64.1044 116.734 64.5235 116.433 65.0075 116.198C65.4914 115.963 66.0314 115.811 66.6276 115.742C67.5659 115.633 68.4277 115.758 69.213 116.117C69.9987 116.48 70.6516 117.053 71.1716 117.836C71.688 118.62 72.0133 119.589 72.1472 120.742C72.2816 121.899 72.1853 122.917 71.8583 123.795C71.5317 124.676 71.0273 125.382 70.3453 125.912C69.6636 126.445 68.8554 126.766 67.9206 126.874C67.3456 126.941 66.7998 126.921 66.2832 126.813C65.7635 126.708 65.2859 126.521 64.8504 126.25C64.4153 125.982 64.0409 125.636 63.727 125.211C63.4135 124.79 63.1771 124.294 63.0178 123.722Z" fill="white"/>
<path d="M61.6817 115.199L60.8409 126.075L59.1999 125.949L59.5653 121.222L54.1429 120.803L53.7775 125.529L52.1311 125.402L52.9719 114.525L54.6183 114.653L54.2517 119.395L59.6741 119.814L60.0407 115.072L61.6817 115.199Z" fill="white"/>
<path d="M51.8204 112.934C52.1009 113.012 52.3143 113.179 52.4608 113.433C52.6062 113.691 52.6393 113.962 52.5601 114.246C52.4818 114.527 52.3141 114.738 52.0569 114.88C51.7988 115.026 51.5295 115.059 51.249 114.981C50.9685 114.903 50.7555 114.734 50.6101 114.476C50.4636 114.221 50.4296 113.954 50.5079 113.673C50.5604 113.485 50.6565 113.326 50.7962 113.195C50.9315 113.067 51.089 112.978 51.2687 112.929C51.4484 112.88 51.6323 112.881 51.8204 112.934Z" fill="white"/>
<path d="M33.44 112.491C33.3827 112.825 33.3725 113.146 33.4093 113.453C33.4414 113.761 33.5213 114.051 33.6492 114.321C33.7755 114.594 33.9521 114.844 34.1791 115.07C34.403 115.294 34.6757 115.489 34.9973 115.656C35.5427 115.938 36.1073 116.053 36.6909 116C37.2746 115.946 37.8347 115.715 38.3712 115.305C38.9028 114.896 39.3713 114.301 39.7766 113.519C40.1835 112.734 40.3998 112.004 40.4256 111.33C40.4513 110.655 40.3146 110.062 40.0155 109.551C39.7164 109.04 39.2831 108.638 38.7156 108.343C38.1891 108.071 37.6748 107.94 37.1727 107.952C36.6675 107.962 36.2064 108.107 35.7894 108.387C35.3675 108.668 35.0185 109.075 34.7423 109.608L34.4008 109.341L37.1721 110.777L36.547 111.983L32.74 110.01L33.3112 108.908C33.7328 108.095 34.2723 107.478 34.9296 107.059C35.5821 106.641 36.2968 106.428 37.0736 106.418C37.8472 106.407 38.625 106.605 39.4069 107.01C40.2833 107.464 40.948 108.065 41.4009 108.811C41.8507 109.557 42.068 110.395 42.0528 111.327C42.036 112.263 41.7628 113.241 41.2333 114.262C40.833 115.035 40.3662 115.673 39.8332 116.177C39.3001 116.68 38.7286 117.046 38.1185 117.274C37.5037 117.503 36.8742 117.595 36.23 117.549C35.581 117.504 34.9429 117.319 34.3155 116.994C33.7921 116.723 33.345 116.393 32.9743 116.005C32.6004 115.615 32.3104 115.187 32.1044 114.72C31.8952 114.252 31.7753 113.762 31.7446 113.25C31.7123 112.741 31.7777 112.229 31.9409 111.714L33.44 112.491Z" fill="white"/>
<path d="M35.7492 103.875L28.9521 112.408L23.6025 108.147L24.4853 107.038L28.5475 110.274L30.6185 107.674L26.8355 104.661L27.715 103.557L31.498 106.57L33.579 103.958L29.4668 100.682L30.3496 99.574L35.7492 103.875Z" fill="white"/>
<path d="M23.8905 105.47L22.8458 106.427L17.1418 100.203L18.1864 99.2456L20.486 101.755L27.4842 95.342L28.5926 96.5516L21.5944 102.965L23.8905 105.47Z" fill="white"/>
<path d="M13.9046 93.3107L23.3979 87.936L24.2088 89.3684L14.7156 94.743L13.9046 93.3107Z" fill="white"/>
<path d="M8.99929 82.6316L18.8813 78.0105L19.5221 79.3809L14.6235 87.793L14.6664 87.8847L21.9139 84.4956L22.6111 85.9866L12.7291 90.6076L12.0837 89.2276L16.9897 80.8062L16.9468 80.7145L9.68973 84.1081L8.99929 82.6316Z" fill="white"/>
<path d="M10.0616 76.5046L8.66685 76.7541L7.18026 68.4432L8.57503 68.1937L9.17436 71.5443L18.5182 69.8729L18.8071 71.4879L9.46323 73.1593L10.0616 76.5046Z" fill="white"/>
<path d="M13.1273 57.1388C14.2918 57.1164 15.2972 57.3101 16.1433 57.7199C16.9859 58.1299 17.6398 58.7015 18.105 59.4349C18.5666 60.1648 18.8065 61.0001 18.8247 61.941C18.8429 62.8854 18.6355 63.733 18.2025 64.4837C17.7658 65.2309 17.1326 65.8256 16.303 66.2678C15.4733 66.7101 14.4779 66.9424 13.3169 66.9648C12.1524 66.9873 11.1488 66.7935 10.3062 66.3836C9.46006 65.9737 8.80619 65.4038 8.34457 64.6739C7.87934 63.9406 7.63761 63.1017 7.61938 62.1573C7.60122 61.2164 7.81047 60.3724 8.24712 59.6252C8.68016 58.8745 9.31152 58.278 10.1412 57.8358C10.9673 57.3936 11.9627 57.1613 13.1273 57.1388ZM13.1587 58.7685C12.2711 58.7856 11.5265 58.9439 10.9249 59.2432C10.3197 59.539 9.86569 59.9385 9.56284 60.4416C9.25637 60.9412 9.10917 61.5034 9.12123 62.1283C9.13336 62.7567 9.30219 63.3147 9.6277 63.8021C9.94967 64.2896 10.4188 64.6712 11.035 64.947C11.6476 65.2193 12.3977 65.3469 13.2854 65.3298C14.173 65.3127 14.9194 65.1562 15.5246 64.8604C16.1262 64.561 16.5802 64.1616 16.8867 63.662C17.1896 63.1624 17.335 62.5984 17.3228 61.97C17.3108 61.3451 17.1438 60.7889 16.8218 60.3014C16.4962 59.8105 16.0271 59.4288 15.4145 59.1565C14.7983 58.8807 14.0463 58.7514 13.1587 58.7685Z" fill="white"/>
<path d="M10.2539 48.1562L10.5384 46.5296L17.6062 47.766C18.3583 47.8975 18.9937 48.1907 19.5126 48.6456C20.028 49.0999 20.3958 49.6761 20.6162 50.3744C20.833 51.0721 20.8662 51.8511 20.7156 52.7117C20.5657 53.5687 20.2704 54.2885 19.8296 54.8711C19.3853 55.4531 18.8437 55.8703 18.2047 56.1226C17.5622 56.3744 16.8649 56.4344 16.1129 56.3029L9.0451 55.0666L9.32872 53.4452L16.2653 54.6586C16.7515 54.7437 17.2022 54.7125 17.6173 54.5652C18.033 54.4145 18.3839 54.1604 18.6699 53.803C18.9524 53.4451 19.1411 52.995 19.236 52.4528C19.3314 51.9071 19.307 51.418 19.1628 50.9854C19.0157 50.5487 18.7716 50.1923 18.4305 49.9164C18.09 49.6369 17.6767 49.4547 17.1905 49.3696L10.2539 48.1562Z" fill="white"/>
<path d="M18.9308 37.0173L18.3353 38.5689C17.9809 38.5013 17.6465 38.5004 17.3322 38.5661C17.0179 38.6319 16.7277 38.7487 16.4616 38.9167C16.1956 39.0846 15.9618 39.2973 15.7603 39.5547C15.5601 39.8088 15.3976 40.0983 15.2729 40.4232C15.0477 41.01 14.9936 41.5921 15.1105 42.1695C15.2287 42.7436 15.5214 43.2743 15.9885 43.7617C16.457 44.2458 17.1023 44.6456 17.9245 44.9612C18.7533 45.2793 19.5038 45.4152 20.1758 45.3688C20.8491 45.3191 21.4207 45.1182 21.8906 44.766C22.3605 44.4138 22.7068 43.9477 22.9295 43.3675C23.0529 43.0459 23.1268 42.7243 23.1514 42.4028C23.1738 42.0767 23.144 41.7629 23.062 41.4613C22.9799 41.1598 22.8457 40.8801 22.6594 40.6222C22.4711 40.3597 22.2266 40.1346 21.9258 39.9469L22.5263 38.3973C22.9951 38.6723 23.3942 39.0099 23.7237 39.4102C24.051 39.806 24.296 40.248 24.4585 40.7364C24.6189 41.2202 24.6911 41.7309 24.6749 42.2687C24.6587 42.8064 24.5431 43.3554 24.328 43.9157C23.9896 44.7975 23.4791 45.5031 22.7967 46.0324C22.111 46.5604 21.3006 46.8731 20.3655 46.9707C19.4316 47.0649 18.4227 46.904 17.3385 46.4879C16.2511 46.0705 15.3942 45.5134 14.7678 44.8165C14.1381 44.1184 13.7467 43.3444 13.5936 42.4945C13.4372 41.6433 13.5276 40.7784 13.8648 39.8998C14.0722 39.3594 14.3436 38.8854 14.6788 38.4777C15.012 38.0655 15.3997 37.7293 15.8418 37.4692C16.2807 37.2078 16.761 37.0365 17.2829 36.9553C17.8014 36.8729 18.3507 36.8935 18.9308 37.0173Z" fill="white"/>
<path d="M26.9406 40.0072L17.6939 34.2187L18.5673 32.8236L22.5856 35.3391L25.4714 30.7293L21.453 28.2138L22.3292 26.8141L31.5759 32.6026L30.6998 34.0022L26.6679 31.4783L23.7821 36.0881L27.814 38.6121L26.9406 40.0072Z" fill="white"/>
<path d="M33.6191 32.1248C33.4201 32.3373 33.1738 32.4496 32.8802 32.4617C32.5841 32.4714 32.3284 32.3755 32.1133 32.174C31.9008 31.975 31.791 31.7286 31.7839 31.4349C31.7742 31.1387 31.8689 30.8844 32.0679 30.6719C32.267 30.4593 32.5146 30.3482 32.8107 30.3385C33.1043 30.3264 33.3573 30.4199 33.5699 30.619C33.7124 30.7525 33.8093 30.9114 33.8606 31.0956C33.9116 31.2748 33.9176 31.4555 33.8783 31.6377C33.839 31.8199 33.7526 31.9822 33.6191 32.1248Z" fill="white"/>
<path d="M42.5512 15.9793C42.2815 15.7736 42.0021 15.6159 41.7129 15.5062C41.4246 15.3916 41.1311 15.3282 40.8323 15.3163C40.5315 15.3014 40.2285 15.3423 39.9233 15.4388C39.6211 15.5333 39.3215 15.6844 39.0248 15.8921C38.5214 16.2444 38.1582 16.6915 37.935 17.2334C37.7118 17.7754 37.6575 18.3791 37.772 19.0444C37.8874 19.7048 38.1976 20.3958 38.7026 21.1173C39.2096 21.8418 39.756 22.3717 40.3419 22.7072C40.9278 23.0427 41.5165 23.1964 42.1079 23.1682C42.6993 23.1401 43.2569 22.9427 43.7806 22.5762C44.2665 22.2362 44.6206 21.841 44.8429 21.3907C45.0681 20.9383 45.1534 20.4626 45.0988 19.9633C45.045 19.4592 44.8461 18.9612 44.5019 18.4695L44.8969 18.2907L42.3395 20.0804L41.5607 18.9676L45.0738 16.5089L45.7854 17.5258C46.3108 18.2764 46.6068 19.0401 46.6737 19.8169C46.7414 20.5887 46.5993 21.3209 46.2475 22.0136C45.8986 22.7042 45.3634 23.302 44.6419 23.8069C43.8331 24.373 42.9929 24.6836 42.1213 24.7388C41.2526 24.7919 40.4088 24.5957 39.5899 24.1502C38.7689 23.7019 38.0286 23.0063 37.3689 22.0637C36.8701 21.3509 36.521 20.6416 36.3218 19.9358C36.1226 19.23 36.0635 18.554 36.1444 17.9079C36.2263 17.2568 36.4368 16.6565 36.7761 16.107C37.1162 15.5526 37.5758 15.0727 38.1548 14.6675C38.6377 14.3295 39.1371 14.0862 39.6529 13.9376C40.1717 13.787 40.6856 13.7286 41.1947 13.7624C41.7067 13.7941 42.1966 13.9151 42.6644 14.1252C43.1301 14.3324 43.5535 14.6277 43.9346 15.0112L42.5512 15.9793Z" fill="white"/>
<path d="M49.0586 21.9909L44.6223 12.0246L50.8707 9.24324L51.4469 10.5377L46.7022 12.6497L48.0539 15.6863L52.4726 13.7194L53.0466 15.009L48.628 16.9759L49.9862 20.0271L54.7893 17.8891L55.3655 19.1836L49.0586 21.9909Z" fill="white"/>
<path d="M53.2107 10.7049L52.8505 9.33453L61.016 7.18814L61.3762 8.55849L58.0842 9.42382L60.4974 18.6041L58.9107 19.0212L56.4975 9.84091L53.2107 10.7049Z" fill="white"/>
<path d="M68.3634 7.50071L68.7422 18.4032L67.0973 18.4604L66.7184 7.55787L68.3634 7.50071Z" fill="white"/>
<path d="M80.2404 8.11019L79.7354 19.0076L78.2243 18.9376L73.0555 10.6887L72.9544 10.684L72.584 18.6762L70.9398 18.6L71.4448 7.70259L72.9666 7.77311L78.1403 16.0328L78.2414 16.0375L78.6122 8.03473L80.2404 8.11019Z" fill="white"/>
<path d="M85.5153 11.9098L85.9425 10.5588L93.9925 13.1043L93.5653 14.4553L90.3199 13.4291L87.458 22.4795L85.8937 21.9849L88.7556 12.9344L85.5153 11.9098Z" fill="white"/>
<path d="M101.263 23.6787C100.738 24.7187 100.097 25.5169 99.3393 26.0733C98.583 26.6265 97.772 26.9374 96.9062 27.0059C96.0452 27.0728 95.1946 26.8943 94.3544 26.4706C93.5109 26.0452 92.8586 25.4657 92.3974 24.7319C91.941 23.9967 91.7113 23.1589 91.7082 22.2187C91.7051 21.2786 91.965 20.29 92.4879 19.2532C93.0124 18.2132 93.6528 17.4166 94.409 16.8634C95.1669 16.307 95.9763 15.9953 96.8373 15.9284C97.7031 15.86 98.5577 16.0384 99.4011 16.4638C100.241 16.8875 100.89 17.4671 101.346 18.2024C101.807 18.9361 102.039 19.773 102.043 20.7132C102.047 21.6502 101.787 22.6387 101.263 23.6787ZM99.8075 22.9447C100.207 22.1521 100.415 21.4199 100.432 20.7481C100.453 20.0748 100.313 19.4868 100.009 18.9839C99.711 18.4794 99.2827 18.0864 98.7247 17.805C98.1635 17.522 97.5913 17.4104 97.0083 17.4703C96.4268 17.5271 95.8702 17.7634 95.3383 18.1792C94.8112 18.5935 94.3478 19.1969 93.948 19.9896C93.5482 20.7823 93.3376 21.5153 93.3162 22.1886C93.2996 22.8603 93.4405 23.4484 93.7389 23.9528C94.0389 24.4541 94.4696 24.8463 95.0308 25.1294C95.5888 25.4108 96.1586 25.5231 96.74 25.4664C97.3262 25.4081 97.8829 25.1718 98.41 24.7575C98.9419 24.3417 99.4077 23.7374 99.8075 22.9447Z" fill="white"/>
<circle cx="67.5" cy="66.5" r="22.5" fill="#E67E82"/>
<path d="M72 63.5L76 67.5M76 67.5L72 71.5M76 67.5H58" stroke="#FDFAEC" stroke-opacity="0.85" stroke-width="2" stroke-linecap="round" stroke-linejoin="round"/>
<path d="M110.403 25.224L111.71 26.234L107.322 31.9106C106.855 32.5147 106.299 32.9402 105.655 33.1872C105.013 33.4315 104.331 33.4883 103.611 33.3577C102.892 33.2244 102.188 32.8906 101.497 32.3563C100.808 31.8242 100.309 31.2273 99.9991 30.5658C99.6913 29.9014 99.5747 29.2278 99.6493 28.5448C99.7261 27.8591 99.9979 27.2142 100.465 26.6101L104.853 20.9335L106.155 21.9402L101.849 27.5115C101.547 27.902 101.364 28.3152 101.301 28.7511C101.241 29.1892 101.302 29.6181 101.485 30.0377C101.67 30.4545 101.98 30.8312 102.415 31.1678C102.854 31.5067 103.298 31.7131 103.748 31.7871C104.203 31.8605 104.632 31.8107 105.035 31.6376C105.441 31.4666 105.795 31.1859 106.097 30.7953L110.403 25.224Z" fill="white"/>
<path d="M116.19 37.9706L115.09 36.7252C115.314 36.4421 115.469 36.1461 115.556 35.837C115.643 35.5279 115.674 35.2166 115.648 34.903C115.622 34.5894 115.542 34.2838 115.407 33.9861C115.274 33.6911 115.092 33.4132 114.862 33.1524C114.446 32.6814 113.955 32.3642 113.389 32.2009C112.825 32.0402 112.219 32.0543 111.571 32.2431C110.925 32.4346 110.272 32.8219 109.612 33.405C108.947 33.9928 108.479 34.5954 108.21 35.2127C107.942 35.8327 107.856 36.4324 107.951 37.0119C108.046 37.5914 108.299 38.114 108.711 38.5797C108.939 38.8378 109.19 39.0521 109.464 39.2225C109.742 39.3932 110.034 39.5119 110.34 39.5786C110.645 39.6453 110.955 39.6557 111.27 39.6097C111.59 39.5641 111.902 39.4514 112.208 39.2715L113.304 40.5205C112.844 40.809 112.36 41.0068 111.852 41.1138C111.35 41.2211 110.845 41.2338 110.337 41.1521C109.834 41.0706 109.347 40.8984 108.878 40.6354C108.409 40.3724 107.975 40.016 107.578 39.5663C106.953 38.8584 106.563 38.0795 106.409 37.2297C106.258 36.3776 106.356 35.5144 106.702 34.6401C107.05 33.7686 107.659 32.9484 108.529 32.1795C109.402 31.4083 110.293 30.9061 111.2 30.673C112.11 30.4374 112.978 30.4483 113.802 30.7056C114.629 30.9605 115.354 31.4406 115.977 32.1459C116.36 32.5797 116.655 33.0394 116.862 33.5252C117.073 34.0112 117.192 34.5104 117.218 35.0228C117.247 35.5327 117.177 36.0379 117.007 36.5381C116.841 37.036 116.568 37.5135 116.19 37.9706Z" fill="white"/>
<path d="M109.981 43.9014L119.394 38.3874L120.226 39.8076L116.135 42.2038L118.884 46.8965L122.975 44.5003L123.809 45.9251L114.396 51.4391L113.562 50.0143L117.666 47.61L114.917 42.9173L110.813 45.3216L109.981 43.9014Z" fill="white"/>
<path d="M113.806 53.3513C113.71 53.0764 113.724 52.8061 113.849 52.5404C113.978 52.2734 114.181 52.0913 114.46 51.994C114.735 51.8979 115.004 51.9147 115.267 52.0445C115.534 52.1731 115.716 52.3748 115.812 52.6497C115.908 52.9246 115.892 53.1955 115.763 53.4624C115.638 53.7282 115.438 53.9091 115.163 54.0053C114.979 54.0697 114.793 54.082 114.606 54.0421C114.423 54.0043 114.261 53.9258 114.117 53.8067C113.974 53.6875 113.87 53.5357 113.806 53.3513Z" fill="white"/>
</svg>
