<svg width="386" height="386" viewBox="0 0 386 386" fill="none" xmlns="http://www.w3.org/2000/svg">
<circle cx="193.347" cy="180.248" r="120.97" fill="#ECF6EF"/>
<circle cx="79.9591" cy="98.5679" r="7.58214" fill="#ECF6EF"/>
<circle cx="235.392" cy="45.1482" r="14.1304" fill="#ECF6EF"/>
<circle cx="91.3317" cy="276.748" r="13.4411" fill="#ECF6EF"/>
<circle cx="322.931" cy="245.041" r="13.4411" fill="#ECF6EF"/>
<circle cx="296.74" cy="260.205" r="6.54821" fill="#ECF6EF"/>
<path d="M200.256 65.163C199.857 65.078 199.857 64.5076 200.256 64.4227L206.298 63.1378C206.444 63.1068 206.558 62.9933 206.589 62.8478L207.89 56.8484C207.977 56.4507 208.544 56.4507 208.63 56.8484L209.931 62.8478C209.963 62.9933 210.077 63.1068 210.222 63.1378L216.264 64.4227C216.664 64.5076 216.664 65.078 216.264 65.163L210.222 66.4478C210.077 66.4788 209.963 66.5923 209.931 66.7378L208.63 72.7373C208.544 73.1349 207.977 73.1349 207.89 72.7373L206.589 66.7378C206.558 66.5923 206.444 66.4788 206.298 66.4478L200.256 65.163Z" fill="#8ECEA3"/>
<path d="M62.1906 188.604C62.3449 187.875 63.3851 187.875 63.5393 188.604L65.8435 199.489C65.8996 199.755 66.1061 199.962 66.3711 200.02L77.1443 202.367C77.8677 202.525 77.8677 203.556 77.1443 203.714L66.3711 206.061C66.1061 206.119 65.8996 206.326 65.8435 206.592L63.5393 217.477C63.3851 218.206 62.3449 218.206 62.1906 217.477L59.8865 206.592C59.8303 206.326 59.6238 206.119 59.3589 206.061L48.5857 203.714C47.8623 203.556 47.8623 202.525 48.5857 202.367L59.3589 200.02C59.6238 199.962 59.8303 199.755 59.8865 199.489L62.1906 188.604Z" fill="#8ECEA3"/>
<path d="M301.458 101.754C301.612 101.025 302.652 101.025 302.806 101.754L304.15 108.104C304.207 108.369 304.413 108.577 304.678 108.635L310.981 110.008C311.704 110.166 311.704 111.197 310.981 111.355L304.678 112.728C304.413 112.786 304.207 112.993 304.15 113.259L302.806 119.609C302.652 120.338 301.612 120.338 301.458 119.609L300.113 113.259C300.057 112.993 299.851 112.786 299.586 112.728L293.283 111.355C292.56 111.197 292.56 110.166 293.283 110.008L299.586 108.635C299.851 108.577 300.057 108.369 300.113 108.104L301.458 101.754Z" fill="#8ECEA3"/>
<path d="M329.245 203.567L331.356 213.539L341.186 215.681L331.356 217.822L329.245 227.794L327.134 217.822L317.305 215.681L327.134 213.539L329.245 203.567Z" fill="white"/>
<path d="M261.93 125.45L98.9141 187.83L133.723 284.675L154.746 293.98L180.939 299.495L207.477 298.461L222.985 295.704L236.771 291.568L259.518 279.85L278.818 264.686L280.308 262.76C288.719 251.887 296.177 240.308 302.598 228.154L261.93 125.45Z" fill="url(#paint0_linear_232_1557)"/>
<path d="M111.318 160.259L94.0859 150.609L243.661 94.0875L235.734 113.732L241.593 131.998L117.866 179.214L111.318 160.259Z" fill="#BDE4CB"/>
<path d="M133.031 284.33V284.33C148.114 292.042 164.443 297.022 181.262 299.041L181.682 299.091L193.674 299.091C202.656 299.091 211.613 298.135 220.393 296.239L223.366 295.598C232.754 293.571 241.817 290.261 250.302 285.762V285.762C256.922 282.251 263.146 278.039 268.866 273.199L270.723 271.628C275.687 267.427 280.294 262.821 284.494 257.857V257.857C290.376 250.906 295.428 243.293 299.548 235.173L303.285 227.809" stroke="#8ECEA3" stroke-width="2.75714"/>
<path d="M97.5898 186.393L133.721 284.997" stroke="#8ECEA3" stroke-width="2.75714"/>
<path d="M263.363 125.391L303.002 228.962" stroke="#8ECEA3" stroke-width="2.75714"/>
<path d="M91.3861 150.895L245.782 92.8786" stroke="#8ECEA3" stroke-width="2.75714"/>
<path d="M96.7918 188.169L261.192 124.768L236.956 113.513C236.26 113.19 235.962 112.361 236.293 111.668L244.733 94.0076" stroke="#8ECEA3" stroke-width="2.75714"/>
<path d="M92.7711 150.418L110.15 159.736C110.81 160.09 111.067 160.907 110.727 161.575L97.5894 187.427" stroke="#8ECEA3" stroke-width="2.75714"/>
<path d="M92.0762 149.171L103.274 177.162" stroke="#8ECEA3" stroke-width="2.75714"/>
<path d="M110.975 161.293L117.867 180.593" stroke="#8ECEA3" stroke-width="2.75714"/>
<path d="M236.424 113.043L243.317 133.032" stroke="#8ECEA3" stroke-width="2.75714"/>
<path d="M244.854 94.3304L254.747 121.6" stroke="#8ECEA3" stroke-width="2.75714"/>
<circle cx="162.325" cy="178.87" r="7.2375" fill="#BDE4CB"/>
<circle cx="151.986" cy="141.648" r="5.16964" fill="#ECF6EF"/>
<circle cx="207.82" cy="161.637" r="7.2375" fill="#BDE4CB"/>
<circle cx="183.693" cy="129.93" r="5.16964" fill="#ECF6EF"/>
<defs>
<linearGradient id="paint0_linear_232_1557" x1="200.756" y1="125.45" x2="200.756" y2="299.495" gradientUnits="userSpaceOnUse">
<stop stop-color="#ECF6EF"/>
<stop offset="1" stop-color="#C8EAD4"/>
</linearGradient>
</defs>
</svg>
