<svg width="48" height="56" viewBox="0 0 48 56" fill="none" xmlns="http://www.w3.org/2000/svg">
<path d="M41.4 40.4C40.6 41.2 39.4 41.2 38.6 40.4C37.8 39.6 37.8 38.4 38.6 37.6C42 34 44 29.2 44 24C44 13 35 4 24 4C13 4 4 13 4 24C4 29.2 6 34 9.6 37.8C10.4 38.6 10.4 39.8 9.6 40.6C8.8 41.4 7.6 41.4 6.8 40.6C2.4 36.2 0 30.2 0 24C0 10.8 10.8 0 24 0C37.2 0 48 10.8 48 24C48 30.2 45.6 36 41.4 40.4Z" fill="#526138"/>
<path d="M14 44H34C35.2 44 36 44.8 36 46C36 47.2 35.2 48 34 48H14C12.8 48 12 47.2 12 46C12 44.8 12.8 44 14 44ZM18 52H30C31.2 52 32 52.8 32 54C32 55.2 31.2 56 30 56H18C16.8 56 16 55.2 16 54C16 52.8 16.8 52 18 52Z" fill="#526138"/>
</svg>
