<svg width="58" height="57" viewBox="0 0 58 57" fill="none" xmlns="http://www.w3.org/2000/svg">
<path d="M35.2706 7.58209C34.5578 9.09283 34.1854 10.7632 34.1854 12.4867C34.1854 15.5614 35.377 18.4339 37.5473 20.6043C39.7071 22.764 42.5902 23.9662 45.6649 23.9662C47.3885 23.9662 49.0588 23.5939 50.5695 22.8704C48.5268 24.9344 45.782 26.0515 42.8988 26.0515C42.1434 26.0515 41.388 25.9664 40.6539 25.8174C39.473 25.5621 38.2176 25.9344 37.3558 26.7962L16.4395 47.7019C16.3331 44.4357 13.6946 41.8079 10.4284 41.6909L31.3235 20.7851C32.1853 19.9234 32.5576 18.6893 32.3023 17.487C31.5469 13.8804 32.6427 10.1674 35.2599 7.58209L35.2706 7.58209ZM38.9198 39.1056L50.4099 50.5957C51.0483 51.2341 51.0483 52.2767 50.4099 52.9044C49.7822 53.5321 48.729 53.5321 48.1013 52.9044L36.6111 41.4143L38.9198 39.1056ZM41.4519 0.97524C41.1859 0.97524 40.9093 1.00716 40.6327 1.03907C32.4938 2.31576 27.0785 10.1355 28.7808 18.2424L4.66204 42.3718C1.58736 45.4358 1.58736 50.4255 4.66204 53.4789C7.71545 56.5323 12.7264 56.5323 15.7692 53.4789L39.8986 29.3496C48.0055 31.0412 55.8359 25.6472 57.0913 17.4977C57.3998 15.5401 56.6125 14.423 55.5805 14.423C55.1018 14.423 54.5804 14.6571 54.0698 15.1571L51.1972 18.0296C48.1438 21.083 43.1328 21.083 40.0794 18.0296C37.0047 14.9549 37.0047 9.97587 40.0794 6.91183C40.0794 6.91183 41.3668 5.6245 42.952 4.03929C44.3882 2.61365 43.6754 0.964601 41.4519 0.97524ZM8.36443 49.7765C6.70474 48.1169 7.91759 45.3081 10.2156 45.3081C12.5137 45.3081 13.7478 48.1169 12.0775 49.7765C11.0455 50.7979 9.38578 50.7979 8.36443 49.7765ZM4.64076 3.42222L0.927734 7.12461L5.55572 13.6144L9.43897 15.6571L18.5247 24.7429L22.2271 21.0405L13.1626 11.9441L11.1199 8.06084L4.64076 3.42222ZM37.9942 34.9244L32.4406 40.478C31.9299 40.9887 31.9299 41.8185 32.4406 42.3292L45.5585 55.4472C47.6012 57.4792 50.9313 57.4898 52.9739 55.4472C55.0166 53.4045 55.0166 50.0744 52.9739 48.0317L39.856 34.9138C39.3347 34.4031 38.5155 34.4031 37.9942 34.9244Z" fill="#526138"/>
</svg>
