<svg width="183" height="132" viewBox="0 0 183 132" fill="none" xmlns="http://www.w3.org/2000/svg">
<path d="M183 66.5C182.993 78.5373 179.645 90.3405 173.32 100.616C166.996 110.892 157.941 119.244 147.147 124.756C146.661 125.008 146.172 125.251 145.679 125.483L145.577 125.534L145.226 125.701C144.935 125.842 144.65 125.973 144.354 126.105C142.51 126.943 140.617 127.696 138.678 128.363C137.577 128.743 136.464 129.095 135.34 129.419L133.995 129.787C119.027 133.739 103.135 132.368 89.081 125.913C88.5052 125.645 87.9294 125.372 87.3638 125.089L86.3446 124.584C76.2575 119.344 67.7007 111.618 61.498 102.15C60.8457 101.163 60.2241 100.153 59.633 99.1186C59.1064 98.2194 58.5968 97.3085 58.1042 96.3857C53.3168 87.1395 50.8272 76.8931 50.8428 66.5C50.8428 65.2741 50.8768 64.055 50.9448 62.8426C51.9001 45.8104 59.5204 29.8196 72.1848 18.2713C84.8493 6.72297 101.559 0.528265 118.759 1.00471C135.96 1.48115 152.294 8.59114 164.288 20.8225C176.283 33.0539 182.99 49.4415 182.985 66.5H183Z" fill="url(#paint0_linear_128_3865)"/>
<path d="M85.5503 130.181C120.096 130.181 148.1 129.401 148.1 128.439C148.1 127.476 120.096 126.696 85.5503 126.696C51.0047 126.696 23 127.476 23 128.439C23 129.401 51.0047 130.181 85.5503 130.181Z" fill="#2E353A"/>
<path d="M117.238 126.851H111.451V22.5583L117.238 29.2876V126.851Z" stroke="#2E353A" stroke-linecap="round" stroke-linejoin="round"/>
<path d="M111.505 102.293H117.183L111.505 96.8052H117.183L111.505 102.293Z" stroke="#2E353A" stroke-linecap="round" stroke-linejoin="round"/>
<path d="M111.505 96.667H117.183L111.505 91.1788H117.183L111.505 96.667Z" stroke="#2E353A" stroke-linecap="round" stroke-linejoin="round"/>
<path d="M111.505 113.498H117.183L111.505 108.01H117.183L111.505 113.498Z" stroke="#2E353A" stroke-linecap="round" stroke-linejoin="round"/>
<path d="M111.505 107.872H117.183L111.505 102.383H117.183L111.505 107.872Z" stroke="#2E353A" stroke-linecap="round" stroke-linejoin="round"/>
<path d="M111.505 91.0405H117.183L111.505 85.5523H117.183L111.505 91.0405Z" stroke="#2E353A" stroke-linecap="round" stroke-linejoin="round"/>
<path d="M111.505 85.414H117.183L111.505 79.9258H117.183L111.505 85.414Z" stroke="#2E353A" stroke-linecap="round" stroke-linejoin="round"/>
<path d="M111.505 79.7875H117.183L111.505 74.2993H117.183L111.505 79.7875Z" stroke="#2E353A" stroke-linecap="round" stroke-linejoin="round"/>
<path d="M111.505 74.1611H117.183L111.505 68.6729H117.183L111.505 74.1611Z" stroke="#2E353A" stroke-linecap="round" stroke-linejoin="round"/>
<path d="M111.505 68.5347H117.183L111.505 63.0464H117.183L111.505 68.5347Z" stroke="#2E353A" stroke-linecap="round" stroke-linejoin="round"/>
<path d="M111.505 62.9081H117.183L111.505 57.4199H117.183L111.505 62.9081Z" stroke="#2E353A" stroke-linecap="round" stroke-linejoin="round"/>
<path d="M111.505 57.2817H117.183L111.505 51.7935H117.183L111.505 57.2817Z" stroke="#2E353A" stroke-linecap="round" stroke-linejoin="round"/>
<path d="M111.505 51.6552H117.183L111.505 46.167H117.183L111.505 51.6552Z" stroke="#2E353A" stroke-linecap="round" stroke-linejoin="round"/>
<path d="M111.505 46.0288H117.183L111.505 40.5406H117.183L111.505 46.0288Z" stroke="#2E353A" stroke-linecap="round" stroke-linejoin="round"/>
<path d="M111.505 40.4023H117.183L111.505 34.9141H117.183L111.505 40.4023Z" stroke="#2E353A" stroke-linecap="round" stroke-linejoin="round"/>
<path d="M111.505 34.7758H117.183L111.505 29.2876H117.183L111.505 34.7758Z" stroke="#2E353A" stroke-linecap="round" stroke-linejoin="round"/>
<path d="M144.104 34.927L141.301 33.1619H121.296L118.853 34.927H144.104Z" stroke="#2E353A" stroke-linecap="round" stroke-linejoin="round"/>
<path d="M144.567 34.7758H95.6973V36.0619H144.567V34.7758Z" fill="#2E353A" stroke="#2E353A" stroke-linecap="round" stroke-linejoin="round"/>
<path d="M141.3 33.1618L111.451 22.5583L121.296 33.1618" stroke="#2E353A" stroke-linecap="round" stroke-linejoin="round"/>
<path d="M111.451 22.5583L95.6973 34.7758" stroke="#2E353A" stroke-linecap="round" stroke-linejoin="round"/>
<path d="M121.418 37.5087H109.361V45.225H121.418V37.5087Z" fill="#2E353A" stroke="#2E353A" stroke-linecap="round" stroke-linejoin="round"/>
<path d="M121.418 119.289H109.361V127.005H121.418V119.289Z" fill="#2E353A" stroke="#2E353A" stroke-linecap="round" stroke-linejoin="round"/>
<path d="M118.904 39.1163H111.872V41.3669H118.904V39.1163Z" fill="white" stroke="#2E353A" stroke-linecap="round" stroke-linejoin="round"/>
<path d="M144.566 36.0618V49.9254" stroke="#2E353A" stroke-linecap="round" stroke-linejoin="round"/>
<path d="M146.402 54.6581H142.83V58.706H146.402V54.6581Z" fill="#2E353A" stroke="#2E353A" stroke-linecap="round" stroke-linejoin="round"/>
<path d="M142.83 54.6582L144.614 49.6619L146.402 54.6582" stroke="#2E353A" stroke-linecap="round" stroke-linejoin="round"/>
<path d="M96.9584 118.305V111.154H75.8833V118.311C75.8798 120.647 75.0866 122.913 73.6327 124.741L72.71 125.905H100.119L99.1929 124.741C97.7445 122.909 96.9572 120.641 96.9584 118.305Z" fill="white" stroke="#2E353A" stroke-width="1.09543" stroke-linecap="round" stroke-linejoin="round"/>
<g style="mix-blend-mode:multiply">
<path d="M74.5879 123.317H98.2544C97.4081 121.782 96.9656 120.057 96.9684 118.305V111.154H75.8836V118.311C75.8824 120.062 75.4365 121.785 74.5879 123.317Z" fill="#92E3A9"/>
</g>
<path d="M96.958 112.225H75.8828V115.247H96.958V112.225Z" fill="#2E353A" stroke="#2E353A" stroke-width="1.09543" stroke-linecap="round" stroke-linejoin="round"/>
<path d="M125.788 49.874H47.0533C45.4037 49.874 44.0664 51.2112 44.0664 52.8608V110.418C44.0664 112.068 45.4037 113.405 47.0533 113.405H125.788C127.438 113.405 128.775 112.068 128.775 110.418V52.8608C128.775 51.2112 127.438 49.874 125.788 49.874Z" fill="#2E353A" stroke="#2E353A" stroke-width="1.09543" stroke-linecap="round" stroke-linejoin="round"/>
<path d="M44.0664 103.531H128.775V110.418C128.775 111.21 128.461 111.97 127.9 112.53C127.34 113.09 126.581 113.405 125.788 113.405H47.0693C46.2772 113.405 45.5175 113.09 44.9573 112.53C44.3972 111.97 44.0825 111.21 44.0825 110.418V103.531H44.0664Z" fill="white" stroke="#2E353A" stroke-width="1.09543" stroke-linecap="round" stroke-linejoin="round"/>
<path d="M124.511 53.8286H48.3252V98.7117H124.511V53.8286Z" fill="#92E3A9" stroke="#2E353A" stroke-width="1.09543" stroke-linecap="round" stroke-linejoin="round"/>
<path d="M87.9825 108.47C87.9832 108.16 87.8921 107.858 87.7207 107.601C87.5494 107.343 87.3056 107.142 87.0202 107.024C86.7347 106.905 86.4204 106.874 86.1171 106.933C85.8138 106.993 85.5351 107.142 85.3162 107.36C85.0974 107.579 84.9482 107.857 84.8877 108.16C84.8271 108.464 84.8579 108.778 84.9761 109.064C85.0942 109.349 85.2945 109.594 85.5515 109.765C85.8086 109.937 86.1108 110.029 86.42 110.029C86.625 110.029 86.8281 109.989 87.0177 109.911C87.2072 109.833 87.3795 109.718 87.5247 109.573C87.6698 109.428 87.785 109.256 87.8635 109.067C87.9421 108.878 87.9825 108.675 87.9825 108.47Z" fill="#2E353A" stroke="#2E353A" stroke-width="1.09543" stroke-linecap="round" stroke-linejoin="round"/>
<path d="M100.125 125.902H72.7197V127.178H100.125V125.902Z" fill="white" stroke="#2E353A" stroke-width="1.09543" stroke-linecap="round" stroke-linejoin="round"/>
<path d="M111.213 65.0752C112.096 64.191 112.748 63.1034 113.112 61.9082C113.476 60.7129 113.54 59.4466 113.3 58.2205L108.519 63.0014C108.248 63.2716 107.88 63.4232 107.497 63.4232C107.114 63.4232 106.746 63.2716 106.474 63.0014L102.5 59.0275C102.366 58.8931 102.259 58.7335 102.186 58.5578C102.113 58.3821 102.076 58.1937 102.076 58.0035C102.076 57.8133 102.113 57.6249 102.186 57.4492C102.259 57.2735 102.366 57.1139 102.5 56.9795L107.278 52.2018C105.939 51.9403 104.555 52.043 103.269 52.499C101.983 52.9551 100.843 53.7478 99.9682 54.7945C99.0933 55.8413 98.5152 57.1036 98.2945 58.4499C98.0737 59.7962 98.2183 61.1771 98.7131 62.4484L86.3766 74.5019L85.187 73.3091L87.1161 71.38C87.2147 71.2796 87.2699 71.1446 87.2699 71.0039C87.2699 70.8632 87.2147 70.7281 87.1161 70.6277L85.6114 69.123C85.512 69.0239 85.3773 68.9682 85.2369 68.9682C85.0964 68.9682 84.9618 69.0239 84.8623 69.123L84.11 69.8754L82.4799 68.2485L83.1068 67.6216C83.2396 67.4884 83.3141 67.308 83.3141 67.12C83.3141 66.932 83.2396 66.7516 83.1068 66.6184L69.6451 53.1567C69.3244 52.8355 68.9435 52.5807 68.5242 52.4069C68.105 52.233 67.6555 52.1435 67.2016 52.1435C66.7477 52.1435 66.2983 52.233 65.879 52.4069C65.4597 52.5807 65.0788 52.8355 64.7581 53.1567L63.3821 54.5328C63.061 54.8532 62.8062 55.2338 62.6324 55.6529C62.4586 56.0719 62.3691 56.521 62.3691 56.9747C62.3691 57.4283 62.4586 57.8775 62.6324 58.2965C62.8062 58.7155 63.061 59.0961 63.3821 59.4166L76.8438 72.8815C76.977 73.0142 77.1573 73.0887 77.3453 73.0887C77.5334 73.0887 77.7137 73.0142 77.8469 72.8815L78.4739 72.2546L80.1007 73.8846L79.3516 74.6337C79.302 74.683 79.2627 74.7417 79.2358 74.8062C79.209 74.8708 79.1952 74.94 79.1952 75.0099C79.1952 75.0798 79.209 75.1491 79.2358 75.2136C79.2627 75.2782 79.302 75.3368 79.3516 75.3861L80.853 76.8908C80.9534 76.9893 81.0885 77.0446 81.2292 77.0446C81.3699 77.0446 81.505 76.9893 81.6054 76.8908L83.5345 74.9617L84.7048 76.132L74.4742 86.0989C73.2027 85.6044 71.8218 85.4601 70.4756 85.6809C69.1293 85.9018 67.8669 86.4798 66.82 87.3546C65.7731 88.2294 64.9801 89.369 64.5235 90.6546C64.067 91.9403 63.9637 93.3248 64.2244 94.664L69.0053 89.8863C69.1397 89.7517 69.2993 89.6448 69.475 89.572C69.6507 89.4991 69.8391 89.4616 70.0293 89.4616C70.2196 89.4616 70.4079 89.4991 70.5836 89.572C70.7594 89.6448 70.919 89.7517 71.0534 89.8863L75.0401 93.8345C75.1747 93.9689 75.2816 94.1285 75.3544 94.3042C75.4273 94.4799 75.4648 94.6683 75.4648 94.8585C75.4648 95.0487 75.4273 95.2371 75.3544 95.4128C75.2816 95.5885 75.1747 95.7481 75.0401 95.8825L70.2624 100.66C71.6014 100.921 72.9859 100.818 74.2716 100.362C75.5574 99.9062 76.6972 99.1135 77.5723 98.067C78.4474 97.0205 79.0258 95.7584 79.2471 94.4122C79.4685 93.0661 79.3247 91.6852 78.8307 90.4136L89.0613 80.4467L103.012 94.381C102.811 94.8977 102.765 95.4615 102.879 96.0037C102.994 96.546 103.263 97.0434 103.655 97.4354L107.021 100.802L111.059 96.7602L107.693 93.3972C107.301 93.0055 106.804 92.7361 106.261 92.622C105.719 92.5078 105.155 92.5537 104.639 92.7542L90.7106 78.8263L103.06 66.7856C104.438 67.322 105.943 67.4458 107.391 67.1421C108.839 66.8385 110.167 66.1203 111.213 65.0752Z" fill="#2E353A" stroke="#2E353A" stroke-width="1.09543" stroke-linecap="round" stroke-linejoin="round"/>
<path d="M77.9817 88.6999L102.201 65.072C103.473 65.5675 104.855 65.7123 106.203 65.4912C107.55 65.2701 108.813 64.6911 109.86 63.8149C110.907 62.9387 111.7 61.7973 112.155 60.51C112.61 59.2228 112.711 57.8369 112.448 56.4972L107.67 61.2749C107.536 61.4095 107.376 61.5164 107.2 61.5892C107.025 61.6621 106.836 61.6996 106.646 61.6996C106.456 61.6996 106.268 61.6621 106.092 61.5892C105.916 61.5164 105.756 61.4095 105.622 61.2749L101.648 57.301C101.514 57.1669 101.407 57.0076 101.334 56.8321C101.261 56.6567 101.224 56.4686 101.224 56.2786C101.224 56.0886 101.261 55.9005 101.334 55.7251C101.407 55.5497 101.514 55.3903 101.648 55.2562L106.426 50.4753C105.086 50.2142 103.701 50.3176 102.415 50.7746C101.129 51.2316 99.9892 52.0256 99.1148 53.0735C98.2403 54.1214 97.6632 55.3848 97.4438 56.7319C97.2243 58.079 97.3706 59.4603 97.8672 60.7316L73.6477 84.3595C72.3763 83.8647 70.9955 83.7201 69.6492 83.9409C68.3029 84.1617 67.0406 84.7397 65.9938 85.6147C64.9471 86.4896 64.1543 87.6295 63.6983 88.9152C63.2422 90.201 63.1396 91.5856 63.4011 92.9246L68.1788 88.1469C68.3132 88.0123 68.4728 87.9055 68.6485 87.8326C68.8242 87.7597 69.0126 87.7222 69.2028 87.7222C69.393 87.7222 69.5814 87.7597 69.7571 87.8326C69.9328 87.9055 70.0924 88.0123 70.2268 88.1469L74.2007 92.1208C74.3352 92.2549 74.442 92.4143 74.5148 92.5897C74.5877 92.7652 74.6252 92.9533 74.6252 93.1432C74.6252 93.3332 74.5877 93.5213 74.5148 93.6967C74.442 93.8722 74.3352 94.0315 74.2007 94.1656L69.4134 98.9369C70.7524 99.198 72.1369 99.0951 73.4226 98.639C74.7083 98.1829 75.8481 97.3902 76.7233 96.3437C77.5984 95.2972 78.1767 94.0351 78.3981 92.6889C78.6194 91.3428 78.4756 89.9619 77.9817 88.6903V88.6999Z" fill="white" stroke="#2E353A" stroke-miterlimit="10"/>
<path d="M76.1163 86.2211C75.9311 86.0355 75.8271 85.784 75.8271 85.5218C75.8271 85.2596 75.9311 85.0082 76.1163 84.8225L97.8923 63.6381C98.0785 63.4527 98.3305 63.3487 98.5932 63.3487C98.8559 63.3487 99.1079 63.4527 99.2941 63.6381C99.4794 63.8243 99.5835 64.0763 99.5835 64.339C99.5835 64.6017 99.4794 64.8537 99.2941 65.0399L77.5181 86.2211C77.3319 86.4065 77.0799 86.5105 76.8172 86.5105C76.5545 86.5105 76.3024 86.4065 76.1163 86.2211Z" fill="white" stroke="#2E353A" stroke-miterlimit="10"/>
<path d="M82.576 69.8254L80.9482 71.4532L104.435 94.9401L106.063 93.3123L82.576 69.8254Z" fill="white" stroke="#2E353A" stroke-miterlimit="10"/>
<path d="M110.207 95.0466L106.169 99.0848L102.803 95.7218C102.267 95.1858 101.966 94.459 101.966 93.7011C101.966 92.9432 102.267 92.2164 102.803 91.6804C103.068 91.4152 103.383 91.2048 103.729 91.0613C104.075 90.9177 104.447 90.8439 104.822 90.8439C105.197 90.8439 105.568 90.9177 105.914 91.0613C106.261 91.2048 106.576 91.4152 106.841 91.6804L110.207 95.0466Z" fill="white" stroke="#2E353A" stroke-miterlimit="10"/>
<path d="M80.384 65.2547L76.376 69.2628L79.6315 72.5183L83.6396 68.5103L80.384 65.2547Z" fill="white" stroke="#2E353A" stroke-miterlimit="10"/>
<path d="M62.5374 52.7928L63.9151 51.4151C64.2357 51.0945 64.6164 50.8401 65.0353 50.6666C65.4543 50.4931 65.9033 50.4038 66.3567 50.4038C66.8102 50.4038 67.2592 50.4931 67.6782 50.6666C68.0971 50.8401 68.4778 51.0945 68.7984 51.4151L82.2617 64.8784C82.3944 65.0111 82.4689 65.191 82.4689 65.3786C82.4689 65.5662 82.3944 65.7461 82.2617 65.8787L77.001 71.1395C76.8683 71.2721 76.6884 71.3466 76.5008 71.3466C76.3132 71.3466 76.1333 71.2721 76.0007 71.1395L62.5374 57.6762C61.8898 57.0286 61.526 56.1503 61.526 55.2345C61.526 54.3187 61.8898 53.4404 62.5374 52.7928Z" fill="white" stroke="#2E353A" stroke-miterlimit="10"/>
<path d="M84.0148 67.3861L78.504 72.8969C78.2969 73.1041 78.2969 73.44 78.504 73.6472L80.009 75.1522C80.2162 75.3593 80.5521 75.3593 80.7593 75.1522L86.2701 69.6414C86.4773 69.4342 86.4773 69.0983 86.2701 68.8911L84.7651 67.3861C84.5579 67.1789 84.222 67.1789 84.0148 67.3861Z" fill="white" stroke="#2E353A" stroke-miterlimit="10"/>
<path d="M77.7535 69.1392L76.6475 70.2484L63.4269 57.0278C63.2799 56.8807 63.1973 56.6812 63.1973 56.4732C63.1973 56.2652 63.2799 56.0657 63.4269 55.9186C63.4996 55.8454 63.586 55.7873 63.6811 55.7476C63.7763 55.708 63.8784 55.6876 63.9815 55.6876C64.0847 55.6876 64.1867 55.708 64.2819 55.7476C64.3771 55.7873 64.4635 55.8454 64.5361 55.9186L77.7535 69.1392Z" fill="white" stroke="#2E353A" stroke-miterlimit="10"/>
<path d="M79.6398 67.2519L78.5274 68.3611L65.3068 55.1405C65.1598 54.9934 65.0771 54.7939 65.0771 54.5859C65.0771 54.3779 65.1598 54.1784 65.3068 54.0313C65.3794 53.9581 65.4658 53.9 65.561 53.8604C65.6562 53.8207 65.7583 53.8003 65.8614 53.8003C65.9645 53.8003 66.0666 53.8207 66.1618 53.8604C66.257 53.9 66.3434 53.9581 66.416 54.0313L79.6398 67.2519Z" fill="white" stroke="#2E353A" stroke-miterlimit="10"/>
<path d="M81.5285 65.3646L80.4161 66.4641L67.1955 53.2532C67.0484 53.1061 66.9658 52.9066 66.9658 52.6986C66.9658 52.4906 67.0484 52.2911 67.1955 52.144C67.2681 52.0708 67.3545 52.0127 67.4497 51.973C67.5449 51.9334 67.647 51.913 67.7501 51.913C67.8532 51.913 67.9553 51.9334 68.0505 51.973C68.1457 52.0127 68.2321 52.0708 68.3047 52.144L81.5285 65.3646Z" fill="white" stroke="#2E353A" stroke-miterlimit="10"/>
<path d="M125.781 127.574H124.71L117.788 70.7756H118.862L125.781 127.574Z" fill="white" stroke="#2E353A" stroke-miterlimit="10"/>
<path d="M134.139 127.574H133.069L126.146 70.7756H127.22L134.139 127.574Z" fill="white" stroke="#2E353A" stroke-miterlimit="10"/>
<path d="M127.287 75.4825H118.931L118.716 73.7303H127.075L127.287 75.4825Z" fill="white" stroke="#2E353A" stroke-miterlimit="10"/>
<path d="M128.077 81.9514H119.721L119.509 80.1992H127.865L128.077 81.9514Z" fill="white" stroke="#2E353A" stroke-miterlimit="10"/>
<path d="M128.866 88.4202H120.507L120.295 86.6679H128.651L128.866 88.4202Z" fill="white" stroke="#2E353A" stroke-miterlimit="10"/>
<path d="M129.656 94.8923H121.299L121.084 93.14H129.44L129.656 94.8923Z" fill="white" stroke="#2E353A" stroke-miterlimit="10"/>
<path d="M130.442 101.361H122.086L121.87 99.6088H130.226L130.442 101.361Z" fill="white" stroke="#2E353A" stroke-miterlimit="10"/>
<path d="M131.23 107.83H122.874L122.662 106.078H131.018L131.23 107.83Z" fill="white" stroke="#2E353A" stroke-miterlimit="10"/>
<path d="M132.017 114.302H123.66L123.448 112.55H131.804L132.017 114.302Z" fill="white" stroke="#2E353A" stroke-miterlimit="10"/>
<path d="M132.809 120.771H124.45L124.237 119.019H132.593L132.809 120.771Z" fill="white" stroke="#2E353A" stroke-miterlimit="10"/>
<path d="M118.803 74.4183H119.896" stroke="#2E353A" stroke-width="0.5" stroke-miterlimit="10"/>
<path d="M119.062 74.9327H121.183" stroke="#2E353A" stroke-width="0.5" stroke-miterlimit="10"/>
<path d="M127.16 74.9327H125.617" stroke="#2E353A" stroke-width="0.5" stroke-miterlimit="10"/>
<path d="M127.931 81.1669H126.517" stroke="#2E353A" stroke-width="0.5" stroke-miterlimit="10"/>
<path d="M119.833 81.4883H123.112" stroke="#2E353A" stroke-width="0.5" stroke-miterlimit="10"/>
<path d="M120.412 87.5295H123.241" stroke="#2E353A" stroke-width="0.5" stroke-miterlimit="10"/>
<path d="M120.539 88.044H122.082" stroke="#2E353A" stroke-width="0.5" stroke-miterlimit="10"/>
<path d="M129.6 93.8923H127.867" stroke="#2E353A" stroke-width="0.5" stroke-miterlimit="10"/>
<path d="M129.475 94.4067H126.581" stroke="#2E353A" stroke-width="0.5" stroke-miterlimit="10"/>
<path d="M131.992 113.643H129.34" stroke="#2E353A" stroke-width="0.5" stroke-miterlimit="10"/>
<path d="M123.552 113.161H125.159" stroke="#2E353A" stroke-width="0.5" stroke-miterlimit="10"/>
<path d="M128.937 113.643H126.847" stroke="#2E353A" stroke-width="0.5" stroke-miterlimit="10"/>
<path d="M124.355 119.832H126.606" stroke="#2E353A" stroke-width="0.5" stroke-miterlimit="10"/>
<path d="M124.839 120.395H127.411" stroke="#2E353A" stroke-width="0.5" stroke-miterlimit="10"/>
<path d="M122.267 100.782H122.99" stroke="#2E353A" stroke-width="0.5" stroke-miterlimit="10"/>
<path d="M130.144 100.622H127.491" stroke="#2E353A" stroke-width="0.5" stroke-miterlimit="10"/>
<path d="M63.1333 93.6126L61.8601 95.2716L34.165 73.6499L35.4414 71.9909L63.1333 93.6126Z" fill="#2E353A" stroke="#2E353A" stroke-width="1.09543" stroke-linecap="round" stroke-linejoin="round"/>
<path d="M34.165 93.6126L35.4414 95.2716L63.1333 73.6499L61.8601 71.9909L34.165 93.6126Z" fill="#2E353A" stroke="#2E353A" stroke-width="1.09543" stroke-linecap="round" stroke-linejoin="round"/>
<path d="M63.1333 117.9L62.3456 120.038L34.165 97.937L34.972 95.7797L63.1333 117.9Z" fill="#2E353A" stroke="#2E353A" stroke-width="1.09543" stroke-linecap="round" stroke-linejoin="round"/>
<path d="M34.165 117.9L34.3579 120.407L63.1333 97.9369L61.8601 96.2811L34.165 117.9Z" fill="#2E353A" stroke="#2E353A" stroke-width="1.09543" stroke-linecap="round" stroke-linejoin="round"/>
<path d="M34.8177 71.7626H33.6924V127.577H34.8177V71.7626Z" fill="#2E353A" stroke="#2E353A" stroke-width="1.09543" stroke-linecap="round" stroke-linejoin="round"/>
<path d="M63.2884 71.7626H62.1631V127.577H63.2884V71.7626Z" fill="#2E353A" stroke="#2E353A" stroke-width="1.09543" stroke-linecap="round" stroke-linejoin="round"/>
<path d="M57.7163 93.6126L56.4399 95.2716L28.748 73.6499L30.0212 71.9909L57.7163 93.6126Z" fill="white" stroke="#2E353A" stroke-width="1.09543" stroke-linecap="round" stroke-linejoin="round"/>
<path d="M28.748 93.6126L30.0212 95.2716L57.7163 73.6499L56.4399 71.9909L28.748 93.6126Z" fill="white" stroke="#2E353A" stroke-width="1.09543" stroke-linecap="round" stroke-linejoin="round"/>
<path d="M57.7163 117.9L56.9254 120.038L28.748 97.937L29.1532 95.7797L57.7163 117.9Z" fill="white" stroke="#2E353A" stroke-width="1.09543" stroke-linecap="round" stroke-linejoin="round"/>
<path d="M28.748 117.9L28.941 120.407L57.7163 97.9369L56.4399 96.2811L28.748 117.9Z" fill="white" stroke="#2E353A" stroke-width="1.09543" stroke-linecap="round" stroke-linejoin="round"/>
<path d="M29.3987 71.7626H28.2734V127.577H29.3987V71.7626Z" fill="white" stroke="#2E353A" stroke-width="1.09543" stroke-linecap="round" stroke-linejoin="round"/>
<path d="M57.8675 71.7626H56.7422V127.577H57.8675V71.7626Z" fill="white" stroke="#2E353A" stroke-width="1.09543" stroke-linecap="round" stroke-linejoin="round"/>
<path d="M59.3172 71.2451H26.8252V73.0134H59.3172V71.2451Z" fill="white" stroke="#2E353A" stroke-width="1.09543" stroke-linecap="round" stroke-linejoin="round"/>
<path d="M64.3241 71.2451H55.3057V73.0134H64.3241V71.2451Z" fill="#2E353A" stroke="#2E353A" stroke-width="1.09543" stroke-linecap="round" stroke-linejoin="round"/>
<path d="M59.3172 94.4067H26.8252V96.175H59.3172V94.4067Z" fill="white" stroke="#2E353A" stroke-width="1.09543" stroke-linecap="round" stroke-linejoin="round"/>
<path d="M64.3241 94.4067H55.3057V96.175H64.3241V94.4067Z" fill="#2E353A" stroke="#2E353A" stroke-width="1.09543" stroke-linecap="round" stroke-linejoin="round"/>
<path d="M99.8049 127.574H97.2617L100.654 107.701H103.2L99.8049 127.574Z" fill="#2E353A" stroke="#2E353A" stroke-width="0.972732" stroke-miterlimit="10"/>
<path d="M104.895 127.574H107.441L104.046 107.701H101.503L104.895 127.574Z" fill="white" stroke="#2E353A" stroke-width="0.972732" stroke-miterlimit="10"/>
<path d="M135.918 127.574H133.375L136.767 107.701H139.31L135.918 127.574Z" fill="#2E353A" stroke="#2E353A" stroke-width="0.972732" stroke-miterlimit="10"/>
<path d="M141.007 127.574H143.554L140.158 107.701H137.615L141.007 127.574Z" fill="white" stroke="#2E353A" stroke-width="0.972732" stroke-miterlimit="10"/>
<path d="M142.789 101.956H94.25V108.698H142.789V101.956Z" fill="#92E3A9" stroke="#2E353A" stroke-width="0.972732" stroke-miterlimit="10"/>
<path d="M143.971 101.956H95.4326V108.698H143.971V101.956Z" fill="#92E3A9" stroke="#2E353A" stroke-width="0.972732" stroke-miterlimit="10"/>
<path d="M96.2275 108.698H100.346L102.475 101.956H98.3559L96.2275 108.698Z" fill="#2E353A"/>
<path d="M112.534 101.956H108.413L106.284 108.698H110.406L112.534 101.956Z" fill="#2E353A"/>
<path d="M142.708 101.956H138.586L136.458 108.698H140.58L142.708 101.956Z" fill="#2E353A"/>
<path d="M132.648 101.956H128.53L126.401 108.698H130.52L132.648 101.956Z" fill="#2E353A"/>
<path d="M122.591 101.956H118.469L116.341 108.698H120.463L122.591 101.956Z" fill="#2E353A"/>
<path d="M143.704 104.949H135.673" stroke="#2E353A" stroke-miterlimit="10"/>
<path d="M143.563 106.074H142.296" stroke="#2E353A" stroke-miterlimit="10"/>
<path d="M95.2266 105.795H103.258" stroke="#2E353A" stroke-miterlimit="10"/>
<path d="M95.3643 104.525H105.511" stroke="#2E353A" stroke-miterlimit="10"/>
<defs>
<linearGradient id="paint0_linear_128_3865" x1="117.193" y1="8.09361" x2="114.971" y2="137.225" gradientUnits="userSpaceOnUse">
<stop stop-color="white" stop-opacity="0"/>
<stop offset="1" stop-color="#AB9C50" stop-opacity="0.6"/>
</linearGradient>
</defs>
</svg>
