<svg width="183" height="137" viewBox="0 0 183 137" fill="none" xmlns="http://www.w3.org/2000/svg">
<path d="M183 66.5C182.993 78.5373 179.645 90.3405 173.32 100.616C166.996 110.892 157.941 119.244 147.147 124.756C146.661 125.008 146.172 125.251 145.679 125.483L145.577 125.534L145.226 125.701C144.935 125.842 144.65 125.973 144.354 126.105C142.51 126.943 140.617 127.696 138.678 128.363C137.577 128.743 136.464 129.095 135.34 129.419L133.995 129.787C119.027 133.739 103.135 132.368 89.081 125.913C88.5052 125.645 87.9294 125.372 87.3638 125.089L86.3446 124.584C76.2575 119.344 67.7007 111.618 61.498 102.15C60.8457 101.163 60.2241 100.153 59.633 99.1186C59.1064 98.2194 58.5968 97.3085 58.1042 96.3857C53.3168 87.1395 50.8272 76.8931 50.8428 66.5C50.8428 65.2741 50.8768 64.055 50.9448 62.8426C51.9001 45.8104 59.5204 29.8196 72.1848 18.2713C84.8493 6.72297 101.559 0.528265 118.759 1.00471C135.96 1.48115 152.294 8.59114 164.288 20.8225C176.283 33.0539 182.99 49.4415 182.985 66.5H183Z" fill="url(#paint0_linear_119_779)"/>
<path d="M89.3575 119.074V110.352L78.5664 104.12L79.645 113.466L89.3575 119.074Z" fill="#263238"/>
<path d="M89.3574 119.074L105.544 109.728L106.623 100.382L89.3574 110.352V119.074Z" fill="#37474F"/>
<path d="M77.8921 102.252C77.9 102.166 77.9305 102.084 77.9804 102.014C78.0303 101.944 78.098 101.889 78.1763 101.854L95.1413 92.0587C95.3553 91.95 95.592 91.8933 95.832 91.8933C96.0721 91.8933 96.3087 91.95 96.5227 92.0587L107.014 98.1157C107.092 98.1509 107.16 98.2063 107.21 98.2764C107.26 98.3464 107.29 98.4285 107.298 98.5142V101.006C107.291 101.092 107.261 101.175 107.211 101.246C107.161 101.316 107.093 101.372 107.014 101.407L90.0486 111.199C89.8346 111.308 89.598 111.365 89.3579 111.365C89.1179 111.365 88.8812 111.308 88.6672 111.199L78.1763 105.142C78.0981 105.107 78.0307 105.051 77.9807 104.981C77.9308 104.911 77.9003 104.829 77.8921 104.744V102.252Z" fill="#BA68C8"/>
<path opacity="0.2" d="M78.1763 101.854L89.3579 95.3981V111.367C89.1171 111.371 88.8792 111.314 88.6672 111.199L78.1763 105.142C78.0981 105.107 78.0307 105.051 77.9807 104.981C77.9308 104.911 77.9003 104.829 77.8921 104.744V102.249C77.9004 102.164 77.9311 102.083 77.981 102.013C78.0309 101.944 78.0983 101.889 78.1763 101.854Z" fill="black"/>
<path opacity="0.1" d="M89.3574 95.398L95.1408 92.0587C95.3548 91.95 95.5915 91.8933 95.8315 91.8933C96.0716 91.8933 96.3082 91.95 96.5222 92.0587L107.013 98.1157C107.092 98.1509 107.159 98.2063 107.209 98.2764C107.259 98.3464 107.29 98.4285 107.297 98.5142V101.006C107.29 101.092 107.26 101.175 107.21 101.246C107.16 101.316 107.092 101.372 107.013 101.407L90.0481 111.199C89.8361 111.314 89.5982 111.371 89.3574 111.367V95.398Z" fill="black"/>
<path d="M88.6669 108.708L78.176 102.651C77.7961 102.43 77.7961 102.074 78.176 101.854L95.141 92.0587C95.355 91.95 95.5917 91.8933 95.8317 91.8933C96.0718 91.8933 96.3084 91.95 96.5224 92.0587L107.013 98.1157C107.393 98.3362 107.393 98.6922 107.013 98.9127L90.0483 108.708C89.8343 108.816 89.5977 108.873 89.3576 108.873C89.1176 108.873 88.8809 108.816 88.6669 108.708Z" fill="#BA68C8"/>
<path opacity="0.2" d="M103.927 98.8251C104.224 98.9977 104.208 99.2847 103.889 99.468L92.0914 106.282C91.92 106.373 91.7296 106.422 91.5358 106.425C91.3419 106.428 91.15 106.386 90.9756 106.301C90.6781 106.131 90.6941 105.841 91.0128 105.658L102.811 98.8463C102.982 98.7553 103.172 98.7059 103.366 98.7022C103.56 98.6985 103.752 98.7406 103.927 98.8251Z" fill="black"/>
<path opacity="0.2" d="M92.0912 106.282C91.9198 106.373 91.7294 106.422 91.5355 106.425C91.3417 106.428 91.1498 106.386 90.9754 106.301L90.917 106.261C90.9469 106.236 90.9789 106.214 91.0126 106.194L102.811 99.3829C102.982 99.2919 103.172 99.2425 103.366 99.2388C103.56 99.2351 103.752 99.2772 103.926 99.3617L103.985 99.4042C103.955 99.4282 103.923 99.4495 103.889 99.4679L92.0912 106.282Z" fill="black"/>
<path opacity="0.2" d="M95.2923 93.8413C95.5925 94.0113 95.5766 94.3009 95.2578 94.4842L83.4572 101.296C83.2865 101.387 83.0967 101.436 82.9032 101.44C82.7098 101.443 82.5182 101.401 82.3441 101.317C82.0466 101.144 82.0625 100.857 82.3786 100.674L94.1792 93.8599C94.3502 93.7693 94.5401 93.7204 94.7335 93.7172C94.927 93.7139 95.1185 93.7565 95.2923 93.8413Z" fill="black"/>
<path opacity="0.2" d="M83.4572 101.296C83.2865 101.387 83.0966 101.436 82.9032 101.44C82.7097 101.444 82.5182 101.401 82.3441 101.317C82.3231 101.305 82.3035 101.291 82.2856 101.274C82.3151 101.251 82.3462 101.23 82.3786 101.211L94.1792 94.3992C94.3497 94.3076 94.5396 94.2578 94.7332 94.2541C94.9267 94.2504 95.1184 94.2929 95.2923 94.378C95.3126 94.39 95.3321 94.4033 95.3508 94.4178C95.3218 94.4427 95.2907 94.4649 95.2578 94.4842L83.4572 101.296Z" fill="black"/>
<path opacity="0.2" d="M84.4991 101.955C84.2016 102.127 84.2175 102.414 84.5363 102.597L88.7868 105.047C88.9576 105.138 89.1474 105.187 89.3408 105.191C89.5343 105.195 89.7259 105.152 89.8999 105.068C90.1975 104.895 90.1815 104.608 89.8654 104.425L85.6149 101.976C85.4437 101.885 85.2534 101.835 85.0595 101.832C84.8656 101.828 84.6736 101.87 84.4991 101.955Z" fill="black"/>
<path opacity="0.2" d="M88.784 105.034C88.9547 105.125 89.1445 105.174 89.338 105.178C89.5314 105.181 89.723 105.139 89.8971 105.055C89.9174 105.043 89.9369 105.029 89.9555 105.015C89.9266 104.99 89.8954 104.968 89.8625 104.949L85.612 102.499C85.4408 102.408 85.2505 102.359 85.0566 102.355C84.8628 102.351 84.6708 102.393 84.4962 102.478C84.4765 102.491 84.4579 102.505 84.4404 102.52C84.4691 102.545 84.5002 102.566 84.5334 102.584L88.784 105.034Z" fill="black"/>
<path opacity="0.2" d="M82.3441 103.187C82.0466 103.357 82.0625 103.647 82.3786 103.83L86.6292 106.279C86.8004 106.37 86.9907 106.42 87.1845 106.424C87.3784 106.427 87.5704 106.385 87.745 106.301C88.0425 106.128 88.0266 105.838 87.7078 105.655L83.4572 103.206C83.2863 103.115 83.0963 103.066 82.9029 103.063C82.7094 103.06 82.518 103.102 82.3441 103.187Z" fill="black"/>
<path opacity="0.2" d="M86.6267 106.279C86.7979 106.371 86.9882 106.42 87.1821 106.424C87.3759 106.427 87.5679 106.385 87.7425 106.301C87.7637 106.287 87.7797 106.271 87.7983 106.258C87.7693 106.233 87.7382 106.211 87.7053 106.192L83.4548 103.742C83.2838 103.652 83.0939 103.603 82.9004 103.6C82.707 103.596 82.5155 103.639 82.3416 103.724C82.3208 103.735 82.3012 103.748 82.2832 103.764C82.3122 103.789 82.3433 103.811 82.3762 103.83L86.6267 106.279Z" fill="black"/>
<path opacity="0.2" d="M97.4496 94.4656C97.152 94.6383 97.1653 94.9252 97.4841 95.1085L101.735 97.5579C101.905 97.6489 102.095 97.6983 102.289 97.702C102.482 97.7057 102.674 97.6636 102.848 97.5791C103.148 97.4064 103.132 97.1195 102.813 96.9362L98.5627 94.4869C98.3919 94.3958 98.2021 94.3464 98.0087 94.3428C97.8152 94.3391 97.6236 94.3811 97.4496 94.4656Z" fill="black"/>
<path opacity="0.2" d="M101.732 97.5579C101.903 97.6489 102.094 97.6983 102.288 97.702C102.481 97.7057 102.673 97.6636 102.848 97.5791C102.868 97.5664 102.886 97.5522 102.904 97.5366C102.875 97.5126 102.844 97.4913 102.811 97.4728L98.5602 95.0235C98.3895 94.9324 98.1997 94.8831 98.0062 94.8794C97.8128 94.8757 97.6212 94.9178 97.4471 95.0022C97.4268 95.0142 97.4073 95.0276 97.3887 95.0421C97.4176 95.0669 97.4487 95.0892 97.4816 95.1085L101.732 97.5579Z" fill="black"/>
<path opacity="0.2" d="M95.2928 95.7089C94.9953 95.8815 95.0112 96.1711 95.3274 96.3544L99.5779 98.8038C99.7494 98.894 99.9396 98.9429 100.133 98.9466C100.327 98.9503 100.519 98.9087 100.694 98.825C100.991 98.6524 100.975 98.3628 100.656 98.1795L96.4059 95.7301C96.2348 95.6403 96.0451 95.5916 95.8519 95.5879C95.6587 95.5842 95.4673 95.6256 95.2928 95.7089Z" fill="black"/>
<path opacity="0.2" d="M99.5752 98.8038C99.7466 98.8941 99.9368 98.943 100.131 98.9467C100.324 98.9504 100.516 98.9087 100.691 98.8251L100.749 98.7826C100.719 98.7577 100.687 98.7355 100.654 98.7162L96.4032 96.2668C96.2317 96.1766 96.0416 96.1276 95.8478 96.1239C95.6541 96.1203 95.4622 96.1619 95.2874 96.2455L95.229 96.2881C95.2584 96.3123 95.2895 96.3345 95.322 96.3545L99.5752 98.8038Z" fill="black"/>
<path d="M88.2793 99.8425V102.252L89.3579 102.876L90.4364 102.252V100.424C90.4474 100.225 90.505 100.031 90.6047 99.8579C90.7044 99.6848 90.8433 99.5376 91.0103 99.4281L93.6669 97.8899L94.1716 97.6004C94.4877 97.4171 94.7454 97.5658 94.7454 97.9324V99.7602L95.824 99.1359V96.7264C95.8268 96.6786 95.8268 96.6307 95.824 96.5829C95.8217 96.5462 95.8164 96.5098 95.8081 96.474C95.8006 96.4325 95.7899 96.3916 95.7762 96.3518C95.7654 96.3202 95.753 96.2891 95.739 96.2588C95.7243 96.2284 95.7075 96.1991 95.6885 96.1711C95.6712 96.1439 95.6516 96.1181 95.6301 96.0941C95.6099 96.0708 95.5877 96.0495 95.5637 96.0303C95.5405 96.012 95.5156 95.9959 95.4893 95.9825L95.4547 95.9639L94.416 95.3635C94.2863 95.3027 94.1425 95.2781 93.9999 95.2921C93.8573 95.3061 93.7212 95.3583 93.6058 95.4432L89.4323 97.8527C89.0969 98.0702 88.8177 98.3637 88.6174 98.7095C88.417 99.0553 88.3012 99.4435 88.2793 99.8425Z" fill="#455A64"/>
<path d="M93.6719 97.8899V99.1332L94.7504 99.7575V97.9298C94.7504 97.5632 94.4848 97.4144 94.1766 97.5977L93.6719 97.8899Z" fill="#263238"/>
<path d="M89.3574 100.464V102.876L90.436 102.252V100.424C90.447 100.225 90.5046 100.031 90.6043 99.8579C90.7039 99.6848 90.8429 99.5376 91.0098 99.4281L93.6664 97.8926L94.1712 97.603C94.4873 97.4197 94.745 97.5685 94.745 97.9351V99.7628L95.8236 99.1412V96.729C95.8263 96.6812 95.8263 96.6333 95.8236 96.5855C95.8212 96.5488 95.8159 96.5124 95.8076 96.4766C95.8001 96.4351 95.7895 96.3943 95.7757 96.3544C95.765 96.3228 95.7525 96.2918 95.7385 96.2614C95.7239 96.231 95.707 96.2017 95.6881 96.1738C95.6707 96.1465 95.6512 96.1207 95.6296 96.0967C95.6095 96.0735 95.5873 96.0521 95.5632 96.033C95.5401 96.0146 95.5152 95.9986 95.4888 95.9851L95.4543 95.9665C95.3274 95.9191 95.1908 95.9036 95.0565 95.9211C94.9222 95.9387 94.7943 95.989 94.6839 96.0675L90.5104 98.477C90.176 98.6948 89.8975 98.9881 89.6972 99.3332C89.4969 99.6784 89.3806 100.066 89.3574 100.464Z" fill="#37474F"/>
<path d="M94.7532 110.974L94.3547 110.745L93.2734 111.367L93.6746 111.598L94.7532 110.974Z" fill="#455A64"/>
<path d="M93.6746 111.598L93.2761 116.813L93.2734 111.367L93.6746 111.598Z" fill="#263238"/>
<path d="M94.7535 110.974L94.355 116.189L94.4852 116.127L94.7535 110.974Z" fill="#37474F"/>
<path d="M85.7207 111.991L86.1192 111.76L87.1978 112.382L86.7993 112.613L85.7207 111.991Z" fill="#455A64"/>
<path d="M85.7207 111.991L86.1192 117.203L85.989 117.142L85.7207 111.991Z" fill="black"/>
<path d="M81.4038 109.497L81.805 109.268L82.8835 109.89L82.4824 110.121L81.4038 109.497Z" fill="#455A64"/>
<path d="M87.1978 117.828L86.7993 112.613L87.1978 112.382V117.828Z" fill="#37474F"/>
<path d="M82.8836 109.89V115.336L82.4824 110.121L82.8836 109.89Z" fill="#37474F"/>
<path d="M81.4038 109.497L81.8023 114.711L81.6721 114.65L81.4038 109.497Z" fill="black"/>
<path d="M102.306 106.614L101.908 106.383L100.829 107.005L101.228 107.236L102.306 106.614Z" fill="#455A64"/>
<path d="M101.228 107.236L100.829 112.451V107.005L101.228 107.236Z" fill="#263238"/>
<path d="M102.306 106.614L101.907 111.829L102.04 111.765L102.306 106.614Z" fill="#37474F"/>
<path d="M92.6943 110.089L92.697 108.843L94.8541 107.597L95.2154 107.804L95.2128 109.05L93.053 110.296L92.6943 110.089Z" fill="#37474F"/>
<path d="M95.2152 107.804L95.2125 109.05L93.0527 110.296L93.058 109.05L95.2152 107.804Z" fill="#455A64"/>
<path d="M93.0583 109.05L92.697 108.843L92.6943 110.089L93.053 110.296L93.0583 109.05Z" fill="#263238"/>
<path d="M100.305 105.698L100.31 104.452L102.468 103.206L102.829 103.413L102.824 104.659L100.666 105.905L100.305 105.698Z" fill="#37474F"/>
<path d="M102.829 103.413L102.824 104.659L100.667 105.905L100.67 104.659L102.829 103.413Z" fill="#455A64"/>
<path d="M100.669 104.659L100.31 104.452L100.305 105.698L100.666 105.905L100.669 104.659Z" fill="#263238"/>
<path d="M87.8922 124.206C87.7461 124.289 87.4724 124.286 87.3848 124.384V124.743L89.0531 124.501L89.6827 124.87L89.4436 125.372L87.7593 125.258V125.617C87.7951 125.644 87.8323 125.669 87.8709 125.691C88.2695 125.893 88.71 125.998 89.1567 125.998C89.6034 125.998 90.0439 125.893 90.4425 125.691C90.5894 125.625 90.7161 125.521 90.8095 125.39C90.9029 125.259 90.9596 125.105 90.9738 124.945V124.586L90.8755 124.602C90.8747 124.596 90.8747 124.59 90.8755 124.583L97.1876 120.939C97.8293 121.081 98.5006 120.996 99.087 120.699C99.314 120.588 99.4939 120.4 99.5944 120.168V119.807L97.9261 120.41L97.2965 120.041L97.5356 119.539L99.2199 119.294V118.933C99.2199 118.933 97.2513 118.803 96.5341 119.199C96.3523 119.294 96.1992 119.436 96.0904 119.61L95.9948 119.576V119.932C95.9937 120.065 96.0316 120.195 96.1037 120.306L89.7916 123.951C89.148 123.814 88.4767 123.904 87.8922 124.206Z" fill="#37474F"/>
<path d="M97.1871 120.949V120.591L90.875 124.235V124.594L97.1871 120.949Z" fill="#37474F"/>
<path d="M96.1037 119.964L89.7916 123.608C89.1501 123.466 88.4793 123.55 87.8922 123.845C87.6652 123.956 87.4854 124.144 87.3848 124.376L89.0531 124.134L89.6827 124.504L89.4436 125.003L87.7593 125.25C87.7951 125.277 87.8323 125.302 87.8709 125.325C88.2695 125.526 88.71 125.631 89.1567 125.631C89.6034 125.631 90.0439 125.526 90.4425 125.325C90.9738 125.027 91.112 124.591 90.8755 124.217L97.1876 120.572C97.8294 120.713 98.5002 120.629 99.087 120.333C99.314 120.222 99.4939 120.033 99.5944 119.802L97.9261 120.046L97.2965 119.677L97.5356 119.175L99.2199 118.928L99.1083 118.856C98.7097 118.654 98.2692 118.549 97.8225 118.549C97.3758 118.549 96.9353 118.654 96.5367 118.856C96.024 119.153 95.8673 119.589 96.1037 119.964Z" fill="#455A64"/>
<path d="M97.4292 119.764L97.2964 119.687L97.5355 119.185L99.2198 118.938V119.299L97.5355 119.544L97.4292 119.764Z" fill="#263238"/>
<path d="M89.5499 124.791L89.6827 124.512L89.0531 124.14L87.3848 124.384V124.745L89.0531 124.501L89.5499 124.791Z" fill="#263238"/>
<path d="M91.7549 129.509L93.0832 131.793L97.5356 129.224C97.6387 129.161 97.7214 129.069 97.7741 128.96C97.8268 128.85 97.8473 128.729 97.8332 128.608C97.8157 128.284 97.7219 127.968 97.5594 127.687C97.3969 127.406 97.1703 127.167 96.898 126.99C96.804 126.922 96.6932 126.88 96.5773 126.868C96.4615 126.857 96.3447 126.877 96.2392 126.927L91.7549 129.509Z" fill="#BA68C8"/>
<path d="M91.4896 129.982C91.471 130.33 90.9795 130.404 90.9795 130.404L91.9119 132.022C91.9119 132.022 92.2228 131.639 92.5336 131.791C92.9932 131.99 93.3518 131.743 93.3518 131.193C93.334 130.869 93.24 130.554 93.0775 130.274C92.915 129.993 92.6886 129.754 92.4167 129.578C91.9385 129.299 91.5453 129.485 91.4896 129.982Z" fill="#BA68C8"/>
<path opacity="0.05" d="M91.4896 129.982C91.471 130.33 90.9795 130.404 90.9795 130.404L91.9119 132.022C91.9119 132.022 92.2228 131.639 92.5336 131.791C92.9932 131.99 93.3518 131.743 93.3518 131.193C93.334 130.869 93.24 130.554 93.0775 130.274C92.915 129.993 92.6886 129.754 92.4167 129.578C91.9385 129.299 91.5453 129.485 91.4896 129.982Z" fill="black"/>
<path opacity="0.05" d="M91.1997 130.335C91.1285 130.367 91.0535 130.39 90.9766 130.404L91.909 132.022C91.9605 131.963 92.0185 131.911 92.0817 131.865C92.0551 131.561 91.9623 131.267 91.81 131.002C91.6576 130.738 91.4493 130.51 91.1997 130.335Z" fill="black"/>
<path d="M90.0044 130.518L90.0814 130.654C90.0549 130.748 90.0415 130.845 90.0416 130.943C90.0594 131.267 90.1534 131.583 90.3159 131.864C90.4783 132.145 90.7047 132.384 90.9767 132.561C91.0592 132.611 91.1488 132.647 91.2424 132.67L91.3194 132.806L91.6302 132.628C91.7242 132.559 91.7983 132.467 91.845 132.361C91.8916 132.254 91.9092 132.137 91.8959 132.022C91.8785 131.698 91.7851 131.383 91.6231 131.101C91.461 130.82 91.2351 130.581 90.9634 130.404C90.8688 130.335 90.7576 130.293 90.6413 130.282C90.5251 130.271 90.4079 130.291 90.3019 130.34L90.0044 130.518Z" fill="#BA68C8"/>
<path d="M91.5981 132.202C91.5807 131.879 91.4872 131.563 91.3252 131.282C91.1632 131.001 90.9372 130.762 90.6656 130.585C90.1502 130.287 89.7305 130.529 89.7305 131.116C89.7487 131.44 89.8429 131.755 90.0053 132.036C90.1677 132.317 90.3939 132.556 90.6656 132.734C91.181 133.037 91.5981 132.798 91.5981 132.202Z" fill="#BA68C8"/>
<path opacity="0.15" d="M91.5981 132.202C91.5807 131.879 91.4872 131.563 91.3252 131.282C91.1632 131.001 90.9372 130.762 90.6656 130.585C90.1502 130.287 89.7305 130.529 89.7305 131.116C89.7487 131.44 89.8429 131.755 90.0053 132.036C90.1677 132.317 90.3939 132.556 90.6656 132.734C91.181 133.037 91.5981 132.798 91.5981 132.202Z" fill="black"/>
<path opacity="0.15" d="M90.3018 132.444C90.3709 132.522 90.4484 132.591 90.5329 132.651L90.7507 132.03L90.4851 131.836L90.3018 132.444Z" fill="black"/>
<path opacity="0.2" d="M97.0628 127.968C97.0944 128.028 97.1021 128.097 97.0843 128.162C97.0666 128.227 97.0247 128.283 96.9672 128.319L93.7792 130.154C93.7196 130.187 93.6498 130.195 93.5841 130.178C93.5183 130.161 93.4617 130.119 93.4259 130.061C93.3943 130.002 93.3866 129.932 93.4044 129.867C93.4221 129.802 93.464 129.746 93.5216 129.711L96.7095 127.875C96.7691 127.842 96.8389 127.834 96.9047 127.851C96.9704 127.868 97.027 127.91 97.0628 127.968Z" fill="black"/>
<path opacity="0.2" d="M96.4889 127.285C96.5135 127.298 96.5342 127.317 96.5486 127.34C96.563 127.363 96.5707 127.39 96.5707 127.418C96.5707 127.446 96.563 127.473 96.5486 127.496C96.5342 127.519 96.5135 127.538 96.4889 127.551L93.2479 129.41C93.1878 129.439 93.1207 129.451 93.0544 129.443C92.9881 129.436 92.9253 129.41 92.8733 129.368C92.8487 129.356 92.828 129.337 92.8136 129.313C92.7992 129.29 92.7915 129.263 92.7915 129.235C92.7915 129.208 92.7992 129.181 92.8136 129.157C92.828 129.134 92.8487 129.115 92.8733 129.102L96.1117 127.243C96.1721 127.213 96.2397 127.201 96.3065 127.209C96.3733 127.216 96.4366 127.243 96.4889 127.285Z" fill="black"/>
<path opacity="0.2" d="M97.3683 128.807C97.3674 128.781 97.3594 128.754 97.3452 128.732C97.3309 128.709 97.3108 128.69 97.2871 128.678C97.2633 128.666 97.2366 128.66 97.2098 128.661C97.183 128.662 97.157 128.671 97.1345 128.685L93.8934 130.545C93.8384 130.582 93.795 130.635 93.7682 130.696C93.7415 130.757 93.7324 130.824 93.742 130.89C93.7429 130.917 93.7508 130.943 93.7651 130.966C93.7794 130.989 93.7994 131.007 93.8232 131.02C93.847 131.032 93.8737 131.038 93.9005 131.037C93.9273 131.035 93.9533 131.027 93.9758 131.012L97.2168 129.153C97.2716 129.115 97.3149 129.063 97.3416 129.002C97.3683 128.941 97.3776 128.873 97.3683 128.807Z" fill="black"/>
<path d="M82.4756 135.972V136.594L84.0323 136.089C84.186 135.799 84.3976 135.543 84.654 135.337L90.5676 131.924L90.7482 131.406L90.5676 131.302L84.654 134.716C84.5565 134.765 84.4477 134.788 84.3385 134.782C84.2294 134.776 84.1238 134.741 84.0323 134.681L82.4756 135.972Z" fill="#455A64"/>
<path d="M82.6592 136.078V136.7L84.2159 136.195C84.3689 135.904 84.5806 135.648 84.8376 135.444L90.7511 132.03V131.406L84.8376 134.819C84.7404 134.869 84.6317 134.893 84.5225 134.887C84.4133 134.882 84.3075 134.847 84.2159 134.787L82.6592 136.078Z" fill="#37474F"/>
<path d="M82.6587 136.7L82.478 136.594V135.972L82.6587 136.078V136.7Z" fill="#263238"/>
<path d="M82.478 135.972L82.6587 136.078L84.2154 134.787L84.0348 134.681L82.478 135.972Z" fill="#455A64"/>
<path d="M104.637 55.9797H90.9453C90.8925 55.9797 90.8418 55.9587 90.8044 55.9213C90.7671 55.8839 90.7461 55.8333 90.7461 55.7804C90.7461 55.7276 90.7671 55.6769 90.8044 55.6395C90.8418 55.6022 90.8925 55.5812 90.9453 55.5812H104.637C104.69 55.5812 104.741 55.6022 104.778 55.6395C104.816 55.6769 104.837 55.7276 104.837 55.7804C104.837 55.8333 104.816 55.8839 104.778 55.9213C104.741 55.9587 104.69 55.9797 104.637 55.9797Z" fill="#37474F"/>
<path d="M73.1754 64.8341C71.8604 62.3236 69.7378 56.8988 69.7378 56.8988L69.783 49.6171C69.7298 49.6171 70.7659 49.9306 71.082 50.005C73.1329 50.7621 73.6988 51.1234 74.5781 52.9272C75.2768 54.3645 77.6305 60.9183 78.4673 63.1365L83.475 59.574C84.7369 58.5114 85.0318 56.9971 85.8022 56.054C86.5726 55.111 87.4466 54.8506 88.318 54.051C89.1893 53.2513 89.5188 52.6563 89.8535 53.2965C90.1882 53.9367 89.2372 55.1136 89.0724 55.3979C88.9582 55.5998 88.6686 55.7485 88.6022 55.9743C88.4933 56.3622 89.0698 56.3011 89.3169 56.24C90.5389 55.9743 91.6493 54.9436 92.4038 54.0005C92.6987 53.6312 93.7746 52.1967 94.0482 53.3549C94.2714 54.298 93.4957 54.9011 93.4399 55.7698C93.4128 56.251 93.2862 56.7214 93.068 57.1512C92.8847 57.5444 92.9697 58.0013 92.8395 58.4131C92.4383 59.6936 91.4209 60.1319 90.2387 60.5384C89.0565 60.9448 87.7787 61.2238 86.7984 61.9782C85.6083 62.8974 82.7312 65.995 80.9805 67.8573C78.7569 70.2243 77.2905 70.7795 75.9887 69.3848C74.687 67.9901 73.6722 65.7639 73.1754 64.8341Z" fill="#FFA8A7"/>
<path d="M94.0561 53.3683C93.7904 52.21 92.7065 53.6339 92.4116 54.0138C91.6572 54.9569 90.552 55.9877 89.3247 56.2533C89.0776 56.3064 88.5011 56.3675 88.6101 55.9877C88.6765 55.7618 88.966 55.6131 89.0803 55.4112C89.245 55.1269 90.196 53.9474 89.8613 53.3098C89.5266 52.6722 89.1998 53.262 88.3258 54.0643C87.4518 54.8666 86.5804 55.1269 85.81 56.0674C85.0396 57.0078 84.7474 58.5274 83.4828 59.5873L83.1401 59.8317C83.3474 61.2318 84.2028 62.6026 85.4434 63.2322C85.9907 62.7009 86.4688 62.2572 86.8062 61.9942C87.7865 61.2397 89.0962 60.9316 90.2465 60.5543C91.3968 60.1771 92.4462 59.7148 92.8473 58.4291C92.9775 58.0173 92.8925 57.5604 93.0758 57.1672C93.294 56.7374 93.4207 56.267 93.4477 55.7858C93.5035 54.9144 94.2792 54.3113 94.0561 53.3683Z" fill="#455A64"/>
<path d="M83.7407 59.3429C83.7168 59.8052 83.9745 61.0378 84.5616 61.694C84.961 62.1168 85.4429 62.4532 85.9775 62.6823L86.1901 62.5176C86.1901 62.5176 86.392 62.5388 85.85 63.0834C85.3081 63.628 85.1805 63.8299 84.8777 63.7848C84.5748 63.7396 83.7194 63.2534 83.1403 62.3528C82.719 61.719 82.4691 60.9868 82.415 60.2276C82.431 59.9619 82.8029 59.7706 83.1403 59.5262C83.4777 59.2818 83.8283 58.8754 84.017 59.0374L83.7407 59.3429Z" fill="#BA68C8"/>
<path opacity="0.2" d="M83.7407 59.3429C83.7168 59.8052 83.9745 61.0378 84.5616 61.694C84.961 62.1168 85.4429 62.4532 85.9775 62.6823L86.1901 62.5176C86.1901 62.5176 86.392 62.5388 85.85 63.0834C85.3081 63.628 85.1805 63.8299 84.8777 63.7848C84.5748 63.7396 83.7194 63.2534 83.1403 62.3528C82.719 61.719 82.4691 60.9868 82.415 60.2276C82.431 59.9619 82.8029 59.7706 83.1403 59.5262C83.4777 59.2818 83.8283 58.8754 84.017 59.0374L83.7407 59.3429Z" fill="black"/>
<path d="M70.4287 49.7367C71.7702 50.0475 72.8196 50.5549 73.4572 51.0969C74.4401 51.947 74.8891 53.2726 75.5585 55.0817C76.228 56.8909 77.9495 61.2982 77.9495 61.2982C75.9568 61.9324 74.2593 63.2631 73.1676 65.0466L68.6089 55.5599L70.4287 49.7367Z" fill="#E0E0E0"/>
<path d="M78.4887 63.1418C77.6045 63.5874 76.8879 64.3067 76.4458 65.1927C76.4458 65.1927 76.4458 63.7289 78.3054 62.6344L78.4887 63.1418Z" fill="#F28F8F"/>
<path d="M55.01 50.5018C55.01 50.5018 53.4506 51.8726 53.0521 53.355C52.8581 54.0829 52.6775 54.6833 53.2938 58.7319C53.8809 62.5919 54.298 62.5919 54.5982 65.5354L54.1678 72.9022C56.4764 75.6066 67.2568 76.9827 72.6497 73.3405C72.6497 73.3405 72.8835 62.1563 72.5036 57.5497C72.2379 54.4176 70.9229 51.2058 70.4288 49.7367C68.9624 49.471 67.5517 49.3116 67.5517 49.3116L62.1588 48.9982L55.01 50.5018Z" fill="#FAFAFA"/>
<path d="M70.0914 39.461C70.7981 37.8352 70.1047 35.678 69.2572 34.6659C68.0326 33.2021 66.1278 32.5698 63.2533 32.7478C61.0696 32.8833 58.9205 33.7918 58.5113 36.034C56.758 36.5653 56.9572 39.4397 57.3929 40.7123C58.2802 43.2945 60.0229 45.5393 60.0495 46.8596L70.0914 39.461Z" fill="#37474F"/>
<path d="M70.0885 45.5313C69.7431 46.7773 69.0258 47.6911 67.8702 47.8718C67.265 47.9288 66.6557 47.9288 66.0505 47.8718L66.0956 49.4657C68.4865 52.4916 62.8918 53.1053 60.1289 49.7898L59.9642 44.4315C59.9642 44.4315 59.2602 45.2285 58.1046 44.474C57.6345 44.1272 57.2986 43.6289 57.1534 43.0631C57.0082 42.4973 57.0627 41.8987 57.3076 41.3685C57.8841 40.1544 59.0371 40.6565 59.393 41.0258C59.749 41.395 60.1608 42.0884 60.4557 41.9928C60.626 41.9398 60.7805 41.8453 60.9053 41.7177C61.03 41.5902 61.1211 41.4337 61.1703 41.2622C61.4385 40.5063 61.5655 39.7076 61.5449 38.9058C61.8862 38.7314 62.1925 38.4954 62.4481 38.2098C62.9148 37.719 63.1965 37.0814 63.2451 36.4059C65.7343 35.6276 68.5981 35.9942 69.6209 36.7965C70.216 37.8458 70.2399 40.2846 70.3382 41.6899C70.4471 43.2174 70.378 44.4899 70.0885 45.5313Z" fill="#FFA8A7"/>
<path d="M66.0505 47.8797C64.7754 47.808 62.2118 47.2129 61.5343 46.5036C60.8569 45.7943 60.562 44.3358 60.562 44.3358C60.562 44.3358 60.663 46.1742 61.1916 46.9924C61.7203 47.8106 63.0512 48.1586 63.8482 48.3605C64.5809 48.5128 65.3215 48.6246 66.0665 48.6953L66.0505 47.8797Z" fill="#F28F8F"/>
<path d="M65.2428 40.8769C65.2429 41.0147 65.1895 41.1471 65.0938 41.2462C64.9982 41.3453 64.8678 41.4034 64.7301 41.4083C64.6243 41.412 64.5198 41.384 64.43 41.3279C64.3402 41.2718 64.2692 41.1902 64.2262 41.0935C64.1831 40.9968 64.1699 40.8894 64.1882 40.7852C64.2066 40.6809 64.2557 40.5845 64.3292 40.5083C64.4027 40.4321 64.4973 40.3797 64.6008 40.3576C64.7043 40.3356 64.8121 40.3449 64.9103 40.3845C65.0085 40.4241 65.0926 40.4922 65.1518 40.5799C65.2111 40.6676 65.2427 40.7711 65.2428 40.8769Z" fill="#263238"/>
<path d="M64.5231 39.2299L63.479 39.9339C63.3872 39.7901 63.3545 39.6164 63.3876 39.4491C63.4208 39.2818 63.5173 39.1338 63.657 39.0359C63.726 38.9899 63.8037 38.9584 63.8852 38.9432C63.9668 38.928 64.0506 38.9296 64.1315 38.9477C64.2125 38.9658 64.2889 39.0002 64.3562 39.0487C64.4235 39.0972 64.4803 39.1588 64.5231 39.2299Z" fill="#263238"/>
<path d="M69.5893 39.5593L68.4443 39.012C68.4762 38.9357 68.5233 38.8667 68.5827 38.8092C68.6421 38.7516 68.7126 38.7068 68.79 38.6775C68.8673 38.6482 68.9498 38.6349 69.0324 38.6385C69.1151 38.6421 69.1961 38.6626 69.2705 38.6986C69.4233 38.7744 69.5414 38.9057 69.6007 39.0657C69.6599 39.2257 69.6559 39.4022 69.5893 39.5593Z" fill="#263238"/>
<path d="M69.1907 40.6937C69.1875 40.7949 69.1547 40.8929 69.0962 40.9755C69.0377 41.0582 68.9561 41.1217 68.8617 41.1583C68.7673 41.1949 68.6642 41.2028 68.5653 41.1812C68.4664 41.1595 68.3761 41.1092 68.3056 41.0366C68.2351 40.9639 68.1876 40.8721 68.169 40.7726C68.1503 40.673 68.1614 40.5702 68.2009 40.477C68.2403 40.3838 68.3063 40.3042 68.3907 40.2482C68.4751 40.1923 68.574 40.1624 68.6753 40.1624C68.8134 40.1665 68.9445 40.2243 69.0407 40.3235C69.1369 40.4227 69.1907 40.5555 69.1907 40.6937Z" fill="#263238"/>
<path d="M66.4277 39.7692L66.7997 43.4725L68.7894 42.8721L66.4277 39.7692Z" fill="#F28F8F"/>
<path d="M65.2403 44.3358L67.3655 44.8087C67.3422 44.9516 67.29 45.0881 67.212 45.2101C67.134 45.3321 67.032 45.4368 66.9121 45.5179C66.7922 45.599 66.657 45.6547 66.5148 45.6817C66.3725 45.7087 66.2263 45.7063 66.0851 45.6747C65.7992 45.6027 65.5521 45.4235 65.3948 45.1743C65.2375 44.925 65.1822 44.6248 65.2403 44.3358Z" fill="#B16668"/>
<path d="M66.0929 45.6748C66.1369 45.6825 66.1812 45.6879 66.2258 45.6907C66.2202 45.4318 66.1133 45.1855 65.928 45.0047C65.7427 44.8238 65.4938 44.7229 65.2349 44.7237C65.2647 44.9505 65.3627 45.1629 65.516 45.3327C65.6692 45.5025 65.8704 45.6218 66.0929 45.6748Z" fill="#F28F8F"/>
<path d="M56.9697 39.2299C57.0356 39.879 57.1948 40.5152 57.4426 41.1188C57.5834 40.9408 57.7455 40.7654 57.9102 40.5874C58.8717 39.6446 59.9923 38.8793 61.2203 38.3267C64.0602 36.9984 67.5376 36.5521 70.3217 37.3251C70.2197 36.7734 70.0455 36.2375 69.8037 35.7312C69.1369 34.2806 67.977 33.1136 66.5304 32.4381C65.0838 31.7625 63.4445 31.6222 61.9041 32.0421C60.3638 32.4621 59.0224 33.4149 58.1189 34.7312C57.2153 36.0474 56.8081 37.6416 56.9697 39.2299Z" fill="#BA68C8"/>
<path d="M59.8922 32.5194C60.2296 32.3547 61.9271 31.8473 62.0653 31.8047C62.9446 31.5391 64.3606 31.555 65.8137 32.7505C66.9485 33.6976 67.7463 34.9865 68.0878 36.4246L66.2813 36.9904L65.7048 37.0462C65.4923 35.7179 63.7416 32.8568 61.2816 32.7505C61.1666 32.7425 61.0512 32.7425 60.9362 32.7505C60.6104 32.7668 60.2889 32.8322 59.9825 32.9444C59.6482 33.1783 59.3296 33.4338 59.0288 33.7095C59.059 33.4539 59.1543 33.2103 59.3054 33.0019C59.4566 32.7936 59.6586 32.6274 59.8922 32.5194Z" fill="#BA68C8"/>
<path opacity="0.45" d="M59.8922 32.5194C60.2296 32.3547 61.9271 31.8473 62.0653 31.8047C62.9446 31.5391 64.3606 31.555 65.8137 32.7505C66.9485 33.6976 67.7463 34.9865 68.0878 36.4246L66.2813 36.9904L65.7048 37.0462C65.4923 35.7179 63.7416 32.8568 61.2816 32.7505C61.1666 32.7425 61.0512 32.7425 60.9362 32.7505C60.6104 32.7668 60.2889 32.8322 59.9825 32.9444C59.6482 33.1783 59.3296 33.4338 59.0288 33.7095C59.059 33.4539 59.1543 33.2103 59.3054 33.0019C59.4566 32.7936 59.6586 32.6274 59.8922 32.5194Z" fill="white"/>
<path d="M65.7099 37.0488C65.4443 35.5027 63.1011 31.8446 59.9876 32.9471C59.6524 33.1808 59.3329 33.4364 59.0312 33.7121C59.0615 33.4566 59.1565 33.2129 59.3071 33.0042C59.4577 32.7955 59.659 32.6286 59.892 32.5193C60.7022 32.1288 62.3281 31.9375 64.0097 33.3163C65.1434 34.2627 65.9403 35.5508 66.2811 36.9877L65.7099 37.0488Z" fill="#BA68C8"/>
<path opacity="0.3" d="M65.7099 37.0488C65.4443 35.5027 63.1011 31.8446 59.9876 32.9471C59.6524 33.1808 59.3329 33.4364 59.0312 33.7121C59.0615 33.4566 59.1565 33.2129 59.3071 33.0042C59.4577 32.7955 59.659 32.6286 59.892 32.5193C60.7022 32.1288 62.3281 31.9375 64.0097 33.3163C65.1434 34.2627 65.9403 35.5508 66.2811 36.9877L65.7099 37.0488Z" fill="black"/>
<path d="M61.1699 37.7953C61.3001 37.6811 61.9297 36.3263 64.1719 35.1388C65.556 34.4002 68.3932 34.363 69.6657 34.3843C71.8946 34.4215 72.4259 34.8944 72.4551 35.2238C72.4551 35.3008 72.4923 35.6621 72.5029 35.7418C72.5132 35.8161 72.4962 35.8916 72.4551 35.9543C72.123 36.4591 70.3298 37.3358 70.3298 37.3358C67.5457 36.5627 64.0683 37.009 61.2284 38.3373L61.1699 37.7953Z" fill="#BA68C8"/>
<path opacity="0.15" d="M61.1699 37.7953C61.3001 37.6811 61.9297 36.3263 64.1719 35.1388C65.556 34.4002 68.3932 34.363 69.6657 34.3843C71.8946 34.4215 72.4259 34.8944 72.4551 35.2238C72.4551 35.3008 72.4923 35.6621 72.5029 35.7418C72.5132 35.8161 72.4962 35.8916 72.4551 35.9543C72.123 36.4591 70.3298 37.3358 70.3298 37.3358C67.5457 36.5627 64.0683 37.009 61.2284 38.3373L61.1699 37.7953Z" fill="black"/>
<path d="M61.2202 38.3267C64.0601 36.9984 67.5376 36.5521 70.3217 37.3251C70.3217 37.3251 72.1229 36.4485 72.447 35.9437C72.6276 35.6648 72.4656 34.9501 69.7107 34.905C68.4355 34.8837 65.5983 34.9209 64.2142 35.6594C61.98 36.8682 61.3504 38.2124 61.2202 38.3267Z" fill="#BA68C8"/>
<path opacity="0.3" d="M61.2202 38.3267C64.0601 36.9984 67.5376 36.5521 70.3217 37.3251C70.3217 37.3251 72.1229 36.4485 72.447 35.9437C72.6276 35.6648 72.4656 34.9501 69.7107 34.905C68.4355 34.8837 65.5983 34.9209 64.2142 35.6594C61.98 36.8682 61.3504 38.2124 61.2202 38.3267Z" fill="black"/>
<path d="M69.7994 119.738C69.8844 118.327 70.6415 104.117 70.6415 104.117L63.7344 108.987C64.9378 117.11 65.2035 119.56 65.2539 120.915C65.2254 121.028 65.2147 121.146 65.2221 121.263C65.2593 122.873 67.1879 123.712 68.6995 124.764C69.9881 125.693 71.3532 126.51 72.7801 127.208C73.8719 127.71 76.0716 127.726 76.3319 127.059C74.4936 125.768 72.3656 124.36 70.8939 122.878C70.2005 122.169 69.6958 121.427 69.7994 119.738Z" fill="#FFA8A7"/>
<path d="M79.4663 128.749C79.5593 128.749 79.7187 129.719 79.2192 130.141C78.6454 130.627 76.9478 131.437 74.6818 131.19C72.4157 130.943 71.1777 130.298 70.2586 129.596C69.3394 128.895 68.0509 127.891 67.0228 127.692C66.0691 127.506 65.0304 127.11 64.7196 126.836C64.4087 126.563 64.43 125.317 64.43 125.317L79.4663 128.749Z" fill="#263238"/>
<path d="M72.3999 123.412C72.2511 123.274 72.1077 123.146 71.9669 122.992C71.4923 122.475 71.1248 121.869 70.8857 121.21C70.7389 120.894 70.6249 120.565 70.5456 120.227C70.4739 119.836 70.4287 119.43 70.3623 119.05C70.3384 118.904 70.3623 118.582 70.1817 118.518C69.9712 118.495 69.7584 118.535 69.5706 118.633C69.1111 118.829 68.6302 118.981 68.1573 119.148C67.8917 119.241 67.3471 119.384 67.2674 119.679C67.1877 119.974 67.3205 120.341 67.2674 120.66C67.2435 120.785 67.1903 120.925 67.0442 120.909C66.7786 120.909 66.7122 120.527 66.6431 120.341C66.4943 119.95 66.3774 119.767 65.955 119.653C65.7345 119.592 65.3042 119.562 65.1581 119.366L65.1023 118.835C64.9815 118.859 64.8681 118.911 64.7708 118.987C64.6736 119.062 64.5951 119.159 64.5417 119.27C64.3584 119.65 64.4806 120.179 64.5417 120.583C64.6166 120.984 64.6504 121.391 64.6427 121.799C64.6107 122.148 64.5548 122.494 64.4753 122.835C64.3625 123.431 64.3065 124.036 64.3079 124.642C64.3025 124.923 64.3239 125.204 64.3717 125.481C64.4135 125.711 64.5407 125.916 64.7277 126.055C65.0125 126.306 65.3413 126.503 65.6973 126.634C66.1835 126.828 66.6856 126.977 67.1797 127.15C68.1972 127.5 69.382 128.239 70.4234 129.028C71.4648 129.817 73.7468 130.646 75.2212 130.646C77.474 130.646 79.0467 129.902 79.4718 129.126C79.5116 128.595 79.5435 128.064 79.3017 127.686C78.5048 126.47 76.7594 126.076 75.354 125.407C74.7425 125.098 74.1515 124.75 73.5848 124.366C73.1639 124.081 72.7675 123.762 72.3999 123.412Z" fill="#37474F"/>
<path d="M76.2253 125.774C73.4651 126.555 72.5061 128.417 72.0996 129.923C73.0895 130.346 74.1462 130.59 75.2211 130.646C77.4739 130.646 79.0466 129.902 79.4716 129.126C79.5115 128.595 79.5434 128.064 79.3016 127.686C78.6773 126.703 77.4261 126.257 76.2253 125.774Z" fill="#455A64"/>
<path d="M67.1719 127.139L67.2888 127.184C67.1799 125.059 66.3032 123.651 64.3825 123.367C64.327 123.786 64.2995 124.208 64.3001 124.631C64.2947 124.912 64.3161 125.194 64.3639 125.471C64.4057 125.7 64.5329 125.905 64.7199 126.045C65.0047 126.296 65.3335 126.492 65.6895 126.624C66.1757 126.818 66.6778 126.966 67.1719 127.139Z" fill="#455A64"/>
<path d="M58.4184 108.301L51.219 106.736C51.0304 111.192 51.1446 117.219 50.9932 121.401C50.964 122.198 50.5575 127.511 50.7833 129.142C51.1234 131.599 54.4149 131.44 54.6859 129.995C54.9568 128.55 55.1959 122.37 55.2517 121.73C55.4031 119.052 56.9333 114.557 58.0039 109.776C58.0571 109.555 58.3679 108.53 58.4184 108.301Z" fill="#FFA8A7"/>
<path d="M55.8495 131.079C55.823 132.511 55.6131 133.47 55.0765 134.325C54.5398 135.181 53.4692 135.489 52.3614 135.284C51.2536 135.08 49.8164 134.487 49.4392 133.255C49.062 132.022 49.0938 131.188 49.2824 129.854L55.8495 131.079Z" fill="#263238"/>
<path d="M51.0516 118.938C50.6027 118.986 50.5203 122.873 50.3397 124.801C50.1537 126.868 49.4975 127.745 49.3248 129.442C49.1283 131.382 49.2823 132.237 50.1006 133.374C50.9188 134.511 53.6843 135.555 54.9435 133.836C55.969 132.434 55.9451 130.914 55.7591 129.001C55.5652 127.017 55.5572 123.834 55.5811 122.32C55.6024 120.875 56.0407 119.347 55.6396 119.201C55.5545 119.589 55.5014 119.921 55.4563 120.128C55.358 120.585 55.249 121.138 55.1109 121.034C55.1109 121.034 55.1507 120.628 55.1561 120.442C55.1614 120.256 55.2012 120.134 55.0764 120.014C54.9515 119.895 54.4096 119.82 54.2236 119.796C53.7746 119.732 53.3257 119.682 52.8714 119.661C52.6456 119.661 52.4171 119.661 52.1913 119.661C51.9985 119.666 51.8072 119.697 51.6228 119.754C51.571 119.77 51.5232 119.796 51.4825 119.832C51.4417 119.868 51.409 119.912 51.3864 119.961C51.3717 120.034 51.3717 120.109 51.3864 120.181C51.3926 120.314 51.38 120.448 51.3492 120.577C51.3332 120.636 51.2934 120.707 51.227 120.697C51.1605 120.686 51.1207 120.649 51.1021 120.519C51.0706 120.254 51.0564 119.988 51.0596 119.722C51.0596 119.597 51.0596 119.424 51.0596 119.299C51.0596 119.175 51.049 119.06 51.0516 118.938Z" fill="#37474F"/>
<path d="M49.2504 130.563C49.2265 131.764 49.3434 132.58 49.9836 133.47C50.8018 134.607 53.7852 135.645 55.0311 133.927C55.6581 133.071 55.7909 132.083 55.8281 131.079C54.9886 129.822 50.4645 129.421 49.2504 130.563Z" fill="#455A64"/>
<path d="M72.9416 60.719C72.9416 60.719 67.477 61.949 59.284 61.3858C59.284 66.7999 59.8552 73.011 57.2624 72.9765L54.1674 72.9021C53.9948 81.01 52.624 97.9139 52.624 97.9139C52.5018 98.9101 51.0592 103.145 51.0061 106.747C50.9237 112.398 50.8042 116.68 50.8042 116.68C50.8042 116.68 53.9602 117.929 56.2794 117.063C56.2794 117.063 59.2947 105.052 60.1421 101.304C61.149 96.838 63.2291 88.5866 63.2291 88.5866L63.4814 100.337C63.1864 102.704 63.1543 105.098 63.3858 107.472C63.6515 109.863 64.6211 116.481 64.6211 116.481C64.6211 116.481 67.5248 117.065 70.0432 116.319C70.0432 116.319 71.5601 102.087 71.685 99.8957C71.8205 97.5048 72.5749 75.5428 72.644 73.4945C73.3347 63.1684 72.9416 60.719 72.9416 60.719Z" fill="#455A64"/>
<path d="M59.2845 61.3858C58.902 56.4818 58.9126 52.4517 57.0742 50.0688L59.4226 49.5746C59.4226 49.5746 61.4549 54.0749 61.4549 61.5532L59.2845 61.3858Z" fill="#455A64"/>
<path d="M70.785 61.2583C70.785 55.9159 69.6081 51.336 67.7432 49.3356L70.429 49.7367C70.429 49.7367 72.9421 53.78 72.9421 61.2583H70.785Z" fill="#455A64"/>
<path d="M62.2358 62.5069C62.2358 62.5069 66.5528 62.7726 70.179 62.0845L70.3437 65.7586L66.7255 68.0273L62.2358 66.5609V62.5069Z" fill="#37474F"/>
<path d="M55.2833 73.1705C57.3634 74.0339 62.4135 74.5519 66.4675 74.4988C70.5215 74.4456 72.6441 73.4919 72.6441 73.4919L72.5777 75.9625C72.5777 75.9625 65.3836 78.9804 54.9751 75.4312L55.2833 73.1705Z" fill="#BA68C8"/>
<path opacity="0.3" d="M55.2833 73.1705C57.3634 74.0339 62.4135 74.5519 66.4675 74.4988C70.5215 74.4456 72.6441 73.4919 72.6441 73.4919L72.5777 75.9625C72.5777 75.9625 65.3836 78.9804 54.9751 75.4312L55.2833 73.1705Z" fill="black"/>
<path d="M63.2295 88.5866L65.1582 80.7922C65.1582 80.7922 68.0485 80.8294 69.94 79.0627C69.94 79.0627 69.6744 81.0525 66.2394 82.1152L64.4542 88.3077L63.442 100.116L63.2295 88.5866Z" fill="#37474F"/>
<path d="M60.1585 49.2426L60.1744 49.7739C60.5902 50.9528 60.8918 52.1689 61.075 53.4054C61.6329 56.7713 61.7285 61.1839 61.7285 66.1571V79.8597C61.7285 79.8597 55.4988 80.2582 53.5197 75.5029L54.3167 65.5354C54.3167 65.5354 53.1743 60.3816 52.8635 57.4355C52.5527 54.4893 51.9975 52.4251 54.7523 50.1724L60.1585 49.2426Z" fill="#BA68C8"/>
<path d="M53.7427 62.7487C54.0535 64.3267 54.3218 65.5354 54.3218 65.5354L54.2926 65.9259C56.2186 67.1852 59.0744 67.9928 61.731 67.8706V65.0865C58.83 65.2193 55.6421 64.231 53.7427 62.7487Z" fill="#F0F0F0"/>
<path d="M61.7256 73.4016V70.6068C58.9946 70.7317 56.0166 69.863 54.0906 68.5267L53.8887 71.1647C55.8014 72.5913 58.8963 73.5291 61.7256 73.4016Z" fill="#F0F0F0"/>
<path d="M66.1943 49.1788C67.9372 50.2284 69.1977 51.921 69.7037 53.8916C70.5432 57.1911 70.668 59.7945 70.7849 64.0318C70.9018 68.2691 70.7291 80.0909 70.7291 80.0909C70.7291 80.0909 72.5887 79.2753 72.9979 78.3907C72.9979 78.3907 73.5292 63.3783 72.9421 58.0571C72.355 52.736 70.4289 49.7367 70.4289 49.7367C70.4289 49.7367 69.0528 49.1735 66.1943 49.1788Z" fill="#BA68C8"/>
<path d="M70.8298 67.3366C71.6338 67.3133 72.4341 67.2173 73.2208 67.0497C73.2208 66.1199 73.2208 65.1901 73.2208 64.2682C72.4191 64.4367 71.6036 64.531 70.7847 64.5498C70.8139 65.3521 70.8245 66.3059 70.8298 67.3366Z" fill="#F0F0F0"/>
<path d="M73.1755 72.594C73.1915 71.7386 73.2101 70.7928 73.2207 69.7993C72.4386 69.959 71.6437 70.0479 70.8457 70.0649C70.8457 71.008 70.8457 71.9511 70.8457 72.8517C71.6283 72.8327 72.4077 72.7465 73.1755 72.594Z" fill="#F0F0F0"/>
<path d="M56.1439 50.2281C54.55 50.2281 52.6904 50.159 51.6463 52.4596C51.3063 53.2088 50.2569 57.6134 49.0907 61.6753C47.0026 59.0188 45.22 56.2958 44.9889 55.8123C44.3699 54.5185 44.362 53.6445 43.7297 52.3082C43.3656 51.5766 43.084 50.8068 42.8902 50.0129C42.7388 49.4816 42.2659 49.8721 42.0932 50.1112C41.8167 50.5147 41.6643 50.9903 41.6549 51.4794C41.6549 51.8247 41.6549 52.178 41.6283 52.5181C41.6018 52.8581 41.4875 52.8448 41.2112 52.6908C40.6427 52.372 40.1486 51.8221 39.6864 51.3811C39.2241 50.9401 38.5918 50.5256 38.0924 50.0528C37.593 49.5799 37.3406 49.0991 36.9341 48.6209C36.6286 48.2622 36.1079 47.7973 35.7068 48.31C35.4677 48.6209 35.6882 48.9822 35.7945 49.293C35.9167 49.6463 35.7945 49.9067 35.728 50.2547C35.6106 50.6328 35.6218 51.0392 35.7599 51.4103C35.9512 51.7849 36.1212 52.016 36.0707 52.457C36.0309 52.8209 35.9007 53.1689 35.9539 53.5435C35.9964 53.8517 36.2195 54.0748 36.3736 54.3405C36.6457 54.8122 36.9828 55.2433 37.3751 55.621C37.8375 56.0892 38.3377 56.5184 38.8708 56.9041C40.1486 57.8977 40.6241 58.2085 41.0519 58.5406C41.6921 59.0347 42.3536 60.3019 42.7255 61.0006C43.4507 62.3714 45.0155 66.1915 47.1036 68.9252C48.3123 70.5005 49.9567 71.0026 51.4072 69.2227C52.167 68.2876 52.8126 66.8052 53.2323 65.6841C54.8449 61.3884 56.0111 57.8552 56.0111 57.8552C56.0111 57.8552 57.3128 53.8411 56.1439 50.2281Z" fill="#FFA8A7"/>
<path d="M45.762 57.0582C45.3476 56.4312 45.0713 55.977 44.9889 55.8069C44.3699 54.5132 44.362 53.6392 43.7297 52.3029C43.3659 51.573 43.0844 50.805 42.8902 50.0129C42.7388 49.4816 42.2659 49.8721 42.0932 50.1112C41.8167 50.5147 41.6643 50.9903 41.6549 51.4794C41.6549 51.8247 41.6549 52.178 41.6283 52.5181C41.6018 52.8581 41.4875 52.8448 41.2112 52.6908C40.6427 52.372 40.1486 51.8221 39.6864 51.3811C39.2241 50.9401 38.5918 50.5256 38.0924 50.0528C37.593 49.5799 37.3406 49.0991 36.9341 48.6209C36.6286 48.2622 36.1079 47.7973 35.7068 48.31C35.4677 48.6209 35.6882 48.9822 35.7945 49.293C35.9167 49.6463 35.7945 49.9067 35.728 50.2547C35.6106 50.6328 35.6218 51.0392 35.7599 51.4103C35.9512 51.7849 36.1212 52.016 36.0707 52.457C36.0309 52.8209 35.9007 53.1689 35.9539 53.5435C35.9964 53.8517 36.2195 54.0748 36.3736 54.3405C36.6457 54.8122 36.9828 55.2433 37.3751 55.621C37.8375 56.0892 38.3377 56.5184 38.8708 56.9041C40.1486 57.8977 40.6241 58.2085 41.0519 58.5406C41.6602 59.0108 42.2872 60.177 42.6671 60.889C43.9369 60.0761 45.0872 58.514 45.762 57.0582Z" fill="#455A64"/>
<path d="M45.3585 56.4392L45.1592 56.1417C45.1592 56.1417 45.2389 55.7937 45.563 56.2905C45.8545 56.7041 46.1062 57.1444 46.3149 57.6055C46.3547 57.7941 46.0333 59.4199 45.0238 60.2275C44.0143 61.0351 43.127 61.2769 42.8454 61.2423C42.5638 61.2078 42.4841 60.9528 42.314 60.6154C42.144 60.278 41.7508 59.8636 41.8704 59.5527L42.0989 59.8742C43.0053 59.6416 43.818 59.1351 44.426 58.4237C45.3213 57.284 45.3585 56.4392 45.3585 56.4392Z" fill="#BA68C8"/>
<path opacity="0.2" d="M45.3585 56.4392L45.1592 56.1417C45.1592 56.1417 45.2389 55.7937 45.563 56.2905C45.8545 56.7041 46.1062 57.1444 46.3149 57.6055C46.3547 57.7941 46.0333 59.4199 45.0238 60.2275C44.0143 61.0351 43.127 61.2769 42.8454 61.2423C42.5638 61.2078 42.4841 60.9528 42.314 60.6154C42.144 60.278 41.7508 59.8636 41.8704 59.5527L42.0989 59.8742C43.0053 59.6416 43.818 59.1351 44.426 58.4237C45.3213 57.284 45.3585 56.4392 45.3585 56.4392Z" fill="black"/>
<path d="M49.0908 61.6754C49.855 63.1212 50.3169 64.7075 50.4483 66.3377C50.714 63.9175 49.9781 61.7046 49.298 60.9581L49.0908 61.6754Z" fill="#F28F8F"/>
<path d="M56.4069 49.8854C54.8874 50.1245 54.5633 50.1511 53.5936 50.4858C52.624 50.8206 51.9279 51.1526 51.0327 54.0722C50.1719 56.8882 49.3696 60.0921 49.3696 60.0921C49.3696 60.0921 50.2197 62.3183 54.4171 62.7486L56.6407 56.5482C56.6407 56.5482 57.3261 52.8077 56.4069 49.8854Z" fill="#EBEBEB"/>
<path d="M41.4748 53.3045C41.495 53.4713 41.4654 53.6404 41.3896 53.7904C41.3138 53.9403 41.1953 54.0645 41.0489 54.1471C40.9026 54.2298 40.7351 54.2672 40.5675 54.2547C40.3999 54.2422 40.2398 54.1802 40.1074 54.0768C39.975 53.9733 39.8762 53.8329 39.8236 53.6733C39.7709 53.5137 39.7667 53.3421 39.8116 53.1801C39.8564 53.0182 39.9482 52.8731 40.0755 52.7633C40.2027 52.6536 40.3596 52.5839 40.5264 52.5633C40.6374 52.5492 40.7501 52.5572 40.858 52.5869C40.9659 52.6166 41.0669 52.6673 41.155 52.7362C41.2432 52.8052 41.3169 52.8908 41.3717 52.9884C41.4266 53.0859 41.4616 53.1933 41.4748 53.3045Z" fill="#263238"/>
<path d="M90.1037 55.9796H89.1633C88.9209 55.9796 88.6885 56.0759 88.5171 56.2473C88.3457 56.4187 88.2494 56.6511 88.2494 56.8935V66.8345C88.2494 68.0322 87.7736 69.181 86.9267 70.0279C86.0797 70.8749 84.931 71.3507 83.7332 71.3507H44.9391C43.7413 71.3507 42.5926 70.8749 41.7456 70.0279C40.8987 69.181 40.4229 68.0322 40.4229 66.8345V53.8916C40.4229 53.8387 40.4438 53.788 40.4812 53.7507C40.5186 53.7133 40.5693 53.6923 40.6221 53.6923C40.6749 53.6923 40.7256 53.7133 40.763 53.7507C40.8003 53.788 40.8213 53.8387 40.8213 53.8916V66.7415C40.8213 67.2933 40.9301 67.8396 41.1413 68.3494C41.3525 68.8591 41.6622 69.3223 42.0525 69.7123C42.4427 70.1024 42.9061 70.4117 43.416 70.6226C43.9258 70.8335 44.4723 70.9419 45.0241 70.9416H83.6482C84.2 70.9419 84.7464 70.8335 85.2563 70.6226C85.7662 70.4117 86.2295 70.1024 86.6198 69.7123C87.0101 69.3223 87.3197 68.8591 87.531 68.3494C87.7422 67.8396 87.8509 67.2933 87.8509 66.7415V56.8935C87.8509 56.5455 87.9892 56.2116 88.2353 55.9655C88.4814 55.7194 88.8152 55.5812 89.1633 55.5812H90.7812C90.5666 55.7322 90.34 55.8655 90.1037 55.9796Z" fill="#37474F"/>
<path d="M39.6232 53.5861C39.0255 53.3204 38.9617 52.8077 39.4824 52.4172C39.7768 52.2191 40.114 52.0934 40.4662 52.0505C40.8185 52.0075 41.176 52.0485 41.5094 52.1701C42.1071 52.4358 42.1709 52.9485 41.6502 53.339C41.3557 53.5371 41.0186 53.6628 40.6663 53.7057C40.314 53.7486 39.9566 53.7076 39.6232 53.5861Z" fill="#37474F"/>
<path d="M39.554 53.2859C38.9377 53.0202 38.8713 52.4889 39.4079 52.0798C39.7109 51.8741 40.0582 51.7429 40.4215 51.6967C40.7848 51.6506 41.1538 51.6908 41.4986 51.8141C42.115 52.0798 42.1814 52.6111 41.6447 53.0202C41.3417 53.2259 40.9945 53.3571 40.6312 53.4033C40.2679 53.4495 39.8988 53.4092 39.554 53.2859Z" fill="#263238"/>
<path d="M39.4852 52.9751C38.8476 52.7094 38.7812 52.1462 39.3338 51.7318C39.6465 51.5207 40.0047 51.3865 40.3792 51.3404C40.7536 51.2942 41.1337 51.3373 41.4883 51.4661C42.1232 51.7318 42.1923 52.295 41.6397 52.7094C41.327 52.9206 40.9688 53.0547 40.5944 53.1009C40.2199 53.147 39.8398 53.1039 39.4852 52.9751Z" fill="#37474F"/>
<path d="M39.4132 52.6536C38.757 52.3879 38.6853 51.8008 39.2565 51.3731C39.5794 51.1577 39.9485 51.0214 40.3339 50.9752C40.7192 50.9291 41.1101 50.9744 41.4747 51.1075C42.1309 51.3731 42.2026 51.9602 41.6315 52.3906C41.3084 52.6056 40.9391 52.7414 40.5538 52.7871C40.1684 52.8328 39.7776 52.7871 39.4132 52.6536Z" fill="#263238"/>
<path d="M39.3498 52.3163C38.6803 52.032 38.6086 51.4476 39.1904 51.0092C39.5201 50.7899 39.897 50.6516 40.2903 50.6054C40.6836 50.5592 41.0822 50.6066 41.4538 50.7436C42.1233 51.0278 42.195 51.6149 41.6132 52.0506C41.2836 52.2703 40.9068 52.4089 40.5134 52.4551C40.12 52.5012 39.7213 52.4537 39.3498 52.3163Z" fill="#37474F"/>
<path d="M39.2804 42.3354C38.2127 42.4656 37.2405 43.0145 36.5774 43.8614C35.9143 44.7083 35.6147 45.7839 35.7445 46.8516C36.135 50.0395 38.8368 50.2574 38.9935 51.5458C39.0183 51.6687 39.0754 51.7827 39.159 51.8761C39.2426 51.9695 39.3496 52.0389 39.469 52.0771C39.7926 52.1939 40.139 52.2332 40.4804 52.1916C40.8219 52.1501 41.1488 52.029 41.4349 51.838C41.5418 51.7736 41.6294 51.6817 41.6888 51.5719C41.7481 51.4621 41.7769 51.3384 41.7723 51.2137C41.6156 49.9253 44.1871 49.0725 43.7993 45.8766C43.7355 45.3473 43.5679 44.8356 43.3062 44.3711C43.0445 43.9065 42.6937 43.4981 42.274 43.1692C41.8543 42.8403 41.3739 42.5973 40.8602 42.4543C40.3465 42.3112 39.8097 42.2708 39.2804 42.3354Z" fill="#BA68C8"/>
<g opacity="0.6">
<path d="M39.2809 42.3354C38.2132 42.4656 37.2409 43.0145 36.5779 43.8614C35.9148 44.7083 35.6152 45.7839 35.745 46.8516C36.1355 50.0395 38.8372 50.2574 38.994 51.5458C39.0188 51.6687 39.0759 51.7827 39.1595 51.8761C39.2431 51.9695 39.3501 52.0389 39.4695 52.0771C39.793 52.1939 40.1395 52.2332 40.4809 52.1916C40.8224 52.1501 41.1493 52.029 41.4354 51.838C41.5423 51.7736 41.6299 51.6817 41.6892 51.5719C41.7486 51.4621 41.7774 51.3384 41.7728 51.2137C41.616 49.9253 44.1876 49.0725 43.7998 45.8766C43.7359 45.3473 43.5684 44.8356 43.3067 44.3711C43.0449 43.9065 42.6942 43.4981 42.2745 43.1692C41.8548 42.8403 41.3744 42.5973 40.8607 42.4543C40.347 42.3112 39.8102 42.2708 39.2809 42.3354Z" fill="white"/>
</g>
<path d="M39.7026 51.8593C39.2669 51.6733 39.2191 51.2908 39.599 51.0065C39.8137 50.8626 40.0593 50.7713 40.3159 50.7399C40.5725 50.7085 40.8329 50.738 41.076 50.8259C41.5117 51.0119 41.5595 51.3944 41.1796 51.6787C40.9651 51.8232 40.7195 51.9149 40.4628 51.9463C40.2061 51.9777 39.9456 51.9479 39.7026 51.8593Z" fill="#BA68C8"/>
<path d="M40.9036 51.1766C40.8681 51.1811 40.8322 51.1713 40.8038 51.1494C40.7754 51.1275 40.7568 51.0952 40.7522 51.0597C40.6582 50.2841 40.6582 49.5001 40.7522 48.7245C40.7783 48.5007 40.8192 48.2789 40.8744 48.0604C40.7456 48.0305 40.6201 47.9878 40.4998 47.9329C40.2859 47.8347 40.088 47.7048 39.9127 47.5477C39.7802 47.7417 39.62 47.9154 39.4372 48.0631C39.3352 48.1453 39.2248 48.2165 39.1078 48.2756C39.2146 48.4745 39.3078 48.6804 39.3867 48.8919C39.664 49.6222 39.8531 50.3829 39.9499 51.158C39.953 51.1941 39.9419 51.23 39.9192 51.2582C39.8964 51.2864 39.8637 51.3048 39.8277 51.3094C39.7912 51.3124 39.7549 51.301 39.7267 51.2777C39.6984 51.2544 39.6803 51.221 39.6763 51.1846C39.5808 50.4333 39.3972 49.6958 39.129 48.9876C39.0513 48.7772 38.9581 48.573 38.8501 48.3765C38.7167 48.4212 38.5744 48.4327 38.4355 48.41C38.2966 48.3873 38.1654 48.3312 38.0531 48.2464C37.969 48.1837 37.9099 48.0932 37.8866 47.9909C37.8632 47.8887 37.877 47.7814 37.9256 47.6885C37.9592 47.624 38.0113 47.5711 38.0752 47.5366C38.1391 47.502 38.2119 47.4874 38.2842 47.4945C38.5047 47.5131 38.7438 47.7071 38.967 48.0471C39.0735 47.9956 39.1734 47.9314 39.2645 47.8558C39.4432 47.7156 39.5976 47.5468 39.7215 47.3564C39.6256 47.2582 39.5503 47.1418 39.5001 47.014C39.4499 46.8863 39.4258 46.7498 39.4292 46.6126C39.4429 46.5306 39.4827 46.4552 39.5427 46.3977C39.6027 46.3403 39.6796 46.3037 39.7621 46.2935C39.8446 46.2834 39.9281 46.3002 40.0003 46.3414C40.0724 46.3826 40.1293 46.446 40.1624 46.5222C40.201 46.6551 40.2117 46.7944 40.1938 46.9315C40.176 47.0687 40.1301 47.2007 40.0588 47.3192C40.2242 47.4755 40.4146 47.603 40.622 47.6964C40.7291 47.7467 40.8413 47.785 40.9568 47.8107C41.0923 47.4281 41.2756 47.1811 41.4881 47.112C41.5567 47.0901 41.6302 47.0887 41.6996 47.1081C41.769 47.1274 41.8312 47.1667 41.8786 47.2209C41.9464 47.3006 41.9836 47.4019 41.9836 47.5065C41.9836 47.6111 41.9464 47.7124 41.8786 47.7921C41.791 47.9001 41.6786 47.9853 41.5509 48.0403C41.4232 48.0954 41.284 48.1187 41.1454 48.1082C41.0854 48.3259 41.0428 48.548 41.0179 48.7724C40.9316 49.5235 40.9316 50.282 41.0179 51.0331C41.0205 51.0511 41.0196 51.0694 41.0151 51.087C41.0107 51.1046 41.0028 51.1212 40.9919 51.1357C40.9811 51.1503 40.9674 51.1626 40.9518 51.1719C40.9362 51.1811 40.919 51.1873 40.901 51.1899L40.9036 51.1766ZM38.2444 47.7602C38.2231 47.7602 38.1966 47.7761 38.1727 47.8213C38.1169 47.9196 38.2072 48.0073 38.2364 48.0338C38.3017 48.0806 38.3763 48.1129 38.4551 48.1284C38.5339 48.144 38.6152 48.1426 38.6934 48.1242C38.5154 47.8744 38.3586 47.7655 38.2656 47.7602H38.2444ZM41.2437 47.8133C41.3242 47.8141 41.4038 47.7965 41.4765 47.762C41.5492 47.7275 41.6131 47.6769 41.6634 47.6141C41.6847 47.5849 41.7537 47.476 41.6767 47.3936C41.6652 47.377 41.6487 47.3644 41.6296 47.3577C41.6105 47.351 41.5898 47.3506 41.5704 47.3564C41.4828 47.3883 41.3579 47.5317 41.2437 47.816V47.8133ZM39.7958 46.5594C39.7268 46.5594 39.7082 46.5993 39.7002 46.6444C39.7002 46.8039 39.7566 46.9583 39.8596 47.0801C39.93 46.9367 39.9479 46.7731 39.9101 46.6179C39.9022 46.5954 39.8858 46.5769 39.8644 46.5665C39.843 46.556 39.8184 46.5545 39.7958 46.5621V46.5594Z" fill="white"/>
<path d="M41.878 41.0496C41.8449 41.0368 41.8147 41.0174 41.7892 40.9927C41.7637 40.968 41.7435 40.9384 41.7296 40.9057C41.7157 40.873 41.7086 40.8379 41.7085 40.8024C41.7084 40.7669 41.7155 40.7317 41.7293 40.699L42.2606 39.4026C42.2876 39.3379 42.3391 39.2866 42.4038 39.2598C42.4684 39.2329 42.5411 39.2327 42.606 39.2591C42.6387 39.272 42.6686 39.2912 42.6939 39.3157C42.7192 39.3403 42.7393 39.3696 42.7532 39.402C42.767 39.4344 42.7743 39.4692 42.7745 39.5044C42.7748 39.5396 42.7681 39.5745 42.7547 39.6071L42.2234 40.9062C42.2106 40.9393 42.1912 40.9695 42.1665 40.995C42.1418 41.0205 42.1122 41.0408 42.0795 41.0546C42.0468 41.0685 42.0117 41.0757 41.9761 41.0757C41.9406 41.0758 41.9055 41.0687 41.8727 41.055L41.878 41.0496Z" fill="#E0E0E0"/>
<path d="M38.807 40.6671C38.7635 40.6497 38.7253 40.6212 38.6964 40.5843C38.6675 40.5474 38.6488 40.5036 38.6423 40.4572L38.4484 39.0705C38.4385 39 38.4571 38.9285 38.4999 38.8717C38.5427 38.8149 38.6064 38.7775 38.6769 38.7676C38.7473 38.7577 38.8188 38.7763 38.8756 38.8191C38.9324 38.862 38.9698 38.9256 38.9797 38.9961L39.171 40.3828C39.1762 40.4177 39.1744 40.4534 39.1658 40.4876C39.1571 40.5219 39.1416 40.554 39.1203 40.5822C39.0991 40.6104 39.0724 40.6341 39.0419 40.6519C39.0113 40.6696 38.9775 40.6811 38.9425 40.6857C38.8965 40.6914 38.8498 40.685 38.807 40.6671Z" fill="#E0E0E0"/>
<path d="M35.9567 41.8732C35.9138 41.8557 35.8763 41.8273 35.8478 41.7908L34.987 40.6857C34.9654 40.6578 34.9495 40.6259 34.9402 40.5918C34.9309 40.5577 34.9284 40.5222 34.9328 40.4871C34.9372 40.4521 34.9485 40.4183 34.966 40.3876C34.9836 40.357 35.0069 40.3301 35.0348 40.3084C35.0627 40.2868 35.0946 40.2709 35.1287 40.2616C35.1628 40.2523 35.1983 40.2498 35.2334 40.2542C35.2684 40.2587 35.3022 40.2699 35.3329 40.2875C35.3635 40.305 35.3904 40.3283 35.4121 40.3562L36.2728 41.4587C36.2949 41.4865 36.3111 41.5183 36.3207 41.5525C36.3302 41.5866 36.3328 41.6223 36.3284 41.6574C36.3239 41.6926 36.3125 41.7265 36.2947 41.7571C36.277 41.7878 36.2533 41.8146 36.225 41.836C36.1877 41.8657 36.1431 41.8848 36.0959 41.8913C36.0487 41.8979 36.0006 41.8916 35.9567 41.8732Z" fill="#E0E0E0"/>
<path d="M32.7953 43.8151C32.7294 43.788 32.677 43.7358 32.6496 43.67C32.6222 43.6043 32.622 43.5303 32.6491 43.4644C32.6763 43.3986 32.7284 43.3462 32.7942 43.3188C32.86 43.2914 32.9339 43.2912 32.9998 43.3183L34.2962 43.8496C34.3288 43.8629 34.3585 43.8825 34.3836 43.9072C34.4087 43.9319 34.4286 43.9613 34.4423 43.9938C34.456 44.0262 34.4632 44.061 34.4634 44.0962C34.4636 44.1315 34.4569 44.1664 34.4437 44.199C34.4304 44.2316 34.4109 44.2613 34.3861 44.2864C34.3614 44.3114 34.332 44.3314 34.2995 44.3451C34.2671 44.3588 34.2323 44.3659 34.1971 44.3662C34.1619 44.3664 34.1269 44.3597 34.0943 44.3464L32.7979 43.8151H32.7953Z" fill="#E0E0E0"/>
<path d="M32.3251 47.6034C32.2821 47.5857 32.2445 47.557 32.2161 47.5201C32.1876 47.4833 32.1694 47.4397 32.1631 47.3935C32.1579 47.3586 32.1596 47.323 32.1683 47.2887C32.177 47.2545 32.1925 47.2223 32.2137 47.1941C32.235 47.1659 32.2617 47.1423 32.2922 47.1245C32.3228 47.1067 32.3565 47.0952 32.3916 47.0907L33.7783 46.8968C33.8488 46.8869 33.9202 46.9054 33.977 46.9483C34.0338 46.9911 34.0713 47.0548 34.0812 47.1252C34.091 47.1957 34.0725 47.2672 34.0296 47.324C33.9868 47.3808 33.9231 47.4182 33.8527 47.4281L32.4659 47.622C32.4182 47.6296 32.3693 47.6231 32.3251 47.6034Z" fill="#E0E0E0"/>
<path d="M45.5471 45.7624C45.4898 45.7422 45.441 45.703 45.4091 45.6512C45.3772 45.5994 45.364 45.5382 45.3718 45.4779C45.3796 45.4175 45.4078 45.3617 45.4518 45.3197C45.4958 45.2777 45.5529 45.252 45.6136 45.2471L47.0003 45.0531C47.0354 45.0479 47.0713 45.0498 47.1056 45.0586C47.14 45.0675 47.1723 45.0832 47.2005 45.1047C47.2288 45.1263 47.2524 45.1532 47.27 45.1841C47.2877 45.2149 47.2989 45.249 47.3031 45.2842C47.3084 45.3192 47.3066 45.3548 47.2979 45.389C47.2892 45.4233 47.2738 45.4554 47.2525 45.4836C47.2312 45.5118 47.2046 45.5355 47.174 45.5533C47.1435 45.571 47.1097 45.5825 47.0747 45.5871L45.6879 45.7784C45.6405 45.7868 45.5916 45.7812 45.5471 45.7624Z" fill="#E0E0E0"/>
<path d="M44.3463 42.9146C44.3021 42.8967 44.2636 42.8674 44.2347 42.8295C44.2118 42.8017 44.1948 42.7694 44.1848 42.7348C44.1748 42.7001 44.1719 42.6638 44.1764 42.628C44.1808 42.5922 44.1926 42.5577 44.2108 42.5266C44.229 42.4955 44.2534 42.4684 44.2825 42.447L45.3876 41.5863C45.4155 41.5646 45.4474 41.5487 45.4815 41.5394C45.5156 41.5301 45.5511 41.5276 45.5862 41.532C45.6212 41.5365 45.655 41.5478 45.6857 41.5653C45.7163 41.5828 45.7432 41.6062 45.7649 41.6341C45.7865 41.662 45.8024 41.6939 45.8117 41.7279C45.821 41.762 45.8235 41.7976 45.8191 41.8326C45.8146 41.8676 45.8034 41.9014 45.7858 41.9321C45.7683 41.9628 45.745 41.9897 45.7171 42.0113L44.6119 42.872C44.5754 42.9021 44.5316 42.9219 44.4849 42.9294C44.4382 42.9369 44.3903 42.9318 44.3463 42.9146Z" fill="#E0E0E0"/>
<path d="M53.5174 73.5503L52.1094 74.3261C52.018 74.383 51.9414 74.4609 51.886 74.5533C51.8306 74.6457 51.7979 74.7499 51.7906 74.8574C51.7561 76.1139 51.6392 81.0552 51.8411 83.4169C51.8554 83.525 51.8933 83.6286 51.952 83.7204C52.0108 83.8122 52.089 83.89 52.1812 83.9482C52.9781 84.3972 55.1406 85.582 56.1315 85.8556C56.3579 85.8943 56.5905 85.8694 56.8036 85.7839L57.8025 85.3828C57.8956 85.3392 57.9751 85.2713 58.0327 85.1861C58.0902 85.101 58.1236 85.0019 58.1293 84.8993C58.1293 82.3915 58.5862 79.0043 59.0006 76.2733C59.0118 76.1726 58.9925 76.0709 58.9451 75.9814C58.8977 75.8918 58.8245 75.8186 58.735 75.7712L54.1364 73.5291C54.0375 73.4891 53.9313 73.4704 53.8247 73.474C53.718 73.4777 53.6134 73.5037 53.5174 73.5503Z" fill="#455A64"/>
<path d="M51.8411 83.4063C51.6392 81.0446 51.7561 76.1033 51.7906 74.8468C51.7856 74.8067 51.7924 74.7661 51.8101 74.7298C51.8279 74.6936 51.8558 74.6633 51.8905 74.6427C51.9252 74.6221 51.9651 74.6121 52.0054 74.6139C52.0458 74.6157 52.0847 74.6292 52.1174 74.6528L56.3998 76.7781C56.4893 76.8284 56.5632 76.9023 56.6133 76.9918C56.6635 77.0813 56.6879 77.183 56.6841 77.2855C56.5938 78.3986 56.3201 82.5854 56.4583 85.5422C56.4638 85.585 56.4589 85.6285 56.4438 85.669C56.4288 85.7095 56.4041 85.7456 56.3719 85.7744C56.3397 85.8032 56.301 85.8237 56.2591 85.8342C56.2172 85.8446 56.1734 85.8447 56.1315 85.8344C55.1406 85.5688 52.9808 84.3759 52.1812 83.927C52.0903 83.8699 52.0128 83.7938 51.9541 83.7039C51.8954 83.614 51.8569 83.5125 51.8411 83.4063Z" fill="#37474F"/>
<path d="M56.1738 85.8477C56.384 85.8709 56.5967 85.8417 56.7928 85.7627L57.7943 85.3615C57.8857 85.3164 57.9636 85.2479 58.02 85.163C58.0765 85.0781 58.1095 84.9798 58.1158 84.878C58.3124 82.3038 58.5727 78.9857 58.9898 76.2547C59.0018 76.1631 58.9841 76.07 58.9393 75.9891L56.6228 77.0517C56.6611 77.1282 56.6785 77.2134 56.6733 77.2988C56.5803 78.4172 56.3093 82.612 56.4475 85.5581C56.4509 85.5956 56.4463 85.6335 56.4339 85.6691C56.4216 85.7047 56.4019 85.7372 56.376 85.7646C56.3501 85.792 56.3187 85.8136 56.2838 85.8279C56.249 85.8422 56.2115 85.849 56.1738 85.8477Z" fill="#263238"/>
<path d="M52.3881 75.6544L56.1392 77.405L55.9585 80.593L52.2871 79.0176C52.2871 79.0176 52.3216 76.7382 52.3881 75.6544Z" fill="#263238"/>
<path d="M55.9719 80.399L52.4546 78.8927C52.4546 78.8927 52.4865 76.8099 52.5449 75.734L56.1313 77.405L55.9719 80.399Z" fill="#BA68C8"/>
<path opacity="0.4" d="M55.9719 80.399L52.4546 78.8927C52.4546 78.8927 52.4865 76.8099 52.5449 75.734L56.1313 77.405L55.9719 80.399Z" fill="black"/>
<path d="M54.4016 76.879L53.6152 78.016L54.1094 78.1861L53.7242 79.1903L54.6035 78.0054L54.1094 77.8195L54.4016 76.879Z" fill="#FAFAFA"/>
<path d="M55.722 81.3235L55.698 81.6396C55.6986 81.6605 55.6937 81.6812 55.6838 81.6995C55.6739 81.7179 55.6594 81.7334 55.6416 81.7444C55.6239 81.7554 55.6036 81.7616 55.5827 81.7623C55.5619 81.7631 55.5412 81.7583 55.5227 81.7486L54.9542 81.5148C54.9082 81.4929 54.8694 81.4582 54.8426 81.4148C54.8157 81.3715 54.8019 81.3214 54.8028 81.2704L54.8214 80.9489C54.8203 80.9281 54.8247 80.9074 54.8343 80.889C54.8438 80.8705 54.8581 80.8549 54.8757 80.8438C54.8933 80.8327 54.9136 80.8265 54.9344 80.8258C54.9552 80.8251 54.9758 80.83 54.994 80.84L55.5705 81.0791C55.6166 81.101 55.6553 81.1357 55.6822 81.179C55.709 81.2224 55.7228 81.2725 55.722 81.3235Z" fill="#263238"/>
<path d="M55.7249 82.3516L55.7089 82.6678C55.7097 82.6885 55.7051 82.709 55.6955 82.7274C55.686 82.7458 55.6718 82.7614 55.6544 82.7727C55.6369 82.7839 55.6169 82.7905 55.5962 82.7916C55.5755 82.7928 55.5548 82.7886 55.5363 82.7793L54.9624 82.5535C54.9167 82.5324 54.878 82.4987 54.8507 82.4563C54.8234 82.414 54.8087 82.3648 54.8084 82.3144V81.9903C54.807 81.9697 54.8112 81.9491 54.8204 81.9306C54.8296 81.9121 54.8436 81.8964 54.8609 81.885C54.8781 81.8737 54.8981 81.8671 54.9188 81.866C54.9394 81.8649 54.96 81.8693 54.9784 81.8787L55.5575 82.1099C55.6061 82.1292 55.6479 82.1625 55.6777 82.2055C55.7075 82.2485 55.7239 82.2993 55.7249 82.3516Z" fill="#263238"/>
<path d="M55.7301 83.3797V83.6959C55.7314 83.7168 55.7271 83.7377 55.7177 83.7565C55.7084 83.7753 55.6942 83.7912 55.6767 83.8028C55.6592 83.8144 55.639 83.8211 55.618 83.8224C55.5971 83.8237 55.5762 83.8194 55.5574 83.8101L54.9836 83.5949C54.9364 83.5749 54.896 83.5417 54.8672 83.4993C54.8385 83.4569 54.8226 83.407 54.8215 83.3558V83.0317C54.8202 83.0111 54.8243 82.9905 54.8336 82.972C54.8428 82.9535 54.8568 82.9377 54.874 82.9264C54.8913 82.915 54.9113 82.9085 54.932 82.9074C54.9526 82.9063 54.9732 82.9107 54.9916 82.9201L55.5733 83.1406C55.6195 83.1614 55.6589 83.1949 55.6866 83.2373C55.7144 83.2797 55.7295 83.3291 55.7301 83.3797Z" fill="#263238"/>
<path d="M55.7353 84.4211V84.7372C55.7368 84.758 55.7328 84.7789 55.7238 84.7977C55.7147 84.8165 55.7009 84.8326 55.6838 84.8444C55.6666 84.8562 55.6466 84.8633 55.6258 84.865C55.605 84.8668 55.5841 84.863 55.5652 84.8541L54.9861 84.6469C54.9392 84.6277 54.8988 84.5955 54.8696 84.5541C54.8404 84.5127 54.8237 84.4637 54.8214 84.4131V84.089C54.8193 84.0683 54.8228 84.0474 54.8315 84.0285C54.8401 84.0096 54.8537 83.9934 54.8708 83.9814C54.8878 83.9695 54.9077 83.9624 54.9285 83.9608C54.9492 83.9591 54.97 83.963 54.9888 83.9721L55.5759 84.1847C55.6222 84.2048 55.6617 84.2378 55.69 84.2797C55.7182 84.3216 55.7339 84.3706 55.7353 84.4211Z" fill="#263238"/>
<path d="M54.447 80.7417L54.4311 81.0711C54.4322 81.0919 54.4278 81.1126 54.4182 81.1311C54.4087 81.1496 54.3943 81.1652 54.3767 81.1763C54.3591 81.1874 54.3389 81.1936 54.3181 81.1942C54.2973 81.1949 54.2767 81.19 54.2584 81.18L53.6952 80.9462C53.6482 80.9251 53.6083 80.8907 53.5805 80.8473C53.5527 80.8039 53.5381 80.7534 53.5385 80.7018V80.3671C53.5368 80.3464 53.5407 80.3256 53.5499 80.307C53.5591 80.2884 53.5732 80.2727 53.5907 80.2615C53.6082 80.2503 53.6284 80.244 53.6491 80.2435C53.6699 80.2429 53.6904 80.248 53.7085 80.2582L54.2823 80.4973C54.3308 80.5172 54.3724 80.551 54.4017 80.5945C54.431 80.638 54.4468 80.6892 54.447 80.7417Z" fill="#263238"/>
<path d="M54.4443 81.7645L54.4284 82.094C54.4295 82.1147 54.4251 82.1354 54.4155 82.1539C54.4059 82.1724 54.3916 82.188 54.374 82.1991C54.3564 82.2102 54.3362 82.2164 54.3154 82.2171C54.2946 82.2177 54.274 82.2128 54.2557 82.2029L53.6925 81.9717C53.645 81.951 53.6046 81.9168 53.5762 81.8734C53.5479 81.83 53.5329 81.7792 53.5331 81.7273V81.3926C53.5314 81.3719 53.5353 81.3511 53.5445 81.3325C53.5537 81.3139 53.5678 81.2982 53.5853 81.287C53.6028 81.2758 53.623 81.2695 53.6438 81.269C53.6645 81.2684 53.685 81.2735 53.7031 81.2837L54.277 81.5201C54.326 81.5396 54.3681 81.5733 54.3979 81.6168C54.4277 81.6604 54.4438 81.7118 54.4443 81.7645Z" fill="#263238"/>
<path d="M54.4387 82.7846V83.1141C54.4401 83.1347 54.4359 83.1553 54.4267 83.1738C54.4175 83.1923 54.4035 83.208 54.3862 83.2194C54.3689 83.2307 54.349 83.2373 54.3283 83.2384C54.3077 83.2395 54.2871 83.2351 54.2687 83.2256L53.7002 82.9972C53.6532 82.976 53.6133 82.9417 53.5855 82.8983C53.5577 82.8549 53.5431 82.8043 53.5435 82.7528V82.418C53.5415 82.3975 53.5452 82.3768 53.5541 82.3582C53.5629 82.3396 53.5767 82.3237 53.5938 82.3123C53.611 82.3008 53.6309 82.2943 53.6515 82.2932C53.6721 82.2922 53.6926 82.2968 53.7108 82.3065L54.2847 82.5429C54.3308 82.5642 54.3698 82.5984 54.3971 82.6412C54.4244 82.6841 54.4389 82.7338 54.4387 82.7846Z" fill="#263238"/>
<path d="M54.4338 83.8074V84.1368C54.4347 84.1572 54.4302 84.1775 54.4207 84.1956C54.4113 84.2137 54.3973 84.2291 54.3801 84.2401C54.3629 84.2511 54.3431 84.2574 54.3227 84.2584C54.3023 84.2594 54.282 84.255 54.2638 84.2457L53.6953 84.0199C53.6486 83.9996 53.6087 83.9662 53.5805 83.9238C53.5522 83.8814 53.5367 83.8318 53.5359 83.7808V83.4434C53.5345 83.4228 53.5387 83.4022 53.5479 83.3837C53.5572 83.3652 53.5711 83.3495 53.5884 83.3381C53.6057 83.3268 53.6257 83.3202 53.6463 83.3191C53.667 83.318 53.6875 83.3224 53.7059 83.3319L54.2797 83.5656C54.3258 83.587 54.3649 83.6211 54.3922 83.664C54.4195 83.7068 54.4339 83.7566 54.4338 83.8074Z" fill="#263238"/>
<path d="M53.1742 80.1706V80.5133C53.1754 80.5337 53.1711 80.5542 53.1617 80.5724C53.1523 80.5906 53.1381 80.606 53.1207 80.6168C53.1033 80.6277 53.0833 80.6337 53.0628 80.6342C53.0423 80.6346 53.0221 80.6296 53.0042 80.6195L52.4437 80.3857C52.3966 80.3646 52.3568 80.3302 52.329 80.2868C52.3011 80.2435 52.2865 80.1929 52.2869 80.1413V79.7907C52.2854 79.7707 52.2894 79.7506 52.2983 79.7327C52.3072 79.7147 52.3208 79.6995 52.3377 79.6886C52.3546 79.6777 52.374 79.6716 52.3941 79.6709C52.4141 79.6701 52.434 79.6748 52.4516 79.6844L53.0201 79.9262C53.0667 79.9477 53.106 79.9822 53.1333 80.0256C53.1607 80.0689 53.1749 80.1193 53.1742 80.1706Z" fill="#263238"/>
<path d="M53.1797 81.1561V81.4988C53.1815 81.5192 53.1777 81.5397 53.1687 81.5581C53.1596 81.5764 53.1457 81.592 53.1284 81.6029C53.1111 81.6139 53.0912 81.6199 53.0707 81.6203C53.0502 81.6207 53.03 81.6154 53.0124 81.6051L52.4518 81.3713C52.4043 81.3506 52.3639 81.3164 52.3356 81.273C52.3072 81.2295 52.2923 81.1788 52.2924 81.1269V80.7763C52.2906 80.7559 52.2944 80.7354 52.3035 80.717C52.3126 80.6987 52.3265 80.6831 52.3438 80.6722C52.361 80.6612 52.381 80.6552 52.4015 80.6548C52.4219 80.6544 52.4421 80.6597 52.4598 80.67L53.0283 80.9117C53.0743 80.9337 53.1131 80.9683 53.1399 81.0117C53.1668 81.055 53.1806 81.1052 53.1797 81.1561Z" fill="#263238"/>
<path d="M53.1824 82.1497V82.4924C53.1836 82.5128 53.1793 82.5333 53.1698 82.5515C53.1604 82.5697 53.1463 82.5851 53.1289 82.5959C53.1115 82.6068 53.0915 82.6128 53.071 82.6133C53.0505 82.6137 53.0302 82.6087 53.0124 82.5986L52.4518 82.3649C52.4055 82.3426 52.3661 82.308 52.338 82.2649C52.3099 82.2218 52.2941 82.1719 52.2924 82.1204V81.7698C52.2906 81.7494 52.2944 81.7289 52.3035 81.7105C52.3126 81.6922 52.3265 81.6767 52.3438 81.6657C52.361 81.6547 52.381 81.6487 52.4015 81.6483C52.4219 81.648 52.4421 81.6532 52.4598 81.6635L53.0283 81.9053C53.0748 81.9268 53.1141 81.9613 53.1415 82.0047C53.1688 82.0481 53.183 82.0984 53.1824 82.1497Z" fill="#263238"/>
<path d="M53.185 83.1433V83.486C53.1868 83.5064 53.183 83.5269 53.1739 83.5452C53.1649 83.5636 53.1509 83.5791 53.1336 83.5901C53.1164 83.601 53.0964 83.607 53.0759 83.6074C53.0555 83.6078 53.0353 83.6026 53.0176 83.5922L52.4544 83.3585C52.4074 83.3373 52.3675 83.303 52.3397 83.2596C52.3119 83.2162 52.2973 83.1656 52.2977 83.1141V82.7634C52.2962 82.7434 52.3001 82.7233 52.309 82.7054C52.318 82.6874 52.3316 82.6722 52.3484 82.6613C52.3653 82.6504 52.3848 82.6443 52.4048 82.6436C52.4249 82.6428 52.4448 82.6475 52.4624 82.6571L53.0309 82.8962C53.0766 82.9194 53.1152 82.9547 53.1423 82.9983C53.1695 83.0418 53.1842 83.092 53.185 83.1433Z" fill="#263238"/>
<path d="M117.336 124.934L114.884 124.1C114.674 121.751 114.977 116.061 118.795 112.722C122.671 109.332 125.2 111.505 125.125 112.987C125.046 114.605 121.568 116.122 119.812 118.3C117.894 120.67 117.296 122.291 117.336 124.934Z" fill="#BA68C8"/>
<path opacity="0.5" d="M117.336 124.934L114.884 124.1C114.674 121.751 114.977 116.061 118.795 112.722C122.671 109.332 125.2 111.505 125.125 112.987C125.046 114.605 121.568 116.122 119.812 118.3C117.894 120.67 117.296 122.291 117.336 124.934Z" fill="white"/>
<path d="M115.681 124.501C115.646 124.5 115.613 124.486 115.589 124.461C115.564 124.436 115.551 124.403 115.551 124.368C115.585 118.051 120.277 112.522 122.615 112.164C122.632 112.161 122.65 112.162 122.667 112.166C122.684 112.171 122.7 112.178 122.714 112.189C122.729 112.199 122.741 112.212 122.75 112.227C122.759 112.242 122.765 112.259 122.767 112.277C122.77 112.294 122.769 112.312 122.765 112.329C122.761 112.346 122.753 112.362 122.743 112.376C122.732 112.391 122.719 112.403 122.704 112.412C122.689 112.421 122.672 112.427 122.654 112.429C120.365 112.78 115.848 118.404 115.816 124.371C115.816 124.388 115.812 124.405 115.805 124.421C115.798 124.437 115.788 124.452 115.776 124.464C115.763 124.476 115.748 124.486 115.732 124.492C115.716 124.498 115.698 124.501 115.681 124.501Z" fill="white"/>
<path d="M123.162 119.27C121.037 118.571 116.414 120.896 115.519 124.318L117.336 124.931C118.804 123.732 120.58 122.972 122.461 122.74C125.455 122.439 125.279 119.969 123.162 119.27Z" fill="#BA68C8"/>
<path opacity="0.65" d="M123.162 119.27C121.037 118.571 116.414 120.896 115.519 124.318L117.336 124.931C118.804 123.732 120.58 122.972 122.461 122.74C125.455 122.439 125.279 119.969 123.162 119.27Z" fill="white"/>
<path d="M116.348 124.78C116.327 124.781 116.306 124.776 116.287 124.767C116.256 124.75 116.233 124.721 116.222 124.688C116.212 124.654 116.215 124.617 116.231 124.586C118.051 121.071 122.001 120.033 123.609 120.463C123.625 120.467 123.641 120.475 123.655 120.485C123.669 120.496 123.681 120.509 123.689 120.524C123.698 120.539 123.703 120.556 123.706 120.573C123.708 120.591 123.706 120.608 123.701 120.625C123.692 120.659 123.67 120.688 123.64 120.706C123.61 120.723 123.574 120.729 123.539 120.721C122.004 120.309 118.226 121.318 116.468 124.706C116.457 124.728 116.44 124.747 116.419 124.76C116.398 124.773 116.373 124.78 116.348 124.78Z" fill="white"/>
<path d="M114.297 85.558V124.844C114.309 124.974 114.356 125.1 114.432 125.206C114.509 125.313 114.613 125.397 114.733 125.449C115.058 125.616 115.418 125.702 115.784 125.702C116.149 125.702 116.509 125.616 116.834 125.449C116.954 125.396 117.058 125.312 117.134 125.206C117.211 125.099 117.258 124.974 117.27 124.844V85.558H114.297Z" fill="#455A64"/>
<path d="M114.297 92.9221L117.27 91.206V85.558H114.297V92.9221Z" fill="#37474F"/>
<path d="M110.145 92.2899L130.649 80.4521V43.7567L110.145 55.5944V92.2899Z" fill="#BA68C8"/>
<path d="M130.648 43.7566L121.422 38.4302L100.918 50.2679L110.145 55.5944L130.648 43.7566Z" fill="#BA68C8"/>
<path opacity="0.2" d="M130.648 43.7566L121.422 38.4302L100.918 50.2679L110.145 55.5944L130.648 43.7566Z" fill="white"/>
<path d="M100.918 50.2679V86.9634L110.145 92.2899V55.5944L100.918 50.2679Z" fill="#BA68C8"/>
<path opacity="0.2" d="M100.918 50.2679V86.9634L110.145 92.2899V55.5944L100.918 50.2679Z" fill="black"/>
<path d="M123.218 53.2964L115.615 73.0747L120.397 69.2068L116.677 83.191L125.178 61.9277L120.397 65.6576L123.218 53.2964Z" fill="#FAFAFA"/>
<path d="M111.696 55.8893C111.978 55.7272 112.209 55.8601 112.209 56.1868C112.199 56.3646 112.148 56.5375 112.059 56.6917C111.97 56.8458 111.845 56.9768 111.696 57.0741C111.412 57.2388 111.184 57.106 111.184 56.7793C111.193 56.6011 111.245 56.4277 111.334 56.2731C111.423 56.1185 111.547 55.987 111.696 55.8893Z" fill="#37474F"/>
<path d="M111.696 89.0382C111.978 88.8735 112.209 89.0063 112.209 89.3331C112.199 89.5109 112.148 89.6838 112.059 89.838C111.97 89.9921 111.845 90.1231 111.696 90.2204C111.412 90.3851 111.184 90.2523 111.184 89.9255C111.193 89.7476 111.244 89.5744 111.333 89.4202C111.422 89.2659 111.547 89.135 111.696 89.0382Z" fill="#37474F"/>
<path d="M129.11 45.8288C129.394 45.664 129.623 45.7969 129.623 46.1236C129.614 46.3015 129.562 46.4747 129.473 46.629C129.384 46.7832 129.26 46.9141 129.11 47.0109C128.829 47.1756 128.6 47.0428 128.6 46.7161C128.609 46.5385 128.66 46.3656 128.749 46.2114C128.838 46.0573 128.961 45.9262 129.11 45.8288Z" fill="#37474F"/>
<path d="M129.11 78.9751C129.394 78.8103 129.623 78.9432 129.623 79.2699C129.614 79.4478 129.562 79.621 129.473 79.7753C129.384 79.9295 129.26 80.0604 129.11 80.1572C128.829 80.3219 128.6 80.1891 128.6 79.8624C128.609 79.6848 128.66 79.5119 128.749 79.3577C128.838 79.2036 128.961 79.0725 129.11 78.9751Z" fill="#37474F"/>
<path d="M130.648 43.7566V69.7992L141.925 63.2879V26.5924L121.422 38.4302L130.648 43.7566Z" fill="#BA68C8"/>
<path d="M141.925 26.5924L121.422 38.4302L120.396 37.8378L140.9 26L141.925 26.5924Z" fill="#BA68C8"/>
<path opacity="0.2" d="M141.925 26.5924L121.422 38.4302L120.396 37.8378L140.9 26L141.925 26.5924Z" fill="white"/>
<path d="M120.396 39.0226V37.8378L121.422 38.4302L120.396 39.0226Z" fill="#BA68C8"/>
<path opacity="0.2" d="M120.396 39.0226V37.8378L121.422 38.4302L120.396 39.0226Z" fill="black"/>
<path opacity="0.2" d="M121.422 38.4302L134.625 42.0538V67.5039L130.648 69.7992V43.7566L121.422 38.4302Z" fill="black"/>
<defs>
<linearGradient id="paint0_linear_119_779" x1="117.193" y1="8.09361" x2="114.971" y2="137.225" gradientUnits="userSpaceOnUse">
<stop stop-color="white" stop-opacity="0"/>
<stop offset="1" stop-color="#AB9C50" stop-opacity="0.6"/>
</linearGradient>
</defs>
</svg>
