<svg width="160" height="132" viewBox="0 0 160 132" fill="none" xmlns="http://www.w3.org/2000/svg">
<path d="M160 66.5C159.993 78.5373 156.645 90.3405 150.32 100.616C143.996 110.892 134.941 119.244 124.147 124.756C123.661 125.008 123.172 125.251 122.679 125.483L122.577 125.534L122.226 125.701C121.935 125.842 121.65 125.973 121.354 126.105C119.51 126.943 117.617 127.696 115.678 128.363C114.577 128.743 113.464 129.095 112.34 129.419L110.995 129.787C96.0267 133.739 80.1354 132.368 66.081 125.913C65.5052 125.645 64.9294 125.372 64.3638 125.089L63.3446 124.584C53.2575 119.344 44.7007 111.618 38.498 102.15C37.8457 101.163 37.2241 100.153 36.633 99.1186C36.1064 98.2194 35.5968 97.3085 35.1042 96.3857C30.3168 87.1395 27.8272 76.8931 27.8428 66.5C27.8428 65.2741 27.8768 64.055 27.9448 62.8426C28.9001 45.8104 36.5204 29.8196 49.1848 18.2713C61.8493 6.72297 78.5587 0.528265 95.7592 1.00471C112.96 1.48115 129.294 8.59114 141.288 20.8225C153.283 33.0539 159.99 49.4415 159.985 66.5H160Z" fill="url(#paint0_linear_128_3976)"/>
<path d="M150 116.616H0.000976562V116.691H150V116.616Z" fill="#E0E0E0"/>
<path d="M32.827 120.213H15.4961V120.288H32.827V120.213Z" fill="#E0E0E0"/>
<path d="M70.6987 118.584H62.8027V118.659H70.6987V118.584Z" fill="#E0E0E0"/>
<path d="M88.9679 118.545H73.584V118.62H88.9679V118.545Z" fill="#E0E0E0"/>
<path d="M118.25 119.445H114.503V119.52H118.25V119.445Z" fill="#E0E0E0"/>
<path d="M101.566 119.445H86.6201V119.52H101.566V119.445Z" fill="#E0E0E0"/>
<path d="M38.7005 120.213H35.7305V120.288H38.7005V120.213Z" fill="#E0E0E0"/>
<path d="M133.674 119.445H120.699V119.52H133.674V119.445Z" fill="#E0E0E0"/>
<path d="M71.1006 103.236H13.1739C12.7201 103.235 12.2851 103.054 11.9645 102.733C11.6439 102.412 11.4639 101.977 11.4639 101.523V20.0944C11.4678 19.6432 11.6496 19.2118 11.9698 18.8938C12.29 18.5759 12.7227 18.3971 13.1739 18.3964H71.1006C71.5549 18.3964 71.9906 18.5768 72.3118 18.8981C72.6331 19.2193 72.8136 19.655 72.8136 20.1094V101.523C72.8136 101.977 72.6331 102.413 72.3118 102.734C71.9906 103.055 71.5549 103.236 71.1006 103.236ZM13.1739 18.4564C12.74 18.4572 12.3241 18.6301 12.0176 18.9372C11.711 19.2443 11.5389 19.6605 11.5389 20.0944V101.523C11.5389 101.957 11.711 102.373 12.0176 102.68C12.3241 102.987 12.74 103.16 13.1739 103.161H71.1006C71.5347 103.16 71.9509 102.987 72.2579 102.68C72.5649 102.373 72.7378 101.957 72.7386 101.523V20.0944C72.7378 19.6602 72.5649 19.244 72.2579 18.937C71.9509 18.63 71.5347 18.4572 71.1006 18.4564H13.1739Z" fill="#E0E0E0"/>
<path d="M135.992 103.236H78.0626C77.6085 103.235 77.1733 103.054 76.8522 102.733C76.5311 102.412 76.3504 101.977 76.3496 101.523V20.0944C76.3543 19.6429 76.5368 19.2115 76.8575 18.8936C77.1781 18.5758 77.6111 18.3971 78.0626 18.3964H135.992C136.443 18.3979 136.875 18.577 137.194 18.8949C137.514 19.2127 137.695 19.6437 137.699 20.0944V101.523C137.699 101.976 137.52 102.411 137.2 102.732C136.88 103.053 136.446 103.234 135.992 103.236ZM78.0626 18.4564C77.6284 18.4572 77.2123 18.63 76.9052 18.937C76.5982 19.244 76.4254 19.6602 76.4246 20.0944V101.523C76.4254 101.957 76.5982 102.373 76.9052 102.68C77.2123 102.987 77.6284 103.16 78.0626 103.161H135.992C136.426 103.16 136.843 102.987 137.15 102.68C137.457 102.373 137.629 101.957 137.63 101.523V20.0944C137.629 19.6602 137.457 19.244 137.15 18.937C136.843 18.63 136.426 18.4572 135.992 18.4564H78.0626Z" fill="#E0E0E0"/>
<path d="M22.987 42.9392C21.679 40.1133 22.717 38.1033 25.912 38.1033C27.9189 38.1033 30.4119 38.8953 32.8119 40.1823C33.0879 39.4473 33.8559 39.0093 35.0949 39.0093C37.2759 39.0093 40.2849 40.3683 42.6429 42.2882C43.37 41.8035 44.226 41.5484 45.0999 41.5563C47.1998 41.4693 49.7138 42.2522 51.9128 43.5242C52.042 43.402 52.1942 43.3067 52.3606 43.2439C52.5269 43.1811 52.7041 43.152 52.8818 43.1582C54.0818 43.1102 55.7108 43.8992 56.5208 44.9192C56.5718 44.9852 56.6138 45.0452 56.6588 45.1082H22.351C22.2831 44.7221 22.3052 44.3256 22.4155 43.9494C22.5258 43.5732 22.7214 43.2276 22.987 42.9392Z" fill="#F5F5F5"/>
<path d="M61.8962 29.4963C62.0018 29.4842 62.108 29.4782 62.2142 29.4783C62.1152 28.3743 62.6882 27.6783 63.9092 27.6783C64.7912 27.6783 65.8712 28.0473 66.9752 28.6713C66.6602 26.5293 67.6682 25.1343 69.9572 25.1343C71.8022 25.1343 74.1362 26.0343 76.4432 27.5343C76.6442 26.6943 77.3252 26.1903 78.4682 26.1903C80.4722 26.1903 83.3251 27.7443 85.6111 29.9403C86.218 29.3949 87.0063 29.0954 87.8221 29.1003C89.7331 29.0013 92.1031 29.8953 94.2061 31.3532C94.3064 31.2181 94.4379 31.1094 94.5894 31.0362C94.7409 30.9631 94.9079 30.9277 95.0761 30.9332C96.1201 30.8822 97.5601 31.6832 98.3941 32.7602H60.2163C59.3193 31.1132 60.0333 29.6853 61.8962 29.4963Z" fill="#F5F5F5"/>
<path d="M113.099 24.8193C112.259 23.0194 112.928 21.7144 114.977 21.7144C116.264 21.7144 117.86 22.2214 119.414 23.0494C119.588 22.5784 120.083 22.2934 120.878 22.2934C122.279 22.2934 124.208 23.1693 125.72 24.3933C126.188 24.0831 126.737 23.92 127.298 23.9253C128.636 23.8683 130.259 24.3693 131.669 25.1883C131.752 25.1094 131.849 25.0477 131.956 25.007C132.062 24.9663 132.176 24.9474 132.29 24.9513C132.737 24.9674 133.175 25.0763 133.578 25.271C133.98 25.4657 134.337 25.742 134.627 26.0823L134.717 26.2023H112.052C111.335 25.5663 112.127 24.8493 113.099 24.8193Z" fill="#F5F5F5"/>
<path d="M36.9631 83.952H26.7451V116.616H36.9631V83.952Z" fill="#EBEBEB"/>
<path d="M33.624 116.616H50.3789L50.3789 72.5851H33.624L33.624 116.616Z" fill="#F5F5F5"/>
<path d="M59.0759 72.5851H50.3789V116.616H59.0759V72.5851Z" fill="#EBEBEB"/>
<path d="M35.877 72.5851H50.3789V68.2081H35.877V72.5851Z" fill="#F5F5F5"/>
<path d="M35.877 72.5851H50.3789V71.6011H35.877V72.5851Z" fill="#EBEBEB"/>
<path d="M56.8199 68.2081H50.3789V72.5851H56.8199V68.2081Z" fill="#EBEBEB"/>
<path d="M38.13 68.2081H50.376V63.8312H38.13V68.2081Z" fill="#F5F5F5"/>
<path d="M38.13 68.2081H50.376V67.2241H38.13V68.2081Z" fill="#EBEBEB"/>
<path d="M54.5669 63.8311H50.3789V68.208H54.5669V63.8311Z" fill="#EBEBEB"/>
<path d="M46.7544 57.7172H45.9414V63.8341H46.7544V57.7172Z" fill="#EBEBEB"/>
<path d="M56.2982 116.616H68.5352V80.241H56.2982L56.2982 116.616Z" fill="#F5F5F5"/>
<path d="M74.8861 80.2411H68.5352V116.616H74.8861V80.2411Z" fill="#EBEBEB"/>
<path d="M71.71 90.6331L80.9889 98.589V116.616H71.71V90.6331Z" fill="#F5F5F5"/>
<path d="M85.8062 98.5859H80.9912V116.613H85.8062V98.5859Z" fill="#EBEBEB"/>
<path d="M85.8069 98.589H80.9889L71.71 90.6331H76.5279L85.8069 98.589Z" fill="#EBEBEB"/>
<path d="M129.3 116.616C129.428 115.895 129.735 115.218 130.191 114.645C130.647 114.073 131.239 113.623 131.913 113.337C131.321 114.323 131.053 115.47 131.145 116.616H129.3Z" fill="#EBEBEB"/>
<path d="M42.7595 116.616C42.6308 115.895 42.3245 115.218 41.8682 114.645C41.412 114.073 40.8202 113.623 40.1465 113.337C40.738 114.323 41.0065 115.47 40.9145 116.616H42.7595Z" fill="#EBEBEB"/>
<path d="M21.334 116.616C21.334 116.616 21.187 112.776 19.582 111.66C20.239 113.229 20.101 116.616 20.101 116.616H21.334Z" fill="#EBEBEB"/>
<path d="M20.7305 116.616C20.7305 116.616 20.8775 114.411 22.4825 113.772C21.8255 114.672 21.9695 116.616 21.9695 116.616H20.7305Z" fill="#EBEBEB"/>
<path d="M44.1325 116.616C44.1325 116.616 43.9705 112.98 41.0605 111.66C42.3625 113.526 42.2875 116.616 42.2875 116.616H44.1325Z" fill="#EBEBEB"/>
<path d="M115.886 111.696H108.533C108.454 111.696 108.378 111.664 108.321 111.608C108.265 111.552 108.233 111.475 108.233 111.396V104.052C108.233 103.972 108.265 103.896 108.321 103.84C108.378 103.784 108.454 103.752 108.533 103.752H115.886C115.966 103.752 116.042 103.784 116.098 103.84C116.155 103.896 116.186 103.972 116.186 104.052V111.396C116.186 111.475 116.155 111.552 116.098 111.608C116.042 111.664 115.966 111.696 115.886 111.696ZM108.833 111.096H115.586V104.352H108.833V111.096Z" fill="#E0E0E0"/>
<path d="M115.886 104.352H108.533C108.454 104.352 108.378 104.32 108.321 104.264C108.265 104.208 108.233 104.131 108.233 104.052V96.6959C108.233 96.6164 108.265 96.5401 108.321 96.4838C108.378 96.4275 108.454 96.3959 108.533 96.3959H115.886C115.966 96.3959 116.042 96.4275 116.098 96.4838C116.155 96.5401 116.186 96.6164 116.186 96.6959V104.052C116.186 104.131 116.155 104.208 116.098 104.264C116.042 104.32 115.966 104.352 115.886 104.352ZM108.833 103.752H115.586V96.9959H108.833V103.752Z" fill="#E0E0E0"/>
<path d="M115.887 111.696C115.807 111.695 115.732 111.662 115.677 111.606L108.321 104.253C108.264 104.197 108.232 104.12 108.232 104.04C108.232 103.96 108.264 103.883 108.321 103.827C108.377 103.77 108.454 103.739 108.534 103.739C108.614 103.739 108.69 103.77 108.747 103.827L116.1 111.195C116.155 111.251 116.187 111.327 116.187 111.406C116.187 111.486 116.155 111.562 116.1 111.618C116.042 111.671 115.965 111.699 115.887 111.696Z" fill="#E0E0E0"/>
<path d="M115.887 104.352C115.808 104.352 115.732 104.32 115.677 104.265L108.321 96.9089C108.265 96.8527 108.233 96.7767 108.233 96.6975C108.233 96.6182 108.265 96.5422 108.321 96.4859C108.349 96.4578 108.382 96.4355 108.418 96.4203C108.455 96.4051 108.494 96.3972 108.534 96.3972C108.573 96.3972 108.612 96.4051 108.649 96.4203C108.686 96.4355 108.719 96.4578 108.747 96.4859L116.1 103.839C116.142 103.881 116.171 103.934 116.182 103.993C116.194 104.051 116.188 104.112 116.165 104.167C116.143 104.222 116.104 104.269 116.054 104.302C116.005 104.335 115.946 104.352 115.887 104.352Z" fill="#E0E0E0"/>
<path d="M115.886 96.996H108.533C108.454 96.996 108.378 96.9644 108.321 96.9081C108.265 96.8519 108.233 96.7756 108.233 96.696V89.343C108.233 89.2635 108.265 89.1872 108.321 89.1309C108.378 89.0746 108.454 89.043 108.533 89.043H115.886C115.966 89.043 116.042 89.0746 116.098 89.1309C116.155 89.1872 116.186 89.2635 116.186 89.343V96.696C116.186 96.7756 116.155 96.8519 116.098 96.9081C116.042 96.9644 115.966 96.996 115.886 96.996ZM108.833 96.396H115.586V89.643H108.833V96.396Z" fill="#E0E0E0"/>
<path d="M115.886 89.643H108.533C108.454 89.643 108.378 89.6114 108.321 89.5551C108.265 89.4989 108.233 89.4226 108.233 89.343V81.996C108.233 81.9165 108.265 81.8402 108.321 81.7839C108.378 81.7277 108.454 81.696 108.533 81.696H115.886C115.966 81.696 116.042 81.7277 116.098 81.7839C116.155 81.8402 116.186 81.9165 116.186 81.996V89.352C116.184 89.43 116.151 89.504 116.095 89.5583C116.039 89.6127 115.964 89.643 115.886 89.643ZM108.833 89.043H115.586V82.296H108.833V89.043Z" fill="#E0E0E0"/>
<path d="M115.887 96.996C115.808 96.9956 115.732 96.9644 115.677 96.909L108.321 89.553C108.265 89.4968 108.233 89.4208 108.233 89.3415C108.233 89.2622 108.265 89.1862 108.321 89.13C108.349 89.1019 108.382 89.0796 108.418 89.0643C108.455 89.0491 108.494 89.0413 108.534 89.0413C108.573 89.0413 108.612 89.0491 108.649 89.0643C108.686 89.0796 108.719 89.1019 108.747 89.13L116.1 96.486C116.155 96.5422 116.187 96.6182 116.187 96.6975C116.187 96.7767 116.155 96.8528 116.1 96.909C116.072 96.9368 116.038 96.9588 116.002 96.9737C115.965 96.9886 115.926 96.9962 115.887 96.996Z" fill="#E0E0E0"/>
<path d="M115.887 89.643C115.807 89.6418 115.732 89.6095 115.677 89.553L108.321 82.2C108.264 82.1435 108.232 82.0669 108.232 81.987C108.232 81.9071 108.264 81.8305 108.321 81.774C108.377 81.7175 108.454 81.6858 108.534 81.6858C108.614 81.6858 108.69 81.7175 108.747 81.774L116.1 89.13C116.155 89.1862 116.187 89.2622 116.187 89.3415C116.187 89.4207 116.155 89.4968 116.1 89.553C116.072 89.5813 116.039 89.6039 116.002 89.6193C115.966 89.6348 115.926 89.6428 115.887 89.643Z" fill="#E0E0E0"/>
<path d="M115.886 82.296H108.533C108.454 82.296 108.378 82.2644 108.321 82.2081C108.265 82.1519 108.233 82.0756 108.233 81.996V74.6311C108.233 74.5515 108.265 74.4752 108.321 74.4189C108.378 74.3627 108.454 74.3311 108.533 74.3311H115.886C115.966 74.3311 116.042 74.3627 116.098 74.4189C116.155 74.4752 116.186 74.5515 116.186 74.6311V81.996C116.186 82.0756 116.155 82.1519 116.098 82.2081C116.042 82.2644 115.966 82.296 115.886 82.296ZM108.833 81.696H115.586V74.9311H108.833V81.696Z" fill="#E0E0E0"/>
<path d="M115.886 74.931H108.533C108.454 74.931 108.378 74.8994 108.321 74.8432C108.265 74.7869 108.233 74.7106 108.233 74.631V67.2781C108.233 67.1985 108.265 67.1222 108.321 67.066C108.378 67.0097 108.454 66.9781 108.533 66.9781H115.886C115.966 66.9781 116.042 67.0097 116.098 67.066C116.155 67.1222 116.186 67.1985 116.186 67.2781V74.631C116.186 74.7106 116.155 74.7869 116.098 74.8432C116.042 74.8994 115.966 74.931 115.886 74.931ZM108.833 74.331H115.586V67.5781H108.833V74.331Z" fill="#E0E0E0"/>
<path d="M115.887 82.2961C115.808 82.2957 115.732 82.2645 115.677 82.2091L108.321 74.8531C108.265 74.7969 108.233 74.7209 108.233 74.6416C108.233 74.5624 108.265 74.4863 108.321 74.4301C108.349 74.402 108.382 74.3797 108.418 74.3644C108.455 74.3492 108.494 74.3414 108.534 74.3414C108.573 74.3414 108.612 74.3492 108.649 74.3644C108.686 74.3797 108.719 74.402 108.747 74.4301L116.1 81.7741C116.142 81.816 116.171 81.8696 116.182 81.9281C116.194 81.9865 116.188 82.0471 116.165 82.1021C116.143 82.1571 116.104 82.2041 116.054 82.2371C116.005 82.27 115.946 82.2874 115.887 82.2871V82.2961Z" fill="#E0E0E0"/>
<path d="M108.534 50.3613H101.178C101.098 50.3613 101.022 50.3297 100.966 50.2734C100.91 50.2171 100.878 50.1408 100.878 50.0613V42.6963C100.878 42.6167 100.91 42.5404 100.966 42.4842C101.022 42.4279 101.098 42.3963 101.178 42.3963H108.534C108.613 42.3963 108.69 42.4279 108.746 42.4842C108.802 42.5404 108.834 42.6167 108.834 42.6963V50.0493C108.836 50.0897 108.829 50.13 108.815 50.1678C108.8 50.2056 108.778 50.2401 108.75 50.2692C108.722 50.2983 108.689 50.3215 108.652 50.3373C108.614 50.3532 108.574 50.3613 108.534 50.3613ZM101.478 49.7613H108.234V42.9963H101.478V49.7613Z" fill="#E0E0E0"/>
<path d="M115.886 50.3612H108.533C108.454 50.3612 108.378 50.3296 108.321 50.2733C108.265 50.2171 108.233 50.1408 108.233 50.0612C108.233 49.9816 108.265 49.9053 108.321 49.8491C108.378 49.7928 108.454 49.7612 108.533 49.7612H115.586V35.3613C115.586 35.2817 115.618 35.2054 115.674 35.1491C115.73 35.0929 115.807 35.0613 115.886 35.0613C115.966 35.0613 116.042 35.0929 116.098 35.1491C116.155 35.2054 116.186 35.2817 116.186 35.3613V50.0612C116.186 50.1408 116.155 50.2171 116.098 50.2733C116.042 50.3296 115.966 50.3612 115.886 50.3612Z" fill="#E0E0E0"/>
<path d="M108.534 50.3612C108.482 50.3616 108.432 50.3487 108.387 50.3239C108.342 50.2991 108.304 50.2631 108.277 50.2194C108.249 50.1758 108.234 50.1259 108.232 50.0745C108.229 50.0232 108.24 49.9721 108.264 49.9262L115.62 35.2263C115.655 35.1556 115.718 35.1021 115.793 35.0774C115.869 35.0526 115.951 35.0587 116.022 35.0943C116.093 35.1297 116.147 35.192 116.172 35.2673C116.198 35.3427 116.192 35.4251 116.157 35.4963L108.801 50.1962C108.776 50.2457 108.737 50.2873 108.69 50.3164C108.643 50.3455 108.589 50.361 108.534 50.3612Z" fill="#E0E0E0"/>
<path d="M101.178 50.3613H93.8254C93.7458 50.3613 93.6695 50.3297 93.6133 50.2734C93.557 50.2171 93.5254 50.1408 93.5254 50.0613V42.6963C93.5254 42.6167 93.557 42.5404 93.6133 42.4842C93.6695 42.4279 93.7458 42.3963 93.8254 42.3963H101.178C101.258 42.3963 101.334 42.4279 101.39 42.4842C101.447 42.5404 101.478 42.6167 101.478 42.6963V50.0493C101.48 50.0897 101.473 50.13 101.459 50.1678C101.445 50.2056 101.423 50.2401 101.395 50.2692C101.367 50.2983 101.333 50.3215 101.296 50.3373C101.259 50.3532 101.219 50.3613 101.178 50.3613ZM94.1254 49.7613H100.878V42.9963H94.1254V49.7613Z" fill="#E0E0E0"/>
<path d="M101.178 50.3612C101.119 50.3604 101.062 50.3423 101.013 50.3093C100.965 50.2763 100.927 50.2298 100.904 50.1754C100.882 50.1212 100.876 50.0615 100.887 50.0038C100.899 49.9462 100.927 49.8931 100.968 49.8512L108.321 42.4952C108.348 42.4671 108.382 42.4448 108.418 42.4296C108.455 42.4143 108.494 42.4065 108.534 42.4065C108.573 42.4065 108.612 42.4143 108.649 42.4296C108.686 42.4448 108.719 42.4671 108.747 42.4952C108.802 42.5514 108.834 42.6275 108.834 42.7067C108.834 42.786 108.802 42.862 108.747 42.9182L101.4 50.2742C101.371 50.3031 101.336 50.3257 101.298 50.3407C101.259 50.3557 101.219 50.3626 101.178 50.3612Z" fill="#E0E0E0"/>
<path d="M123.243 50.3613H115.887C115.807 50.3613 115.731 50.3297 115.675 50.2734C115.619 50.2171 115.587 50.1408 115.587 50.0613V42.6963C115.587 42.6167 115.619 42.5404 115.675 42.4842C115.731 42.4279 115.807 42.3963 115.887 42.3963H123.243C123.322 42.3963 123.399 42.4279 123.455 42.4842C123.511 42.5404 123.543 42.6167 123.543 42.6963V50.0493C123.544 50.0897 123.538 50.13 123.524 50.1678C123.509 50.2056 123.487 50.2401 123.459 50.2692C123.431 50.2983 123.398 50.3215 123.361 50.3373C123.323 50.3532 123.283 50.3613 123.243 50.3613ZM116.187 49.7613H122.943V42.9963H116.187V49.7613Z" fill="#E0E0E0"/>
<path d="M115.887 50.3612C115.828 50.3604 115.771 50.3423 115.722 50.3093C115.674 50.2763 115.636 50.2298 115.613 50.1754C115.591 50.1212 115.585 50.0615 115.596 50.0038C115.608 49.9462 115.635 49.8931 115.677 49.8512L123.03 42.4952C123.057 42.4671 123.091 42.4448 123.127 42.4296C123.164 42.4143 123.203 42.4065 123.243 42.4065C123.282 42.4065 123.321 42.4143 123.358 42.4296C123.394 42.4448 123.428 42.4671 123.456 42.4952C123.511 42.5514 123.543 42.6275 123.543 42.7067C123.543 42.786 123.511 42.862 123.456 42.9182L116.1 50.2742C116.072 50.302 116.038 50.324 116.002 50.3389C115.965 50.3539 115.926 50.3614 115.887 50.3612Z" fill="#E0E0E0"/>
<path d="M71.7602 50.3612C71.7207 50.3614 71.6816 50.3539 71.645 50.3389C71.6085 50.324 71.5752 50.302 71.5472 50.2742C71.4913 50.218 71.46 50.1419 71.46 50.0627C71.46 49.9834 71.4913 49.9074 71.5472 49.8512L78.9002 42.4952C78.941 42.4523 78.9947 42.4239 79.0532 42.4142L115.83 35.0583C115.878 35.0486 115.928 35.051 115.975 35.0651C116.022 35.0792 116.065 35.1047 116.1 35.1393L130.8 49.8392C130.831 49.8661 130.857 49.8992 130.875 49.9364C130.893 49.9736 130.903 50.0142 130.905 50.0555C130.906 50.0968 130.899 50.138 130.884 50.1765C130.869 50.215 130.846 50.25 130.817 50.2792C130.788 50.3084 130.753 50.3313 130.714 50.3464C130.676 50.3615 130.634 50.3684 130.593 50.3668C130.552 50.3652 130.511 50.3551 130.474 50.3371C130.437 50.3191 130.404 50.2936 130.377 50.2622L115.8 35.6793L79.2632 42.9962L71.9702 50.2862C71.9124 50.3372 71.8372 50.3641 71.7602 50.3612Z" fill="#E0E0E0"/>
<path d="M93.8256 50.3612C93.7861 50.3614 93.747 50.3539 93.7105 50.3389C93.6739 50.324 93.6407 50.302 93.6126 50.2742C93.5568 50.218 93.5254 50.1419 93.5254 50.0627C93.5254 49.9834 93.5568 49.9074 93.6126 49.8512L100.969 42.4952C101.026 42.4461 101.1 42.4204 101.175 42.4233C101.251 42.4262 101.322 42.4575 101.376 42.511C101.429 42.5644 101.461 42.636 101.464 42.7115C101.466 42.787 101.441 42.8608 101.392 42.9182L94.0356 50.2742C93.9798 50.3296 93.9043 50.3609 93.8256 50.3612Z" fill="#E0E0E0"/>
<path d="M93.8259 50.3613H86.4699C86.3904 50.3613 86.314 50.3297 86.2578 50.2734C86.2015 50.2171 86.1699 50.1408 86.1699 50.0613V42.6963C86.1699 42.6167 86.2015 42.5404 86.2578 42.4842C86.314 42.4279 86.3904 42.3963 86.4699 42.3963H93.8259C93.9054 42.3963 93.9817 42.4279 94.038 42.4842C94.0943 42.5404 94.1259 42.6167 94.1259 42.6963V50.0493C94.1275 50.0897 94.1209 50.13 94.1066 50.1678C94.0922 50.2056 94.0704 50.2401 94.0424 50.2692C94.0143 50.2983 93.9807 50.3215 93.9435 50.3373C93.9063 50.3532 93.8663 50.3613 93.8259 50.3613ZM86.7699 49.7613H93.5259V42.9963H86.7699V49.7613Z" fill="#E0E0E0"/>
<path d="M86.4694 50.3613H79.1135C79.0339 50.3613 78.9576 50.3297 78.9013 50.2734C78.8451 50.2171 78.8135 50.1408 78.8135 50.0613V42.6963C78.8135 42.6167 78.8451 42.5404 78.9013 42.4842C78.9576 42.4279 79.0339 42.3963 79.1135 42.3963H86.4694C86.549 42.3963 86.6253 42.4279 86.6816 42.4842C86.7378 42.5404 86.7694 42.6167 86.7694 42.6963V50.0493C86.7711 50.0897 86.7645 50.13 86.7501 50.1678C86.7358 50.2056 86.7139 50.2401 86.6859 50.2692C86.6579 50.2983 86.6243 50.3215 86.5871 50.3373C86.5499 50.3532 86.5099 50.3613 86.4694 50.3613ZM79.4135 49.7613H86.1694V42.9963H79.4135V49.7613Z" fill="#E0E0E0"/>
<path d="M86.4692 50.3612C86.4297 50.3614 86.3906 50.3539 86.354 50.3389C86.3175 50.324 86.2842 50.302 86.2562 50.2742C86.2003 50.218 86.1689 50.1419 86.1689 50.0627C86.1689 49.9834 86.2003 49.9074 86.2562 49.8512L93.6001 42.4952C93.6575 42.4461 93.7314 42.4204 93.8069 42.4233C93.8824 42.4262 93.954 42.4575 94.0074 42.511C94.0608 42.5644 94.0921 42.636 94.0951 42.7115C94.098 42.787 94.0723 42.8608 94.0231 42.9182L86.6702 50.2742C86.6165 50.3275 86.5448 50.3586 86.4692 50.3612Z" fill="#E0E0E0"/>
<path d="M79.1132 50.3612C79.0544 50.3604 78.9973 50.3423 78.9487 50.3093C78.9001 50.2763 78.8623 50.2298 78.84 50.1754C78.8176 50.1212 78.8117 50.0615 78.8229 50.0038C78.8342 49.9462 78.8621 49.8931 78.9032 49.8512L86.2561 42.4952C86.284 42.4671 86.3172 42.4448 86.3538 42.4296C86.3903 42.4143 86.4295 42.4065 86.4691 42.4065C86.5087 42.4065 86.5479 42.4143 86.5845 42.4296C86.6211 42.4448 86.6542 42.4671 86.6821 42.4952C86.738 42.5514 86.7694 42.6275 86.7694 42.7067C86.7694 42.786 86.738 42.862 86.6821 42.9182L79.3262 50.2742C79.2981 50.302 79.2649 50.324 79.2283 50.3389C79.1918 50.3539 79.1526 50.3614 79.1132 50.3612Z" fill="#E0E0E0"/>
<path d="M79.1129 50.3613H71.76C71.6804 50.3613 71.6041 50.3297 71.5478 50.2734C71.4916 50.2171 71.46 50.1408 71.46 50.0613C71.46 49.9817 71.4916 49.9054 71.5478 49.8491C71.6041 49.7929 71.6804 49.7613 71.76 49.7613H78.8129V42.6963C78.8129 42.6167 78.8445 42.5404 78.9008 42.4842C78.9571 42.4279 79.0334 42.3963 79.1129 42.3963C79.1925 42.3963 79.2688 42.4279 79.3251 42.4842C79.3813 42.5404 79.4129 42.6167 79.4129 42.6963V50.0493C79.4145 50.0897 79.408 50.13 79.3936 50.1678C79.3793 50.2056 79.3574 50.2401 79.3294 50.2692C79.3014 50.2983 79.2678 50.3215 79.2306 50.3373C79.1934 50.3532 79.1533 50.3613 79.1129 50.3613Z" fill="#E0E0E0"/>
<path d="M115.887 74.9311C115.808 74.9308 115.732 74.8995 115.677 74.8441L108.321 67.4912C108.293 67.4632 108.27 67.43 108.255 67.3934C108.24 67.3569 108.232 67.3177 108.232 67.2782C108.232 67.2386 108.24 67.1994 108.255 67.1629C108.27 67.1263 108.293 67.0931 108.321 67.0652C108.349 67.0372 108.382 67.015 108.418 66.9999C108.455 66.9847 108.494 66.9769 108.534 66.9769C108.573 66.9769 108.612 66.9847 108.649 66.9999C108.685 67.015 108.719 67.0372 108.747 67.0652L116.1 74.4211C116.155 74.4773 116.187 74.5534 116.187 74.6326C116.187 74.7119 116.155 74.7879 116.1 74.8441C116.072 74.8719 116.038 74.8939 116.002 74.9088C115.965 74.9238 115.926 74.9313 115.887 74.9311Z" fill="#E0E0E0"/>
<path d="M115.886 67.5781H108.533C108.454 67.5781 108.378 67.5465 108.321 67.4902C108.265 67.434 108.233 67.3577 108.233 67.2781V59.9221C108.233 59.8426 108.265 59.7663 108.321 59.71C108.378 59.6537 108.454 59.6221 108.533 59.6221H115.886C115.966 59.6221 116.042 59.6537 116.098 59.71C116.155 59.7663 116.186 59.8426 116.186 59.9221V67.2781C116.186 67.3577 116.155 67.434 116.098 67.4902C116.042 67.5465 115.966 67.5781 115.886 67.5781ZM108.833 66.9781H115.586V60.2221H108.833V66.9781Z" fill="#E0E0E0"/>
<path d="M115.886 60.2222H108.533C108.454 60.2222 108.378 60.1906 108.321 60.1343C108.265 60.0781 108.233 60.0017 108.233 59.9222V52.5692C108.233 52.4897 108.265 52.4134 108.321 52.3571C108.378 52.3008 108.454 52.2692 108.533 52.2692H115.886C115.966 52.2692 116.042 52.3008 116.098 52.3571C116.155 52.4134 116.186 52.4897 116.186 52.5692V59.9222C116.186 60.0017 116.155 60.0781 116.098 60.1343C116.042 60.1906 115.966 60.2222 115.886 60.2222ZM108.833 59.6222H115.586V52.8692H108.833V59.6222Z" fill="#E0E0E0"/>
<path d="M115.887 67.5781C115.808 67.5778 115.732 67.5465 115.677 67.4911L108.321 60.1351C108.293 60.1072 108.27 60.074 108.255 60.0374C108.24 60.0009 108.232 59.9617 108.232 59.9221C108.232 59.8826 108.24 59.8434 108.255 59.8069C108.27 59.7703 108.293 59.7371 108.321 59.7091C108.349 59.6812 108.382 59.659 108.418 59.6438C108.455 59.6287 108.494 59.6209 108.534 59.6209C108.573 59.6209 108.612 59.6287 108.649 59.6438C108.685 59.659 108.719 59.6812 108.747 59.7091L116.1 67.0651C116.142 67.1071 116.171 67.1607 116.182 67.2191C116.194 67.2775 116.188 67.3381 116.165 67.3931C116.143 67.4482 116.104 67.4952 116.054 67.5281C116.005 67.561 115.946 67.5784 115.887 67.5781Z" fill="#E0E0E0"/>
<path d="M115.887 60.2222C115.808 60.2218 115.732 60.1906 115.677 60.1352L108.321 52.7792C108.265 52.723 108.233 52.6469 108.233 52.5677C108.233 52.4884 108.265 52.4124 108.321 52.3562C108.349 52.3281 108.382 52.3058 108.418 52.2905C108.455 52.2753 108.494 52.2675 108.534 52.2675C108.573 52.2675 108.612 52.2753 108.649 52.2905C108.686 52.3058 108.719 52.3281 108.747 52.3562L116.1 59.7092C116.142 59.7511 116.171 59.8047 116.182 59.8631C116.194 59.9216 116.188 59.9822 116.165 60.0372C116.143 60.0922 116.104 60.1392 116.054 60.1722C116.005 60.2051 115.946 60.2225 115.887 60.2222Z" fill="#E0E0E0"/>
<path d="M130.598 50.0612H71.7598L79.1127 52.5691H130.598V50.0612Z" fill="#E0E0E0"/>
<path d="M130.599 52.8691H79.1135C79.0807 52.869 79.0482 52.8629 79.0175 52.8511L71.6616 50.3462C71.5933 50.3238 71.5354 50.2776 71.4982 50.2161C71.4611 50.1546 71.4473 50.0819 71.4593 50.0111C71.4713 49.9402 71.5083 49.8761 71.5636 49.8302C71.6188 49.7843 71.6887 49.7598 71.7606 49.7612H130.599C130.679 49.7612 130.755 49.7928 130.811 49.849C130.868 49.9053 130.899 49.9816 130.899 50.0612V52.5691C130.899 52.6487 130.868 52.725 130.811 52.7813C130.755 52.8375 130.679 52.8691 130.599 52.8691ZM79.1645 52.2691H130.299V50.3612H73.5695L79.1645 52.2691Z" fill="#E0E0E0"/>
<path d="M103.088 62.8861H108.533V51.3152H103.088V62.8861Z" fill="#E0E0E0"/>
<path d="M103.085 51.3152H100.553V62.8861H103.085V51.3152Z" fill="#F5F5F5"/>
<path d="M109.344 116.613H120.066V111.405H109.344V116.613Z" fill="#E0E0E0"/>
<path d="M109.343 111.408H104.354V116.616H109.343V111.408Z" fill="#F5F5F5"/>
<path d="M123.242 62.9881C123.163 62.9881 123.087 62.9565 123.03 62.9003C122.974 62.844 122.942 62.7677 122.942 62.6881V51.3152C122.942 51.2356 122.974 51.1593 123.03 51.1031C123.087 51.0468 123.163 51.0152 123.242 51.0152C123.322 51.0152 123.398 51.0468 123.455 51.1031C123.511 51.1593 123.542 51.2356 123.542 51.3152V62.6881C123.542 62.7677 123.511 62.844 123.455 62.9003C123.398 62.9565 123.322 62.9881 123.242 62.9881Z" fill="#E0E0E0"/>
<path d="M123.243 64.3682C123.047 64.3682 122.856 64.3101 122.693 64.2013C122.53 64.0925 122.403 63.9379 122.328 63.757C122.253 63.5761 122.234 63.3771 122.272 63.185C122.31 62.993 122.404 62.8166 122.543 62.6781C122.681 62.5397 122.858 62.4454 123.05 62.4072C123.242 62.369 123.441 62.3886 123.622 62.4635C123.803 62.5385 123.957 62.6654 124.066 62.8282C124.175 62.991 124.233 63.1824 124.233 63.3782C124.233 63.5082 124.207 63.6369 124.158 63.757C124.108 63.8771 124.035 63.9863 123.943 64.0782C123.851 64.1701 123.742 64.2431 123.622 64.2928C123.502 64.3426 123.373 64.3682 123.243 64.3682ZM123.243 62.9882C123.166 62.9882 123.09 63.0111 123.026 63.0539C122.962 63.0968 122.912 63.1577 122.883 63.2289C122.853 63.3002 122.845 63.3786 122.86 63.4543C122.875 63.5299 122.913 63.5994 122.967 63.6539C123.022 63.7085 123.091 63.7456 123.167 63.7607C123.242 63.7757 123.321 63.768 123.392 63.7385C123.463 63.709 123.524 63.659 123.567 63.5948C123.61 63.5307 123.633 63.4553 123.633 63.3782C123.633 63.327 123.623 63.2762 123.603 63.2289C123.584 63.1816 123.555 63.1386 123.519 63.1024C123.482 63.0662 123.439 63.0375 123.392 63.0179C123.345 62.9983 123.294 62.9882 123.243 62.9882Z" fill="#E0E0E0"/>
<path d="M80.0373 68.9581C79.9577 68.9581 79.8814 68.9265 79.8252 68.8702C79.7689 68.814 79.7373 68.7377 79.7373 68.6581V51.3152C79.7373 51.2356 79.7689 51.1593 79.8252 51.1031C79.8814 51.0468 79.9577 51.0152 80.0373 51.0152C80.1169 51.0152 80.1932 51.0468 80.2494 51.1031C80.3057 51.1593 80.3373 51.2356 80.3373 51.3152V68.6581C80.3373 68.7377 80.3057 68.814 80.2494 68.8702C80.1932 68.9265 80.1169 68.9581 80.0373 68.9581Z" fill="#E0E0E0"/>
<path d="M82.8542 70.7551C82.7827 70.7561 82.7132 70.7316 82.6582 70.686C82.6032 70.6403 82.5664 70.5765 82.5542 70.5061C82.3322 70.1581 80.3792 69.0061 80.0222 68.9581C79.6862 69.0031 77.7332 70.1581 77.5112 70.5061C77.5045 70.5857 77.4664 70.6593 77.4053 70.7108C77.3443 70.7622 77.2653 70.7874 77.1857 70.7806C77.1062 70.7738 77.0326 70.7357 76.9811 70.6747C76.9296 70.6137 76.9045 70.5347 76.9112 70.4551C76.9112 69.7801 79.6322 68.3551 80.0252 68.3551C80.4182 68.3551 83.1422 69.7771 83.1422 70.4551C83.1423 70.5326 83.1123 70.6072 83.0586 70.6631C83.0049 70.719 82.9317 70.752 82.8542 70.7551Z" fill="#E0E0E0"/>
<path d="M86.0997 92.439L90.5007 88.038L89.5617 86.238C89.6427 86.058 89.7177 85.878 89.7867 85.692L91.7157 85.092V78.876L89.7867 78.276C89.7147 78.093 89.6427 77.91 89.5617 77.73L90.4977 75.93L86.0997 71.5381L84.2998 72.4741C84.1198 72.3931 83.9398 72.3181 83.7568 72.2491L83.1568 70.3201H76.9258L76.3258 72.2491C76.1428 72.3181 75.9628 72.3931 75.7828 72.4741L73.9828 71.5381L69.5998 75.936L70.5388 77.736C70.4548 77.916 70.3828 78.099 70.3108 78.282L68.3818 78.882V85.104L70.3108 85.704C70.3828 85.89 70.4548 86.07 70.5358 86.25L69.5998 88.05L74.0008 92.451L75.8008 91.512C75.9808 91.593 76.1638 91.668 76.3468 91.737L76.9468 93.6659H83.1718L83.7718 91.737C83.9548 91.668 84.1348 91.593 84.3148 91.512L86.0997 92.439ZM83.3248 85.26C82.6771 85.908 81.8517 86.3494 80.9531 86.5283C80.0546 86.7072 79.1231 86.6156 78.2766 86.2651C77.4301 85.9146 76.7065 85.3209 76.1975 84.5591C75.6884 83.7974 75.4167 82.9017 75.4167 81.9855C75.4167 81.0693 75.6884 80.1737 76.1975 79.4119C76.7065 78.6501 77.4301 78.0564 78.2766 77.7059C79.1231 77.3554 80.0546 77.2638 80.9531 77.4427C81.8517 77.6216 82.6771 78.063 83.3248 78.711C83.7546 79.1415 84.0952 79.6525 84.3273 80.2148C84.5593 80.7771 84.6782 81.3797 84.6771 81.988C84.676 82.5963 84.5549 83.1984 84.3208 83.7599C84.0867 84.3213 83.7441 84.8311 83.3128 85.26H83.3248Z" fill="#E0E0E0"/>
<path d="M74.9997 130.164C107.124 130.164 133.166 128.643 133.166 126.768C133.166 124.892 107.124 123.372 74.9997 123.372C42.8751 123.372 16.833 124.892 16.833 126.768C16.833 128.643 42.8751 130.164 74.9997 130.164Z" fill="#F5F5F5"/>
<path d="M52.7683 50.8411H49.0243C48.8532 50.8413 48.685 50.8862 48.5366 50.9715C48.3882 51.0568 48.2647 51.1794 48.1783 51.3271L46.3063 54.5701C46.2208 54.7189 46.1758 54.8875 46.1758 55.0591C46.1758 55.2307 46.2208 55.3993 46.3063 55.5481L48.1783 58.7881C48.2639 58.9368 48.3871 59.0604 48.5357 59.1462C48.6842 59.2321 48.8528 59.2772 49.0243 59.2771H52.7683C52.9399 59.2772 53.1085 59.2321 53.257 59.1462C53.4055 59.0604 53.5288 58.9368 53.6143 58.7881L55.4863 55.5481C55.5718 55.3993 55.6169 55.2307 55.6169 55.0591C55.6169 54.8875 55.5718 54.7189 55.4863 54.5701L53.6143 51.3271C53.5279 51.1794 53.4044 51.0568 53.256 50.9715C53.1076 50.8862 52.9395 50.8413 52.7683 50.8411Z" fill="#407BFF"/>
<path opacity="0.5" d="M52.7683 50.8411H49.0243C48.8532 50.8413 48.685 50.8862 48.5366 50.9715C48.3882 51.0568 48.2647 51.1794 48.1783 51.3271L46.3063 54.5701C46.2208 54.7189 46.1758 54.8875 46.1758 55.0591C46.1758 55.2307 46.2208 55.3993 46.3063 55.5481L48.1783 58.7881C48.2639 58.9368 48.3871 59.0604 48.5357 59.1462C48.6842 59.2321 48.8528 59.2772 49.0243 59.2771H52.7683C52.9399 59.2772 53.1085 59.2321 53.257 59.1462C53.4055 59.0604 53.5288 58.9368 53.6143 58.7881L55.4863 55.5481C55.5718 55.3993 55.6169 55.2307 55.6169 55.0591C55.6169 54.8875 55.5718 54.7189 55.4863 54.5701L53.6143 51.3271C53.5279 51.1794 53.4044 51.0568 53.256 50.9715C53.1076 50.8862 52.9395 50.8413 52.7683 50.8411Z" fill="white"/>
<path d="M28.8019 40.0952L28.5889 39.8822L30.3889 38.0822L30.6019 38.2952L28.8019 40.0952ZM31.9009 36.9962L31.6879 36.7832L35.4498 33.0212L35.6628 33.2312L31.9009 36.9962Z" fill="#407BFF"/>
<path opacity="0.5" d="M28.8019 40.0952L28.5889 39.8822L30.3889 38.0822L30.6019 38.2952L28.8019 40.0952ZM31.9009 36.9962L31.6879 36.7832L35.4498 33.0212L35.6628 33.2312L31.9009 36.9962Z" fill="white"/>
<path d="M76.3511 61.8481V48.2702L72.1512 46.9532C72.0012 46.5512 71.8362 46.1552 71.6622 45.7532L73.7052 41.8532L64.1052 32.2532L60.2052 34.2992C59.8122 34.1222 59.4192 33.9572 59.0052 33.8042L57.6882 29.6042H44.1013L42.7873 33.8042C42.3823 33.9572 41.9893 34.1222 41.5873 34.2992L37.6873 32.2532L28.0874 41.8532L30.1334 45.7532C29.9564 46.1462 29.7914 46.5392 29.6414 46.9532L25.4414 48.2702V61.8481L29.6414 63.1621C29.7944 63.5641 29.9594 63.9601 30.1334 64.3621L28.0874 68.262L37.6873 77.862L41.5873 75.816C41.9773 75.993 42.3703 76.158 42.7873 76.311L44.1013 80.511H57.6792L58.9962 76.311C59.3982 76.158 59.7912 75.993 60.1962 75.816L64.0962 77.862L73.6962 68.262L71.6502 64.3621C71.8242 63.9721 71.9922 63.5761 72.1422 63.1621L76.3511 61.8481ZM61.0002 55.0561C61.0002 57.0545 60.4076 59.008 59.2974 60.6696C58.1872 62.3312 56.6091 63.6262 54.7629 64.3909C52.9166 65.1557 50.8851 65.3558 48.9251 64.9659C46.9651 64.5761 45.1648 63.6137 43.7517 62.2007C42.3386 60.7876 41.3763 58.9873 40.9865 57.0273C40.5966 55.0673 40.7967 53.0358 41.5614 51.1895C42.3262 49.3432 43.6212 47.7652 45.2828 46.655C46.9444 45.5448 48.8979 44.9522 50.8963 44.9522C53.5758 44.953 56.1453 46.0177 58.04 47.9124C59.9347 49.8071 60.9994 52.3766 61.0002 55.0561Z" fill="#407BFF"/>
<path opacity="0.5" d="M76.3511 61.8481V48.2702L72.1512 46.9532C72.0012 46.5512 71.8362 46.1552 71.6622 45.7532L73.7052 41.8532L64.1052 32.2532L60.2052 34.2992C59.8122 34.1222 59.4192 33.9572 59.0052 33.8042L57.6882 29.6042H44.1013L42.7873 33.8042C42.3823 33.9572 41.9893 34.1222 41.5873 34.2992L37.6873 32.2532L28.0874 41.8532L30.1334 45.7532C29.9564 46.1462 29.7914 46.5392 29.6414 46.9532L25.4414 48.2702V61.8481L29.6414 63.1621C29.7944 63.5641 29.9594 63.9601 30.1334 64.3621L28.0874 68.262L37.6873 77.862L41.5873 75.816C41.9773 75.993 42.3703 76.158 42.7873 76.311L44.1013 80.511H57.6792L58.9962 76.311C59.3982 76.158 59.7912 75.993 60.1962 75.816L64.0962 77.862L73.6962 68.262L71.6502 64.3621C71.8242 63.9721 71.9922 63.5761 72.1422 63.1621L76.3511 61.8481ZM61.0002 55.0561C61.0002 57.0545 60.4076 59.008 59.2974 60.6696C58.1872 62.3312 56.6091 63.6262 54.7629 64.3909C52.9166 65.1557 50.8851 65.3558 48.9251 64.9659C46.9651 64.5761 45.1648 63.6137 43.7517 62.2007C42.3386 60.7876 41.3763 58.9873 40.9865 57.0273C40.5966 55.0673 40.7967 53.0358 41.5614 51.1895C42.3262 49.3432 43.6212 47.7652 45.2828 46.655C46.9444 45.5448 48.8979 44.9522 50.8963 44.9522C53.5758 44.953 56.1453 46.0177 58.04 47.9124C59.9347 49.8071 60.9994 52.3766 61.0002 55.0561Z" fill="white"/>
<path d="M57.0262 79.689H44.7713C44.755 79.689 44.7393 79.6838 44.7263 79.674C44.7133 79.6643 44.7038 79.6506 44.6993 79.635L43.4993 75.849C43.4933 75.8299 43.4952 75.8093 43.5045 75.7915C43.5137 75.7738 43.5297 75.7605 43.5488 75.7545C43.5679 75.7486 43.5886 75.7504 43.6063 75.7597C43.624 75.769 43.6373 75.7849 43.6433 75.804L44.8103 79.539H56.9542L58.2022 75.597C58.2058 75.5862 58.2116 75.5763 58.2194 75.5681C58.2272 75.5598 58.2367 75.5533 58.2472 75.549L58.6582 75.396C59.0062 75.264 59.3752 75.111 59.7922 74.925L60.1912 74.745C60.2095 74.7371 60.2302 74.7367 60.2488 74.744C60.2673 74.7514 60.2822 74.7657 60.2902 74.784C60.2982 74.8023 60.2985 74.823 60.2912 74.8416C60.2839 74.8602 60.2695 74.8751 60.2512 74.883L59.8522 75.06C59.4352 75.249 59.0602 75.402 58.7122 75.534L58.3342 75.678L57.0982 79.635C57.0933 79.6503 57.0837 79.6638 57.0708 79.6734C57.0579 79.6831 57.0423 79.6886 57.0262 79.689ZM63.9262 76.83C63.9063 76.8294 63.8872 76.822 63.8722 76.809C63.8649 76.802 63.8591 76.7936 63.8552 76.7844C63.8513 76.7751 63.8492 76.7651 63.8492 76.755C63.8492 76.7449 63.8513 76.735 63.8552 76.7257C63.8591 76.7164 63.8649 76.708 63.8722 76.701L72.5001 68.0761L70.5831 64.4161C70.5779 64.4059 70.5751 64.3946 70.5751 64.3831C70.5751 64.3716 70.5779 64.3603 70.5831 64.3501L70.7631 63.9511C70.9431 63.5461 71.0961 63.1741 71.2311 62.8201L71.3841 62.4091C71.3884 62.3986 71.3949 62.3891 71.4032 62.3813C71.4115 62.3735 71.4213 62.3677 71.4321 62.3641L75.3771 61.1311V48.9962L71.4771 47.7782C71.4664 47.7766 71.4561 47.7727 71.447 47.7667C71.4379 47.7608 71.4302 47.7529 71.4244 47.7437C71.4186 47.7345 71.415 47.7241 71.4136 47.7133C71.4123 47.7025 71.4133 47.6915 71.4166 47.6812C71.4199 47.6708 71.4254 47.6613 71.4328 47.6533C71.4401 47.6453 71.4491 47.6389 71.4592 47.6347C71.4692 47.6306 71.4801 47.6286 71.4909 47.629C71.5018 47.6294 71.5124 47.6322 71.5221 47.6372L75.4641 48.8672C75.4789 48.8726 75.4917 48.8824 75.5008 48.8953C75.5099 48.9081 75.5149 48.9234 75.5151 48.9392V61.1941C75.5153 61.21 75.5105 61.2255 75.5013 61.2384C75.4922 61.2513 75.4791 61.261 75.4641 61.2661L71.5131 62.4961L71.3721 62.8741C71.2371 63.2311 71.0721 63.6031 70.8981 64.0141L70.7361 64.3801L72.6591 68.0551C72.6686 68.0676 72.6738 68.0829 72.6738 68.0986C72.6738 68.1143 72.6686 68.1296 72.6591 68.1421L63.9952 76.809C63.9767 76.8243 63.9531 76.8318 63.9292 76.83H63.9262ZM37.8653 76.83C37.8454 76.8294 37.8264 76.822 37.8113 76.809L29.1474 68.1421C29.1387 68.1292 29.1341 68.1141 29.1341 68.0986C29.1341 68.0831 29.1387 68.0679 29.1474 68.0551L31.0883 64.3471C31.0979 64.3296 31.1138 64.3164 31.1328 64.3103C31.1517 64.3042 31.1723 64.3055 31.1903 64.3141C31.199 64.3188 31.2067 64.3252 31.2129 64.3329C31.2191 64.3405 31.2238 64.3494 31.2265 64.3589C31.2293 64.3683 31.2302 64.3783 31.2292 64.3881C31.2281 64.3979 31.2251 64.4074 31.2203 64.4161L29.3064 68.0761L37.9313 76.701C37.9386 76.708 37.9443 76.7164 37.9483 76.7257C37.9522 76.735 37.9543 76.7449 37.9543 76.755C37.9543 76.7651 37.9522 76.7751 37.9483 76.7844C37.9443 76.7936 37.9386 76.802 37.9313 76.809C37.9228 76.8166 37.9128 76.8224 37.902 76.826C37.8911 76.8296 37.8797 76.831 37.8683 76.83H37.8653ZM42.9653 75.483H42.9383C42.6383 75.366 42.3113 75.228 41.9483 75.066C41.9377 75.0634 41.9278 75.0584 41.9192 75.0516C41.9107 75.0447 41.9038 75.036 41.899 75.0262C41.8942 75.0163 41.8916 75.0056 41.8914 74.9946C41.8912 74.9837 41.8934 74.9728 41.8979 74.9628C41.9023 74.9528 41.9089 74.9439 41.9172 74.9367C41.9254 74.9295 41.9352 74.9242 41.9457 74.9212C41.9562 74.9182 41.9673 74.9175 41.9781 74.9192C41.9889 74.9209 41.9992 74.9249 42.0083 74.931C42.3683 75.09 42.6893 75.231 42.9923 75.342C43.0016 75.3457 43.0102 75.3511 43.0174 75.3581C43.0246 75.3651 43.0303 75.3734 43.0342 75.3827C43.0381 75.3919 43.0401 75.4018 43.0402 75.4118C43.0402 75.4219 43.0382 75.4318 43.0343 75.441C43.028 75.4552 43.0173 75.4669 43.0037 75.4745C42.9902 75.482 42.9746 75.485 42.9593 75.483H42.9653ZM50.9032 66.1411C47.963 66.1355 45.1451 64.9636 43.068 62.8826C40.9909 60.8015 39.8243 57.9814 39.8243 55.0411C39.8243 55.0212 39.8322 55.0022 39.8463 54.9881C39.8603 54.974 39.8794 54.9661 39.8993 54.9661C39.9192 54.9661 39.9383 54.974 39.9523 54.9881C39.9664 55.0022 39.9743 55.0212 39.9743 55.0411C39.9743 57.2027 40.6153 59.3157 41.8162 61.1129C43.017 62.9102 44.7239 64.311 46.7209 65.1382C48.7179 65.9654 50.9154 66.1818 53.0354 65.7601C55.1554 65.3384 57.1027 64.2975 58.6312 62.7691C60.1596 61.2406 61.2005 59.2933 61.6222 57.1733C62.0439 55.0533 61.8275 52.8558 61.0003 50.8588C60.1731 48.8618 58.7723 47.1549 56.975 45.9541C55.1778 44.7532 53.0648 44.1122 50.9032 44.1122C50.8834 44.1122 50.8643 44.1043 50.8502 44.0902C50.8361 44.0762 50.8282 44.0571 50.8282 44.0372C50.8282 44.0173 50.8361 43.9982 50.8502 43.9842C50.8643 43.9701 50.8834 43.9622 50.9032 43.9622C53.8424 43.9622 56.6611 45.1298 58.7394 47.208C60.8176 49.2863 61.9852 52.105 61.9852 55.0441C61.9852 57.9833 60.8176 60.802 58.7394 62.8803C56.6611 64.9585 53.8424 66.1261 50.9032 66.1261V66.1411ZM30.5034 62.9221C30.4877 62.9215 30.4726 62.9163 30.4598 62.9073C30.447 62.8982 30.4371 62.8857 30.4314 62.8711L30.2904 62.4961L26.3274 61.2571C26.3124 61.252 26.2993 61.2423 26.2902 61.2294C26.281 61.2165 26.2762 61.201 26.2764 61.1851V48.9302C26.2766 48.9144 26.2816 48.8991 26.2907 48.8863C26.2998 48.8734 26.3126 48.8636 26.3274 48.8582L30.1164 47.6762C30.1355 47.6704 30.1561 47.6721 30.1739 47.681C30.1918 47.69 30.2055 47.7054 30.2124 47.7242C30.2173 47.7437 30.2148 47.7643 30.2053 47.782C30.1959 47.7997 30.1802 47.8133 30.1614 47.8202L26.4174 48.9962V61.1401L30.3624 62.3731C30.3729 62.3764 30.3825 62.3823 30.3903 62.3901C30.3982 62.3979 30.404 62.4075 30.4074 62.4181L30.5634 62.8291C30.5703 62.8474 30.5697 62.8677 30.5619 62.8857C30.554 62.9036 30.5395 62.9177 30.5214 62.9251L30.5034 62.9221ZM30.5034 47.3222H30.4764C30.458 47.3142 30.4434 47.2995 30.4356 47.2811C30.4277 47.2626 30.4273 47.2419 30.4344 47.2232C30.5784 46.8392 30.7343 46.4732 30.8993 46.1012C30.9078 46.0834 30.9229 46.0696 30.9415 46.0629C30.96 46.0561 30.9804 46.057 30.9983 46.0652C31.0074 46.0691 31.0156 46.0748 31.0225 46.0819C31.0294 46.089 31.0348 46.0974 31.0384 46.1066C31.0421 46.1158 31.0438 46.1256 31.0437 46.1355C31.0435 46.1454 31.0413 46.1551 31.0373 46.1642C30.8693 46.5302 30.7194 46.8962 30.5754 47.2772C30.5701 47.2935 30.5596 47.3076 30.5455 47.3174C30.5314 47.3272 30.5145 47.332 30.4974 47.3312L30.5034 47.3222ZM70.7601 45.6092H70.7241C70.7155 45.6045 70.7078 45.5981 70.7016 45.5904C70.6954 45.5827 70.6907 45.5739 70.6879 45.5644C70.6852 45.5549 70.6843 45.545 70.6853 45.5352C70.6864 45.5254 70.6894 45.5158 70.6941 45.5072L72.4941 42.0422L71.0541 40.5962C71.0455 40.5898 71.0384 40.5815 71.0333 40.5721C71.0281 40.5627 71.0251 40.5522 71.0243 40.5415C71.0236 40.5308 71.0251 40.5201 71.0289 40.51C71.0326 40.4999 71.0385 40.4908 71.0461 40.4832C71.0537 40.4756 71.0629 40.4697 71.0729 40.4659C71.083 40.4622 71.0937 40.4606 71.1045 40.4614C71.1152 40.4622 71.1256 40.4652 71.135 40.4704C71.1445 40.4755 71.1527 40.4826 71.1591 40.4912L72.6591 41.9912C72.6686 42.0037 72.6738 42.019 72.6738 42.0347C72.6738 42.0504 72.6686 42.0657 72.6591 42.0782L70.8201 45.5912C70.8122 45.6008 70.8021 45.6083 70.7906 45.613C70.779 45.6177 70.7665 45.6195 70.7541 45.6182L70.7601 45.6092ZM29.2014 42.0962C29.1813 42.0964 29.162 42.0889 29.1474 42.0752C29.1343 42.0608 29.127 42.0421 29.127 42.0227C29.127 42.0033 29.1343 41.9846 29.1474 41.9702L37.8023 33.3093C37.8146 33.2993 37.83 33.2938 37.8458 33.2938C37.8617 33.2938 37.877 33.2993 37.8893 33.3093L41.5643 35.2322L41.9303 35.0702C42.2843 34.9112 42.6083 34.7702 42.9203 34.6532C42.9295 34.6494 42.9395 34.6474 42.9495 34.6474C42.9595 34.6474 42.9694 34.6494 42.9787 34.6533C42.9879 34.6572 42.9962 34.663 43.0032 34.6702C43.0102 34.6774 43.0157 34.6859 43.0193 34.6952C43.026 34.7139 43.0251 34.7346 43.0167 34.7526C43.0082 34.7706 42.993 34.7845 42.9743 34.7912C42.6743 34.9142 42.3443 35.0492 41.9933 35.2052L41.5943 35.3852C41.5839 35.3897 41.5726 35.392 41.5613 35.392C41.55 35.392 41.5387 35.3897 41.5283 35.3852L37.8683 33.4682L29.2554 42.0962C29.238 42.1032 29.2187 42.1032 29.2014 42.0962ZM69.8572 39.3602C69.8371 39.3604 69.8178 39.3529 69.8031 39.3392L63.9022 33.4533L60.2422 35.3702C60.2325 35.3755 60.2217 35.3782 60.2107 35.3782C60.1997 35.3782 60.1889 35.3755 60.1792 35.3702L59.7802 35.1902C59.3692 35.0072 58.9972 34.8542 58.6462 34.7192L58.2352 34.5662C58.2247 34.562 58.2152 34.5555 58.2074 34.5472C58.1996 34.5389 58.1938 34.529 58.1902 34.5182L56.9572 30.5763H44.8253L43.7633 33.9692C43.7606 33.9787 43.756 33.9874 43.7497 33.995C43.7435 34.0026 43.7358 34.0088 43.7271 34.0133C43.7184 34.0178 43.7089 34.0204 43.6991 34.0211C43.6893 34.0218 43.6795 34.0205 43.6703 34.0172C43.6517 34.0111 43.6363 33.9979 43.6274 33.9805C43.6184 33.9631 43.6166 33.9429 43.6223 33.9242L44.7023 30.4803C44.7073 30.4652 44.7171 30.4522 44.73 30.4431C44.7429 30.4339 44.7584 30.4291 44.7743 30.4293H57.0292C57.045 30.4295 57.0603 30.4345 57.0731 30.4436C57.086 30.4527 57.0958 30.4655 57.1012 30.4803L58.3372 34.4402L58.7152 34.5842C59.0692 34.7162 59.4412 34.8842 59.8552 35.0582L60.2212 35.2202L63.9022 33.2973C63.9147 33.2878 63.93 33.2826 63.9457 33.2826C63.9614 33.2826 63.9767 33.2878 63.9892 33.2973L69.9021 39.2372C69.9094 39.2442 69.9152 39.2526 69.9191 39.2619C69.9231 39.2712 69.9251 39.2811 69.9251 39.2912C69.9251 39.3013 69.9231 39.3113 69.9191 39.3206C69.9152 39.3298 69.9094 39.3382 69.9021 39.3452C69.8898 39.3569 69.874 39.3643 69.8572 39.3662V39.3602Z" fill="#FAFAFA"/>
<path d="M94.0035 57.5132C94.9425 58.7132 95.8215 59.9132 96.6795 61.1522C97.5375 62.3912 98.3535 63.6572 99.1245 64.9771C99.3194 65.3041 99.5054 65.6461 99.6944 65.9821C99.9672 66.4912 100.128 67.0528 100.165 67.6291C100.215 68.5039 100.13 69.381 99.9134 70.2301C99.5401 71.7569 98.9735 73.2297 98.2275 74.6131L96.6825 74.0131C96.9892 72.628 97.2106 71.2254 97.3455 69.8131C97.4052 69.2031 97.385 68.5879 97.2855 67.9831C97.2609 67.8152 97.1983 67.6551 97.1025 67.5151C96.9045 67.2151 96.7125 66.9151 96.5025 66.6151C95.6895 65.4151 94.8285 64.2421 93.9615 63.0632L91.3545 59.5292L94.0035 57.5132Z" fill="#FF8B7B"/>
<path d="M96.5744 73.839L95.7764 75.267L98.5604 75.678C98.5604 75.678 98.8604 74.478 98.1614 73.65L96.5744 73.839Z" fill="#FF8B7B"/>
<path d="M95.3564 77.166L97.6754 77.4L98.5604 75.678L95.7764 75.267L95.3564 77.166Z" fill="#FF8B7B"/>
<path d="M102.901 85.686L103.729 81.279C103.825 80.7678 104.12 80.3155 104.549 80.0214C104.978 79.7273 105.506 79.6153 106.018 79.71L112.969 81.012C112.554 79.6233 111.817 78.3524 110.817 77.3032C109.817 76.254 108.583 75.4564 107.216 74.9754C105.848 74.4944 104.387 74.3437 102.95 74.5357C101.514 74.7277 100.143 75.2569 98.9499 76.0801L67.4141 57.4142C67.5779 55.4407 67.0997 53.4671 66.0505 51.7876C65.0014 50.108 63.4376 48.8125 61.5923 48.0941C59.747 47.3756 57.7189 47.2728 55.8103 47.8008C53.9017 48.3288 52.2149 49.4594 51.0012 51.0242L57.9521 52.3262C58.4627 52.4244 58.9138 52.7204 59.2071 53.1497C59.5004 53.579 59.6122 54.1068 59.5181 54.6182L58.6901 59.0281C58.5933 59.539 58.2982 59.9908 57.8693 60.2848C57.4404 60.5788 56.9126 60.6911 56.4012 60.5971L49.4502 59.2921C49.8667 60.6894 50.6098 61.9674 51.618 63.0205C52.6262 64.0736 53.8707 64.8717 55.2484 65.3486C56.6262 65.8255 58.0976 65.9677 59.5412 65.7633C60.9848 65.5589 62.3589 65.0138 63.5501 64.1731L95.023 82.803C94.8414 84.7807 95.3057 86.7639 96.3462 88.4555C97.3868 90.1471 98.9475 91.4559 100.794 92.1858C102.641 92.9156 104.675 93.0273 106.591 92.504C108.507 91.9806 110.201 90.8505 111.421 89.283L104.47 87.978C103.959 87.8804 103.507 87.5847 103.213 87.1553C102.919 86.726 102.807 86.1978 102.901 85.686Z" fill="#407BFF"/>
<path d="M95.0473 75.9666L69.4783 60.8331C69.0135 60.558 68.4137 60.7118 68.1386 61.1766L67.0965 62.9373C66.8214 63.4021 66.9752 64.0019 67.44 64.2771L93.0089 79.4105C93.4737 79.6857 94.0736 79.5319 94.3487 79.067L95.3908 77.3063C95.6659 76.8415 95.5121 76.2417 95.0473 75.9666Z" fill="#407BFF"/>
<path opacity="0.2" d="M95.0473 75.9666L69.4783 60.8331C69.0135 60.558 68.4137 60.7118 68.1386 61.1766L67.0965 62.9373C66.8214 63.4021 66.9752 64.0019 67.44 64.2771L93.0089 79.4105C93.4737 79.6857 94.0736 79.5319 94.3487 79.067L95.3908 77.3063C95.6659 76.8415 95.5121 76.2417 95.0473 75.9666Z" fill="white"/>
<path d="M83.3231 48.1892C83.2931 48.3662 83.1791 48.4892 83.0651 48.4892C82.9511 48.4892 82.8791 48.3122 82.9061 48.1382C82.9331 47.9642 83.0501 47.8382 83.1641 47.8532C83.2781 47.8682 83.3501 48.0152 83.3231 48.1892Z" fill="#263238"/>
<path d="M83.1941 48.4951C82.9006 48.9992 82.5392 49.4605 82.1201 49.8661C82.2261 49.9725 82.354 50.0544 82.495 50.1062C82.6359 50.158 82.7865 50.1785 82.9361 50.1661L83.1941 48.4951Z" fill="#FF5652"/>
<path d="M84.1127 47.3161C84.0993 47.3163 84.086 47.3137 84.0736 47.3085C84.0613 47.3034 84.0501 47.2958 84.0407 47.2861C83.9505 47.1912 83.8389 47.1191 83.7153 47.0758C83.5917 47.0325 83.4595 47.0192 83.3297 47.0371C83.3161 47.0402 83.3021 47.0406 83.2883 47.0382C83.2746 47.0357 83.2615 47.0306 83.2497 47.0231C83.238 47.0155 83.2279 47.0057 83.22 46.9942C83.2121 46.9827 83.2066 46.9698 83.2037 46.9561C83.2007 46.9427 83.2004 46.9288 83.2028 46.9153C83.2053 46.9018 83.2104 46.8889 83.218 46.8774C83.2256 46.8659 83.2354 46.856 83.2468 46.8484C83.2583 46.8408 83.2712 46.8356 83.2847 46.8331C83.4478 46.8073 83.6147 46.821 83.7714 46.8732C83.928 46.9255 84.0698 47.0146 84.1847 47.1331C84.2035 47.1536 84.2139 47.1804 84.2139 47.2081C84.2139 47.2359 84.2035 47.2627 84.1847 47.2831C84.1653 47.3022 84.1398 47.3138 84.1127 47.3161Z" fill="#263238"/>
<path d="M89.1824 50.1241C88.8824 51.7381 88.5524 54.6931 89.6804 55.7671C89.6804 55.7671 89.2394 57.4021 86.2424 57.4021C82.9424 57.4021 84.6674 55.7671 84.6674 55.7671C86.4674 55.3381 86.4194 54.0031 86.1074 52.7671L89.1824 50.1241Z" fill="#FF8B7B"/>
<path d="M91.2013 56.9791C91.1648 56.926 91.1375 56.8672 91.1203 56.8051C90.8683 55.8481 89.8093 55.1011 88.4353 55.0621C86.9863 55.0261 85.3514 55.2001 84.3854 55.9981C83.9594 56.3491 84.4304 56.8621 84.4304 56.8621L91.2013 56.9791Z" fill="#407BFF"/>
<path opacity="0.5" d="M91.2013 56.9791C91.1648 56.926 91.1375 56.8672 91.1203 56.8051C90.8683 55.8481 89.8093 55.1011 88.4353 55.0621C86.9863 55.0261 85.3514 55.2001 84.3854 55.9981C83.9594 56.3491 84.4304 56.8621 84.4304 56.8621L91.2013 56.9791Z" fill="white"/>
<path d="M101.794 117.345H101.773C101.729 117.339 101.688 117.319 101.656 117.288C101.623 117.258 101.601 117.218 101.593 117.174C101.583 117.14 101.579 117.104 101.584 117.069C101.589 117.034 101.601 117 101.62 116.97C101.788 116.685 102.52 116.535 102.541 116.529C102.551 116.527 102.561 116.528 102.571 116.531C102.581 116.535 102.589 116.542 102.595 116.55C102.6 116.558 102.603 116.568 102.603 116.578C102.603 116.588 102.6 116.598 102.595 116.607C102.484 116.796 102.073 117.345 101.794 117.345ZM102.439 116.658C102.199 116.721 101.809 116.85 101.71 117.021C101.701 117.039 101.696 117.059 101.696 117.079C101.696 117.1 101.701 117.12 101.71 117.138C101.737 117.231 101.785 117.237 101.797 117.24C101.932 117.258 102.25 116.934 102.439 116.658Z" fill="#407BFF"/>
<path d="M102.194 116.67C101.921 116.67 101.615 116.619 101.522 116.487C101.5 116.454 101.49 116.415 101.493 116.376C101.496 116.336 101.513 116.299 101.54 116.271C101.564 116.239 101.594 116.213 101.629 116.194C101.663 116.174 101.701 116.162 101.741 116.157C102.071 116.121 102.566 116.52 102.587 116.538C102.594 116.544 102.6 116.551 102.603 116.56C102.607 116.569 102.608 116.579 102.606 116.588C102.604 116.598 102.599 116.606 102.593 116.613C102.586 116.62 102.578 116.625 102.569 116.628C102.446 116.659 102.32 116.673 102.194 116.67ZM101.792 116.259H101.753C101.727 116.26 101.702 116.268 101.68 116.28C101.658 116.293 101.638 116.31 101.624 116.331C101.582 116.385 101.6 116.412 101.609 116.421C101.693 116.544 102.152 116.592 102.431 116.547C102.246 116.398 102.026 116.299 101.792 116.259Z" fill="#407BFF"/>
<path d="M80.0044 124.629C79.7224 124.629 79.4494 124.59 79.3564 124.464C79.3329 124.43 79.3203 124.391 79.3203 124.35C79.3203 124.309 79.3329 124.269 79.3564 124.236C79.3748 124.205 79.3991 124.178 79.4279 124.157C79.4568 124.136 79.4896 124.121 79.5244 124.113C79.8904 124.014 80.6614 124.452 80.6944 124.473C80.7035 124.478 80.7107 124.486 80.715 124.496C80.7193 124.506 80.7205 124.516 80.7184 124.527C80.7163 124.537 80.7112 124.547 80.7037 124.554C80.6962 124.562 80.6868 124.567 80.6764 124.569C80.4545 124.608 80.2297 124.628 80.0044 124.629ZM79.6534 124.203C79.6206 124.198 79.5872 124.198 79.5544 124.203C79.5333 124.207 79.5133 124.215 79.4957 124.228C79.4782 124.24 79.4634 124.256 79.4524 124.275C79.4134 124.341 79.4284 124.374 79.4524 124.392C79.5544 124.533 80.1124 124.536 80.5234 124.479C80.2541 124.331 79.9586 124.237 79.6534 124.203Z" fill="#407BFF"/>
<path d="M80.6719 124.569H80.6509C80.3839 124.449 79.8559 123.969 79.8979 123.723C79.8979 123.663 79.9489 123.591 80.0929 123.576C80.1464 123.569 80.2007 123.574 80.2523 123.589C80.3039 123.605 80.3518 123.631 80.3929 123.666C80.6749 123.897 80.7319 124.491 80.7349 124.515C80.736 124.524 80.7347 124.533 80.731 124.542C80.7273 124.55 80.7214 124.557 80.7139 124.563C80.7012 124.57 80.6861 124.572 80.6719 124.569ZM80.1349 123.669H80.1019C80.0089 123.669 80.0029 123.714 79.9999 123.726C79.9759 123.876 80.3359 124.251 80.5999 124.413C80.5724 124.161 80.4676 123.924 80.2999 123.735C80.2529 123.697 80.1949 123.676 80.1349 123.675V123.669Z" fill="#407BFF"/>
<path d="M83.0959 124.518H80.8909L80.6719 119.415H82.8769L83.0959 124.518Z" fill="#FF8B7B"/>
<path d="M104.524 115.011L102.736 116.301L98.5176 113.049L100.306 111.762L104.524 115.011Z" fill="#FF8B7B"/>
<path d="M102.48 116.283L104.196 114.483C104.226 114.451 104.266 114.431 104.309 114.426C104.352 114.42 104.396 114.43 104.433 114.453L106.149 115.494C106.19 115.52 106.225 115.555 106.251 115.596C106.277 115.637 106.293 115.683 106.299 115.731C106.305 115.78 106.3 115.829 106.284 115.875C106.269 115.921 106.243 115.963 106.209 115.998C105.609 116.613 105.27 116.88 104.517 117.666C104.052 118.149 102.792 119.847 102.15 120.516C101.508 121.185 100.767 120.636 100.968 120.306C101.868 118.824 102.306 117.354 102.33 116.622C102.339 116.495 102.392 116.375 102.48 116.283Z" fill="#263238"/>
<path d="M80.9051 124.263H83.3051C83.349 124.262 83.3917 124.277 83.4261 124.304C83.4605 124.332 83.4845 124.37 83.4941 124.413L83.9291 126.372C83.9395 126.419 83.9391 126.468 83.9279 126.515C83.9167 126.562 83.895 126.606 83.8644 126.644C83.8338 126.681 83.7951 126.711 83.7513 126.732C83.7074 126.752 83.6595 126.762 83.6111 126.762C82.7441 126.762 81.4901 126.699 80.3981 126.699C79.1201 126.699 78.0191 126.768 76.5221 126.768C75.6222 126.768 75.3671 125.853 75.7451 125.769C77.4701 125.394 78.8771 125.352 80.3681 124.434C80.5276 124.328 80.7136 124.268 80.9051 124.263Z" fill="#263238"/>
<path d="M90.9202 60.4201C91.2202 60.9751 91.5592 61.5121 91.8862 62.0131C92.4502 62.8801 92.9962 63.6301 93.3862 64.1461C93.7372 64.6111 93.9622 64.8841 93.9622 64.8841L98.4021 61.8571C98.4021 61.8571 95.7022 56.6011 93.6232 56.2651C91.4842 55.9261 89.5252 57.9301 90.9202 60.4201Z" fill="#407BFF"/>
<path opacity="0.5" d="M90.9202 60.4201C91.2202 60.9751 91.5592 61.5121 91.8862 62.0131C92.4502 62.8801 92.9962 63.6301 93.3862 64.1461C93.7372 64.6111 93.9622 64.8841 93.9622 64.8841L98.4021 61.8571C98.4021 61.8571 95.7022 56.6011 93.6232 56.2651C91.4842 55.9261 89.5252 57.9301 90.9202 60.4201Z" fill="black"/>
<path d="M91.8857 62.0131C92.4497 62.8801 92.9957 63.6301 93.3857 64.1461C93.3407 63.1141 93.1277 61.4461 92.3267 60.1741C92.0357 60.4621 91.9187 61.2061 91.8857 62.0131Z" fill="#407BFF"/>
<path opacity="0.6" d="M91.8857 62.0131C92.4497 62.8801 92.9957 63.6301 93.3857 64.1461C93.3407 63.1141 93.1277 61.4461 92.3267 60.1741C92.0357 60.4621 91.9187 61.2061 91.8857 62.0131Z" fill="black"/>
<path d="M80.1943 63.5641C80.1943 64.3141 80.2123 65.1391 80.2543 66.0481C80.3623 68.5201 80.6323 71.601 81.1543 75.429H92.9413C93.0223 73.629 91.8853 64.7911 93.6313 56.2651C92.3274 56.0143 91.0086 55.848 89.6833 55.7671C88.0147 55.6711 86.3419 55.6711 84.6733 55.7671C83.5296 55.8802 82.3963 56.0808 81.2833 56.3671C81.2833 56.3671 80.1913 57.6061 80.1943 63.5641Z" fill="#407BFF"/>
<path opacity="0.5" d="M80.1943 63.5641C80.1943 64.3141 80.2123 65.1391 80.2543 66.0481C80.3623 68.5201 80.6323 71.601 81.1543 75.429H92.9413C93.0223 73.629 91.8853 64.7911 93.6313 56.2651C92.3274 56.0143 91.0086 55.848 89.6833 55.7671C88.0147 55.6711 86.3419 55.6711 84.6733 55.7671C83.5296 55.8802 82.3963 56.0808 81.2833 56.3671C81.2833 56.3671 80.1913 57.6061 80.1943 63.5641Z" fill="black"/>
<path d="M80.1943 63.5642C80.1943 64.3142 80.2123 65.1391 80.2543 66.0481C81.6373 64.6981 81.7303 61.9412 81.7303 61.9412L80.1943 63.5642Z" fill="#407BFF"/>
<path opacity="0.6" d="M80.1943 63.5642C80.1943 64.3142 80.2123 65.1391 80.2543 66.0481C81.6373 64.6981 81.7303 61.9412 81.7303 61.9412L80.1943 63.5642Z" fill="black"/>
<path d="M82.6514 60.1411C82.4246 60.5205 82.1741 60.8852 81.9014 61.2331C81.6524 61.5571 81.4034 61.8631 81.1484 62.1661C80.6414 62.7661 80.0984 63.3451 79.5464 63.9061C78.4154 65.0543 77.1631 66.0763 75.8114 66.954C75.4476 67.1816 75.0721 67.3899 74.6864 67.578L74.5334 67.65L74.4584 67.686L74.3654 67.725C74.2173 67.7877 74.0649 67.8398 73.9094 67.881L73.6904 67.938L73.4804 67.974C73.3464 67.9973 73.2112 68.0123 73.0754 68.019C72.1724 68.0488 71.2711 67.9219 70.4114 67.644C68.8918 67.1712 67.4436 66.494 66.1064 65.6311L66.8174 64.1311C68.1817 64.5395 69.5718 64.8562 70.9784 65.0791C71.5737 65.179 72.1807 65.1871 72.7784 65.1031C72.8295 65.0947 72.8797 65.0817 72.9284 65.0641L72.9944 65.0461L73.0424 65.0251C73.0814 65.0251 73.0904 64.9951 73.1144 64.9861L73.2944 64.8811C73.5706 64.7205 73.838 64.5453 74.0954 64.3561C75.2026 63.5231 76.2318 62.5912 77.1704 61.5721C77.6594 61.0591 78.1304 60.5221 78.5894 59.9881C78.8174 59.7181 79.0394 59.4481 79.2464 59.1751C79.4534 58.9021 79.6664 58.6231 79.7894 58.4311L82.6514 60.1411Z" fill="#FF8B7B"/>
<path d="M67.1416 64.5361L65.6776 62.7961L64.6816 65.3401C64.6816 65.3401 65.9446 65.9401 66.9286 65.5921L67.1416 64.5361Z" fill="#FF8B7B"/>
<path d="M63.5291 62.4152L63.1211 64.4462L64.6811 65.3371L65.6771 62.7932L63.5291 62.4152Z" fill="#FF8B7B"/>
<path d="M84.4185 58.9471C84.1575 61.0471 79.3935 65.472 79.3935 65.472L75.1035 62.0701C76.1819 60.4761 77.4424 59.0132 78.8595 57.7111C81.9675 55.0171 84.7335 56.4391 84.4185 58.9471Z" fill="#407BFF"/>
<path opacity="0.5" d="M84.4185 58.9471C84.1575 61.0471 79.3935 65.472 79.3935 65.472L75.1035 62.0701C76.1819 60.4761 77.4424 59.0132 78.8595 57.7111C81.9675 55.0171 84.7335 56.4391 84.4185 58.9471Z" fill="black"/>
<path d="M80.7012 73.122C84.9822 73.122 85.9601 68.2801 86.1851 66.2011C85.6445 62.685 84.392 59.3163 82.5042 56.3011C82.4809 56.2643 82.467 56.2223 82.4637 56.1788C82.4604 56.1353 82.4678 56.0917 82.4853 56.0517C82.5028 56.0118 82.5297 55.9767 82.5639 55.9496C82.598 55.9225 82.6383 55.9041 82.6812 55.8961L83.6202 55.7221C83.6736 55.7134 83.7284 55.7203 83.7779 55.7422C83.8275 55.764 83.8696 55.7998 83.8992 55.8451C86.4761 59.9701 87.3191 63.4681 87.5921 65.2681H88.3601C89.1461 63.5581 90.8771 59.6611 90.7361 56.0101C90.7335 55.971 90.7397 55.9317 90.7541 55.8953C90.7686 55.8588 90.791 55.826 90.8197 55.7993C90.8485 55.7725 90.8828 55.7526 90.9202 55.7408C90.9577 55.729 90.9973 55.7257 91.0361 55.7311L92.0441 55.8301C92.1089 55.8345 92.1699 55.8626 92.2153 55.9091C92.2607 55.9556 92.2873 56.0172 92.2901 56.0821C92.4371 59.6011 90.4481 64.4821 89.6831 66.0331C89.9441 71.7751 93.1391 72.768 93.1391 72.768C93.2178 74.1958 93.1545 75.6278 92.9501 77.043C86.1851 78.141 82.8132 77.472 80.8842 76.674C81.0342 75.231 80.7642 74.22 80.7012 73.122Z" fill="#407BFF"/>
<path opacity="0.3" d="M80.7012 73.122C84.9822 73.122 85.9601 68.2801 86.1851 66.2011C85.6445 62.685 84.392 59.3163 82.5042 56.3011C82.4809 56.2643 82.467 56.2223 82.4637 56.1788C82.4604 56.1353 82.4678 56.0917 82.4853 56.0517C82.5028 56.0118 82.5297 55.9767 82.5639 55.9496C82.598 55.9225 82.6383 55.9041 82.6812 55.8961L83.6202 55.7221C83.6736 55.7134 83.7284 55.7203 83.7779 55.7422C83.8275 55.764 83.8696 55.7998 83.8992 55.8451C86.4761 59.9701 87.3191 63.4681 87.5921 65.2681H88.3601C89.1461 63.5581 90.8771 59.6611 90.7361 56.0101C90.7335 55.971 90.7397 55.9317 90.7541 55.8953C90.7686 55.8588 90.791 55.826 90.8197 55.7993C90.8485 55.7725 90.8828 55.7526 90.9202 55.7408C90.9577 55.729 90.9973 55.7257 91.0361 55.7311L92.0441 55.8301C92.1089 55.8345 92.1699 55.8626 92.2153 55.9091C92.2607 55.9556 92.2873 56.0172 92.2901 56.0821C92.4371 59.6011 90.4481 64.4821 89.6831 66.0331C89.9441 71.7751 93.1391 72.768 93.1391 72.768C93.2178 74.1958 93.1545 75.6278 92.9501 77.043C86.1851 78.141 82.8132 77.472 80.8842 76.674C81.0342 75.231 80.7642 74.22 80.7012 73.122Z" fill="black"/>
<path d="M80.6719 119.415L80.7859 122.046H82.9909L82.8769 119.415H80.6719Z" fill="#FF5652"/>
<path d="M100.308 111.762L98.5205 113.052L100.695 114.726L102.483 113.436L100.308 111.762Z" fill="#FF5652"/>
<path d="M89.239 48.7351C88.768 50.8711 88.6 52.1461 87.337 53.0821C85.438 54.4921 82.93 53.0821 82.753 50.8531C82.594 48.8431 83.389 45.6872 85.636 45.1532C86.1305 45.0387 86.6461 45.0516 87.1343 45.1907C87.6225 45.3298 88.0674 45.5905 88.4274 45.9484C88.7874 46.3063 89.0507 46.7497 89.1926 47.2371C89.3346 47.7245 89.3505 48.2399 89.239 48.7351Z" fill="#FF8B7B"/>
<path d="M91.1442 45.4202C93.0192 45.4712 92.2482 46.4582 91.3092 47.0012C91.3092 47.0012 92.3922 47.5202 91.8342 48.7592C90.9882 50.6401 89.3682 52.7071 87.7152 52.5931C85.6572 52.4521 85.0722 50.2141 85.1472 48.0062C84.0612 46.9832 83.8782 46.4192 83.7102 45.1892C83.3712 42.7502 84.9012 41.4092 91.1442 45.4202Z" fill="#263238"/>
<path d="M88.7295 41.3102C90.0132 41.6394 91.1135 42.465 91.7886 43.6053C92.4636 44.7456 92.6582 46.1074 92.3295 47.3911L82.6426 44.9192C82.805 44.2823 83.0913 43.6837 83.4851 43.1576C83.879 42.6315 84.3727 42.1882 84.938 41.853C85.5033 41.5178 86.1292 41.2974 86.7798 41.2042C87.4303 41.1111 88.0929 41.1471 88.7295 41.3102Z" fill="#407BFF"/>
<path opacity="0.5" d="M88.7295 41.3102C90.0132 41.6394 91.1135 42.465 91.7886 43.6053C92.4636 44.7456 92.6582 46.1074 92.3295 47.3911L82.6426 44.9192C82.805 44.2823 83.0913 43.6837 83.4851 43.1576C83.879 42.6315 84.3727 42.1882 84.938 41.853C85.5033 41.5178 86.1292 41.2974 86.7798 41.2042C87.4303 41.1111 88.0929 41.1471 88.7295 41.3102Z" fill="white"/>
<path d="M90.6437 47.3971C90.5767 47.3981 90.5104 47.3835 90.4501 47.3545C90.3897 47.3254 90.3369 47.2827 90.2959 47.2298C90.2549 47.1768 90.2267 47.115 90.2137 47.0493C90.2006 46.9836 90.203 46.9158 90.2207 46.8511C90.3554 46.3063 90.374 45.7392 90.2753 45.1867C90.1766 44.6342 89.9628 44.1086 89.6477 43.6442C88.9737 42.6299 87.9421 41.9068 86.7587 41.6192C86.6461 41.5905 86.5496 41.5183 86.4902 41.4185C86.4308 41.3186 86.4136 41.1993 86.4422 41.0867C86.4709 40.9741 86.5431 40.8775 86.6429 40.8181C86.7428 40.7588 86.8621 40.7415 86.9747 40.7702C88.3713 41.1133 89.5871 41.9703 90.3797 43.1702C90.7614 43.7357 91.02 44.375 91.1389 45.0469C91.2577 45.7187 91.2342 46.408 91.0697 47.0701C91.0451 47.1642 90.9898 47.2474 90.9127 47.3066C90.8356 47.3658 90.7409 47.3977 90.6437 47.3971Z" fill="#407BFF"/>
<path opacity="0.3" d="M90.6437 47.3971C90.5767 47.3981 90.5104 47.3835 90.4501 47.3545C90.3897 47.3254 90.3369 47.2827 90.2959 47.2298C90.2549 47.1768 90.2267 47.115 90.2137 47.0493C90.2006 46.9836 90.203 46.9158 90.2207 46.8511C90.3554 46.3063 90.374 45.7392 90.2753 45.1867C90.1766 44.6342 89.9628 44.1086 89.6477 43.6442C88.9737 42.6299 87.9421 41.9068 86.7587 41.6192C86.6461 41.5905 86.5496 41.5183 86.4902 41.4185C86.4308 41.3186 86.4136 41.1993 86.4422 41.0867C86.4709 40.9741 86.5431 40.8775 86.6429 40.8181C86.7428 40.7588 86.8621 40.7415 86.9747 40.7702C88.3713 41.1133 89.5871 41.9703 90.3797 43.1702C90.7614 43.7357 91.02 44.375 91.1389 45.0469C91.2577 45.7187 91.2342 46.408 91.0697 47.0701C91.0451 47.1642 90.9898 47.2474 90.9127 47.3066C90.8356 47.3658 90.7409 47.3977 90.6437 47.3971Z" fill="white"/>
<path d="M81.3011 45.0481L92.7011 47.9581C92.8196 47.9882 92.9452 47.97 93.0504 47.9076C93.1556 47.8451 93.2317 47.7436 93.2621 47.6251C93.2922 47.5062 93.2741 47.3802 93.2117 47.2745C93.1494 47.1689 93.0478 47.0922 92.9291 47.0611L81.5291 44.1511C81.4098 44.1211 81.2834 44.1396 81.1777 44.2026C81.072 44.2656 80.9956 44.3679 80.9651 44.4871C80.9503 44.546 80.9473 44.6073 80.9561 44.6674C80.965 44.7274 80.9856 44.7852 81.0168 44.8373C81.048 44.8894 81.0892 44.9349 81.138 44.971C81.1868 45.0072 81.2422 45.0334 81.3011 45.0481Z" fill="#407BFF"/>
<path opacity="0.3" d="M81.3011 45.0481L92.7011 47.9581C92.8196 47.9882 92.9452 47.97 93.0504 47.9076C93.1556 47.8451 93.2317 47.7436 93.2621 47.6251C93.2922 47.5062 93.2741 47.3802 93.2117 47.2745C93.1494 47.1689 93.0478 47.0922 92.9291 47.0611L81.5291 44.1511C81.4098 44.1211 81.2834 44.1396 81.1777 44.2026C81.072 44.2656 80.9956 44.3679 80.9651 44.4871C80.9503 44.546 80.9473 44.6073 80.9561 44.6674C80.965 44.7274 80.9856 44.7852 81.0168 44.8373C81.048 44.8894 81.0892 44.9349 81.138 44.971C81.1868 45.0072 81.2422 45.0334 81.3011 45.0481Z" fill="white"/>
<path d="M86.2725 48.5342C86.2165 49.0748 85.9822 49.5814 85.6065 49.9742C85.1085 50.4872 84.6165 50.1422 84.5535 49.4942C84.4965 48.9122 84.6885 47.9432 85.2855 47.6732C85.8825 47.4032 86.3355 47.8832 86.2725 48.5342Z" fill="#FF8B7B"/>
<path d="M85.3311 75.4291C85.3311 75.4291 85.0761 91.113 87.0471 97.263C90.1701 107.004 99.602 114.894 99.602 114.894L102.974 112.461C102.974 112.461 95.12 105.795 93.68 97.596C92.3871 90.225 92.936 81.456 92.936 75.4351L85.3311 75.4291Z" fill="#407BFF"/>
<path opacity="0.3" d="M85.3311 75.4291C85.3311 75.4291 85.0761 91.113 87.0471 97.263C90.1701 107.004 99.602 114.894 99.602 114.894L102.974 112.461C102.974 112.461 95.12 105.795 93.68 97.596C92.3871 90.225 92.936 81.456 92.936 75.4351L85.3311 75.4291Z" fill="black"/>
<path d="M87.5293 78.123C87.9463 80.949 86.4733 88.8179 85.9633 91.3949C85.4293 86.5769 85.3303 80.862 85.3213 77.742C86.4013 77.01 87.3373 76.821 87.5293 78.123Z" fill="#407BFF"/>
<path opacity="0.4" d="M87.5293 78.123C87.9463 80.949 86.4733 88.8179 85.9633 91.3949C85.4293 86.5769 85.3303 80.862 85.3213 77.742C86.4013 77.01 87.3373 76.821 87.5293 78.123Z" fill="black"/>
<path d="M98.1573 114.183C98.1423 114.183 99.5433 115.008 99.5433 115.008L103.224 112.35L102 111.411L98.1573 114.183Z" fill="#407BFF"/>
<path opacity="0.4" d="M98.1573 114.183C98.1423 114.183 99.5433 115.008 99.5433 115.008L103.224 112.35L102 111.411L98.1573 114.183Z" fill="white"/>
<path d="M81.1484 75.4291C81.1484 75.4291 77.8274 89.499 77.5934 96.219C77.3324 103.758 79.9634 121.536 79.9634 121.536H83.7014C83.7014 121.536 84.1634 103.62 84.3284 96.753C84.5084 89.268 88.9033 75.4291 88.9033 75.4291H81.1484Z" fill="#407BFF"/>
<path opacity="0.3" d="M81.1484 75.4291C81.1484 75.4291 77.8274 89.499 77.5934 96.219C77.3324 103.758 79.9634 121.536 79.9634 121.536H83.7014C83.7014 121.536 84.1634 103.62 84.3284 96.753C84.5084 89.268 88.9033 75.4291 88.9033 75.4291H81.1484Z" fill="black"/>
<path d="M79.2439 120.048C79.2289 120.048 79.4569 121.599 79.4569 121.599H84.0018L84.1248 120.216L79.2439 120.048Z" fill="#407BFF"/>
<path opacity="0.4" d="M79.2439 120.048C79.2289 120.048 79.4569 121.599 79.4569 121.599H84.0018L84.1248 120.216L79.2439 120.048Z" fill="white"/>
<defs>
<linearGradient id="paint0_linear_128_3976" x1="94.1926" y1="8.09361" x2="91.9708" y2="137.225" gradientUnits="userSpaceOnUse">
<stop stop-color="white" stop-opacity="0"/>
<stop offset="1" stop-color="#AB9C50" stop-opacity="0.6"/>
</linearGradient>
</defs>
</svg>
