<svg width="228" height="152" viewBox="0 0 228 152" fill="none" xmlns="http://www.w3.org/2000/svg">
<g clip-path="url(#clip0_240_1195)">
<path d="M100.716 49.1494L97.1492 33.1319H86.834" stroke="#971C21" stroke-width="7.42394" stroke-linecap="round" stroke-linejoin="round"/>
<path fill-rule="evenodd" clip-rule="evenodd" d="M110.222 93.2269L100.717 49.1492H169C172.436 49.1492 174.993 52.3006 174.275 55.6454L166.173 93.2269C165.639 95.702 163.443 97.4682 160.897 97.4682H115.492C112.952 97.4682 110.756 95.702 110.222 93.2269Z" fill="#971C21" stroke="#971C21" stroke-width="7.42394" stroke-linecap="round" stroke-linejoin="round"/>
<path d="M158.631 111.417C157.194 111.417 156.028 112.583 156.042 114.019C156.042 115.456 157.208 116.622 158.645 116.622C160.082 116.622 161.248 115.456 161.248 114.019C161.241 112.583 160.075 111.417 158.631 111.417ZM116.99 111.417C115.553 111.417 114.387 112.583 114.401 114.019C114.394 115.456 115.56 116.622 116.996 116.622C118.433 116.622 119.599 115.456 119.599 114.019C119.599 112.583 118.433 111.417 116.99 111.417Z" stroke="#971C21" stroke-width="9.61553" stroke-linecap="round" stroke-linejoin="round"/>
<path d="M194.15 75.8449L190.313 79.5823L188.01 77.3403" stroke="#FDFAEC" stroke-width="1.57295" stroke-linecap="round" stroke-linejoin="round"/>
<path d="M155.708 61.9633H119.402C117.928 61.9633 116.732 63.1586 116.732 64.6329V65.7007C116.732 67.1751 117.928 68.3704 119.402 68.3704H155.708C157.182 68.3704 158.378 67.1751 158.378 65.7007V64.6329C158.378 63.1586 157.182 61.9633 155.708 61.9633Z" fill="#FDFAEC"/>
<path d="M155.708 77.1797H119.402C117.928 77.1797 116.732 78.375 116.732 79.8494V80.9172C116.732 82.3916 117.928 83.5868 119.402 83.5868H155.708C157.182 83.5868 158.378 82.3916 158.378 80.9172V79.8494C158.378 78.375 157.182 77.1797 155.708 77.1797Z" fill="#FDFAEC"/>
<path d="M187.976 54.5698H187.935C187.694 57.8656 185.152 57.9166 185.152 57.9166C185.152 57.9166 187.955 57.9692 187.955 61.7776C187.955 57.9692 190.758 57.9166 190.758 57.9166C190.758 57.9166 188.217 57.8656 187.976 54.5698ZM39.1266 63.0666H39.0861C38.8447 66.3624 36.3027 66.4131 36.3027 66.4131C36.3027 66.4131 39.1059 66.466 39.1059 70.2744C39.1059 66.466 41.9088 66.4131 41.9088 66.4131C41.9088 66.4131 39.3681 66.3624 39.1266 63.0666Z" fill="#E1E4E5"/>
<path fill-rule="evenodd" clip-rule="evenodd" d="M180.658 91.7784H181.897C182.197 91.7784 182.438 92.0221 182.438 92.3193V93.5583C182.438 93.7017 182.381 93.8392 182.28 93.9406C182.178 94.042 182.041 94.099 181.897 94.0992H180.658C180.515 94.0986 180.378 94.0414 180.276 93.9401C180.175 93.8388 180.118 93.7016 180.117 93.5583V92.3193C180.117 92.2482 180.131 92.1778 180.158 92.1121C180.185 92.0464 180.225 91.9867 180.275 91.9364C180.326 91.8862 180.385 91.8463 180.451 91.8192C180.517 91.7921 180.587 91.7782 180.658 91.7784ZM184.954 91.7784H186.193C186.49 91.7784 186.734 92.0221 186.734 92.3193V93.5583C186.734 93.7017 186.677 93.8392 186.576 93.9406C186.474 94.042 186.337 94.099 186.193 94.0992H184.954C184.811 94.0986 184.674 94.0414 184.572 93.9401C184.471 93.8388 184.414 93.7016 184.413 93.5583V92.3193C184.413 92.0221 184.657 91.7784 184.954 91.7784ZM189.253 91.7784H190.492C190.789 91.7784 191.033 92.0221 191.033 92.3193V93.5583C191.033 93.7017 190.976 93.8393 190.875 93.9407C190.773 94.0421 190.636 94.0991 190.492 94.0992H189.253C189.11 94.0986 188.973 94.0415 188.871 93.9402C188.77 93.8389 188.713 93.7016 188.712 93.5583V92.3193C188.712 92.2482 188.726 92.1778 188.753 92.1121C188.78 92.0464 188.82 91.9867 188.87 91.9364C188.921 91.8862 188.98 91.8463 189.046 91.8192C189.112 91.7921 189.182 91.7782 189.253 91.7784ZM193.549 91.7784H194.788C195.086 91.7784 195.329 92.0221 195.329 92.3193V93.5583C195.329 93.7017 195.272 93.8393 195.171 93.9407C195.069 94.0421 194.932 94.0991 194.788 94.0992H193.549C193.406 94.0992 193.268 94.0423 193.166 93.9409C193.064 93.8396 193.007 93.702 193.006 93.5583V92.3193C193.008 92.1758 193.065 92.0388 193.167 91.9376C193.269 91.8364 193.406 91.7792 193.549 91.7784ZM197.846 91.7784H199.085C199.384 91.7784 199.628 92.0221 199.628 92.3193V93.5583C199.628 93.6295 199.614 93.7 199.586 93.7657C199.559 93.8314 199.519 93.8911 199.469 93.9414C199.418 93.9916 199.358 94.0314 199.292 94.0585C199.227 94.0855 199.156 94.0994 199.085 94.0992H197.846C197.702 94.0986 197.565 94.0415 197.464 93.9402C197.363 93.8389 197.305 93.7016 197.305 93.5583V92.3193C197.305 92.0221 197.549 91.7784 197.846 91.7784ZM185.112 96.463H186.351C186.648 96.463 186.892 96.7067 186.892 97.0039V98.2455C186.891 98.3888 186.834 98.526 186.733 98.6274C186.632 98.7287 186.494 98.7858 186.351 98.7864H185.112C184.968 98.7863 184.831 98.7293 184.73 98.6279C184.628 98.5264 184.571 98.3889 184.571 98.2455V97.0064C184.571 96.9352 184.584 96.8645 184.611 96.7986C184.638 96.7326 184.678 96.6726 184.728 96.6221C184.779 96.5716 184.838 96.5315 184.904 96.5042C184.97 96.4769 185.041 96.4629 185.112 96.463ZM189.408 96.463H190.647C190.944 96.463 191.188 96.7067 191.188 97.0039V98.2455C191.188 98.3888 191.13 98.526 191.029 98.6274C190.928 98.7287 190.791 98.7858 190.647 98.7864H189.408C189.265 98.7858 189.128 98.7287 189.026 98.6274C188.925 98.526 188.868 98.3888 188.867 98.2455V97.0064C188.867 96.9352 188.881 96.8645 188.908 96.7986C188.935 96.7326 188.974 96.6726 189.025 96.6221C189.075 96.5716 189.135 96.5315 189.201 96.5042C189.266 96.4769 189.337 96.4629 189.408 96.463ZM193.704 96.463H194.944C195.243 96.463 195.487 96.7067 195.487 97.0039V98.2455C195.486 98.3892 195.429 98.5267 195.327 98.6281C195.225 98.7295 195.087 98.7864 194.944 98.7864H193.704C193.561 98.7858 193.424 98.7287 193.323 98.6274C193.221 98.526 193.164 98.3888 193.164 98.2455V97.0064C193.164 96.7067 193.407 96.463 193.704 96.463ZM189.253 86.7457H190.492C190.789 86.7457 191.033 86.9894 191.033 87.2863V88.5256C191.033 88.669 190.976 88.8065 190.875 88.9079C190.773 89.0093 190.636 89.0663 190.492 89.0665H189.253C189.11 89.0659 188.973 89.0087 188.871 88.9074C188.77 88.8061 188.713 88.6689 188.712 88.5256V87.2863C188.712 87.2152 188.726 87.1448 188.753 87.0792C188.78 87.0135 188.82 86.9539 188.87 86.9036C188.921 86.8534 188.98 86.8136 189.046 86.7865C189.112 86.7594 189.182 86.7455 189.253 86.7457ZM193.549 86.7457H194.788C195.086 86.7457 195.329 86.9894 195.329 87.2863V88.5256C195.329 88.669 195.272 88.8065 195.171 88.9079C195.069 89.0093 194.932 89.0663 194.788 89.0665H193.549C193.406 89.0664 193.268 89.0095 193.166 88.9081C193.064 88.8068 193.007 88.6692 193.006 88.5256V87.2863C193.008 87.1429 193.065 87.0059 193.167 86.9048C193.269 86.8037 193.406 86.7465 193.549 86.7457Z" fill="#E1E4E5"/>
<path fill-rule="evenodd" clip-rule="evenodd" d="M60.1837 120.978H51.6586C49.9559 120.978 48.5742 119.596 48.5742 117.893V62.3747C48.5742 60.672 49.9559 59.2903 51.6586 59.2903H60.1837C60.6311 59.2903 61.0382 59.5432 61.2386 59.9409C62.0668 61.5993 63.3406 62.9941 64.9173 63.9688C66.494 64.9435 68.3112 65.4595 70.1648 65.459C72.0183 65.4588 73.8352 64.9425 75.4118 63.9679C76.9883 62.9933 78.2623 61.5988 79.091 59.9409C79.1893 59.7454 79.34 59.581 79.5263 59.4662C79.7126 59.3513 79.9271 59.2904 80.1459 59.2903H88.6711C90.3735 59.2903 91.7554 60.672 91.7554 62.3747V117.893C91.7554 119.596 90.3735 120.978 88.6711 120.978H80.1459C79.9271 120.977 79.7126 120.917 79.5263 120.802C79.34 120.687 79.1893 120.522 79.091 120.327L79.0201 120.191C78.1787 118.569 76.9078 117.209 75.3462 116.26C73.7846 115.311 71.9923 114.809 70.1648 114.809C68.3117 114.809 66.4951 115.325 64.9186 116.299C63.342 117.273 62.0678 118.666 61.2386 120.324V120.327C61.1404 120.522 60.9897 120.687 60.8034 120.802C60.6171 120.917 60.4026 120.977 60.1837 120.978Z" fill="#971C21"/>
<path d="M62.2394 97.1797L77.6614 81.758M77.8736 96.1924C77.7725 96.1923 77.6723 96.2121 77.5788 96.2509C77.4853 96.2896 77.4005 96.3464 77.3291 96.4181C77.2577 96.4898 77.2011 96.5749 77.1628 96.6685C77.1244 96.7621 77.105 96.8624 77.1055 96.9636C77.1107 97.1647 77.1942 97.3558 77.3383 97.4962C77.4823 97.6366 77.6755 97.7152 77.8767 97.7152C78.0779 97.7152 78.2711 97.6366 78.4151 97.4962C78.5592 97.3558 78.6427 97.1647 78.6478 96.9636C78.6477 96.8621 78.6276 96.7616 78.5886 96.6679C78.5497 96.5742 78.4926 96.4891 78.4207 96.4174C78.3488 96.3458 78.2634 96.2891 78.1696 96.2505C78.0757 96.2119 77.9751 96.1921 77.8736 96.1924ZM62.4517 80.7705C62.3505 80.7703 62.2503 80.7902 62.1569 80.8289C62.0634 80.8677 61.9785 80.9245 61.9071 80.9962C61.8357 81.0679 61.7792 81.153 61.7409 81.2466C61.7025 81.3402 61.683 81.4405 61.6836 81.5417C61.6888 81.7428 61.7723 81.9339 61.9163 82.0743C62.0604 82.2147 62.2536 82.2933 62.4548 82.2933C62.6559 82.2933 62.8491 82.2147 62.9932 82.0743C63.1372 81.9339 63.2207 81.7428 63.2259 81.5417C63.2258 81.4402 63.2056 81.3397 63.1666 81.246C63.1276 81.1523 63.0706 81.0672 62.9987 80.9956C62.9268 80.924 62.8414 80.8672 62.7476 80.8286C62.6537 80.79 62.5532 80.7702 62.4517 80.7705Z" stroke="#FDFAEC" stroke-width="4.14555" stroke-linecap="round" stroke-linejoin="round"/>
<path d="M42.7625 119.668L36.6034 113.509C36.3791 113.284 36.0155 113.284 35.7912 113.509C35.5669 113.733 35.5669 114.096 35.7912 114.321L41.9503 120.48C42.1746 120.704 42.5382 120.704 42.7625 120.48C42.9868 120.256 42.9868 119.892 42.7625 119.668Z" fill="#E1E4E5"/>
<path d="M38.3523 119.064L36.576 117.288C36.3517 117.064 35.9881 117.064 35.7638 117.288C35.5395 117.512 35.5395 117.876 35.7638 118.1L37.5401 119.876C37.7644 120.101 38.128 120.101 38.3523 119.876C38.5766 119.652 38.5766 119.289 38.3523 119.064Z" fill="#E1E4E5"/>
<path d="M116.399 37.2186L110.24 31.0594C110.016 30.8351 109.652 30.8351 109.428 31.0594C109.204 31.2837 109.204 31.6473 109.428 31.8716L115.587 38.0308C115.811 38.2551 116.175 38.2551 116.399 38.0308C116.624 37.8065 116.624 37.4429 116.399 37.2186Z" fill="#E1E4E5"/>
<path d="M111.989 36.6151L110.213 34.8388C109.988 34.6146 109.625 34.6146 109.401 34.8388C109.176 35.0631 109.176 35.4267 109.401 35.651L111.177 37.4273C111.401 37.6516 111.765 37.6516 111.989 37.4273C112.213 37.203 112.213 36.8394 111.989 36.6151Z" fill="#E1E4E5"/>
<path d="M32.9799 99.4189C32.7142 99.2877 32.547 98.9994 32.5695 98.7119C32.5805 98.5595 32.6377 98.4141 32.7335 98.2951C32.8293 98.1761 32.9591 98.0891 33.1056 98.0458C33.1882 98.022 33.2758 98.0132 33.362 98.0038C33.8785 97.9453 34.3956 97.8964 34.9032 97.7755C35.0123 97.7481 35.1259 97.7437 35.2369 97.7624C35.3478 97.7811 35.4536 97.8226 35.5477 97.8842C35.8114 98.0524 35.9287 98.2994 35.8961 98.6034C35.8626 98.9092 35.6835 99.1184 35.3952 99.2276C35.3418 99.2479 35.2837 99.2623 35.2273 99.2705C34.635 99.3579 34.0432 99.4546 33.4448 99.4995C33.2811 99.5116 33.1264 99.4921 32.9799 99.4189ZM35.3679 101.53C35.2569 101.759 35.0679 101.912 34.8318 101.971C34.2509 102.115 33.6642 102.249 33.0638 102.273C32.5156 102.294 32.15 101.779 32.3299 101.268C32.4327 100.976 32.6587 100.81 32.9607 100.778C33.3503 100.738 33.7285 100.652 34.1131 100.589C34.2355 100.569 34.3492 100.526 34.4657 100.488C34.6075 100.442 34.76 100.439 34.9034 100.48C35.0468 100.521 35.1746 100.604 35.2703 100.719C35.3644 100.829 35.4239 100.965 35.4412 101.11C35.4586 101.254 35.4331 101.4 35.3679 101.53ZM37.0644 99.9993C37.1625 99.8002 37.3203 99.6727 37.5311 99.6099C37.849 99.5137 38.1712 99.4377 38.4965 99.3741C38.6449 99.3476 38.789 99.3008 38.9247 99.235C39.0232 99.1856 39.1308 99.157 39.2408 99.151C39.3508 99.145 39.4609 99.1618 39.5642 99.2002C39.6675 99.2386 39.7617 99.2979 39.8411 99.3744C39.9204 99.4509 39.9832 99.5429 40.0254 99.6446C40.1974 100.06 39.9909 100.517 39.5542 100.68C39.4936 100.704 39.4311 100.722 39.3672 100.735C38.8849 100.82 38.4071 100.928 37.9303 101.041C37.6349 101.11 37.372 101.042 37.1665 100.809C36.9659 100.58 36.9289 100.274 37.0644 99.9993ZM37.8997 102.018C38.2176 102.186 38.3428 102.442 38.3471 102.76C38.3514 103.073 38.2085 103.315 37.9326 103.469C37.8311 103.524 37.7227 103.565 37.6101 103.592C37.2169 103.686 36.8258 103.784 36.4326 103.879C36.1818 103.938 35.9422 103.911 35.7352 103.745C35.5077 103.563 35.4102 103.32 35.4631 103.033C35.5181 102.731 35.705 102.528 35.9999 102.438C36.2279 102.369 36.459 102.313 36.6923 102.26C36.8683 102.219 37.0328 102.169 37.187 102.06C37.4158 101.895 37.6722 101.908 37.8997 102.018ZM42.5757 102.842C42.4974 103.002 42.3801 103.128 42.2172 103.204C42.125 103.247 42.0318 103.285 41.9345 103.309C41.6059 103.391 41.2799 103.481 40.9539 103.572C40.4601 103.708 40.0082 103.392 39.9816 102.902C39.9648 102.595 40.1374 102.319 40.4388 102.18C40.6625 102.077 40.9009 102.017 41.139 101.96C41.2665 101.93 41.3845 101.889 41.4983 101.821C41.8063 101.637 42.1531 101.682 42.4146 101.927C42.6621 102.159 42.728 102.531 42.5757 102.842ZM28.6624 98.8664C28.7493 98.707 28.8658 98.5933 29.0208 98.5224C29.1253 98.4723 29.2375 98.4403 29.3527 98.4276C29.6605 98.3987 29.9696 98.3597 30.2789 98.346C30.8395 98.3225 31.221 98.8193 31.0442 99.3429C30.952 99.6173 30.7463 99.7789 30.4646 99.8351C30.3741 99.8534 30.2784 99.8526 30.1857 99.864C29.9359 99.8929 29.6838 99.9045 29.434 99.9443C29.1384 99.9919 28.8929 99.8817 28.7206 99.6363C28.5463 99.3913 28.5428 99.1271 28.6624 98.8664ZM37.3844 95.8494C37.6783 96.0002 37.8333 96.2697 37.8108 96.5681C37.7859 96.8889 37.6172 97.1032 37.3216 97.2197C37.2557 97.2466 37.1825 97.2661 37.1123 97.2689C36.8388 97.283 36.5649 97.2909 36.291 97.2927C36.1377 97.2922 35.9886 97.243 35.8651 97.1521C35.6118 96.9671 35.4981 96.6659 35.572 96.3698C35.6483 96.0693 35.8852 95.8383 36.1894 95.8094C36.4899 95.7805 36.7941 95.7805 37.0961 95.7742C37.1973 95.7724 37.297 95.7984 37.3844 95.8494ZM179.626 114.21C179.36 114.078 179.193 113.79 179.216 113.502C179.227 113.35 179.284 113.205 179.38 113.086C179.475 112.967 179.605 112.88 179.752 112.836C179.834 112.812 179.922 112.804 180.008 112.794C180.525 112.736 181.042 112.687 181.549 112.566C181.659 112.538 181.772 112.534 181.883 112.553C181.994 112.572 182.1 112.613 182.194 112.675C182.458 112.843 182.575 113.09 182.542 113.394C182.509 113.7 182.33 113.909 182.041 114.018C181.987 114.039 181.931 114.053 181.873 114.061C181.281 114.148 180.689 114.245 180.091 114.29C179.927 114.302 179.773 114.283 179.626 114.21ZM182.014 116.32C181.903 116.549 181.714 116.703 181.478 116.762C180.897 116.906 180.31 117.04 179.71 117.064C179.162 117.084 178.796 116.57 178.976 116.059C179.079 115.766 179.305 115.601 179.607 115.569C179.996 115.528 180.375 115.442 180.759 115.379C180.882 115.359 180.995 115.316 181.112 115.279C181.254 115.232 181.406 115.23 181.549 115.271C181.693 115.312 181.821 115.395 181.916 115.509C182.011 115.62 182.07 115.756 182.087 115.9C182.105 116.044 182.079 116.19 182.014 116.32ZM183.711 114.79C183.809 114.591 183.966 114.463 184.177 114.401C184.495 114.304 184.817 114.228 185.143 114.165C185.291 114.136 185.433 114.095 185.571 114.026C185.669 113.976 185.777 113.948 185.887 113.942C185.997 113.936 186.107 113.952 186.21 113.991C186.314 114.029 186.408 114.089 186.487 114.165C186.567 114.241 186.629 114.333 186.672 114.435C186.844 114.851 186.637 115.307 186.2 115.471C186.14 115.495 186.077 115.513 186.014 115.526C185.531 115.61 185.053 115.719 184.576 115.832C184.281 115.901 184.018 115.833 183.813 115.6C183.612 115.371 183.575 115.064 183.711 114.79ZM184.546 116.808C184.864 116.977 184.989 117.233 184.993 117.55C184.998 117.864 184.855 118.106 184.579 118.259C184.477 118.315 184.369 118.356 184.256 118.382C183.863 118.477 183.472 118.575 183.079 118.669C182.828 118.729 182.588 118.701 182.381 118.536C182.154 118.353 182.056 118.111 182.109 117.824C182.164 117.522 182.351 117.318 182.646 117.229C182.874 117.16 183.105 117.104 183.338 117.05C183.514 117.01 183.679 116.96 183.833 116.85C184.062 116.686 184.318 116.699 184.546 116.808ZM189.222 117.633C189.144 117.793 189.026 117.919 188.863 117.995C188.771 118.037 188.678 118.076 188.581 118.1C188.252 118.181 187.926 118.272 187.6 118.362C187.106 118.499 186.654 118.182 186.628 117.693C186.611 117.386 186.784 117.11 187.085 116.971C187.309 116.867 187.547 116.807 187.785 116.751C187.913 116.721 188.031 116.68 188.144 116.612C188.452 116.427 188.799 116.472 189.061 116.717C189.308 116.95 189.374 117.321 189.222 117.633ZM175.309 113.657C175.395 113.498 175.512 113.384 175.667 113.313C175.771 113.263 175.884 113.231 175.999 113.218C176.307 113.189 176.616 113.15 176.925 113.137C177.486 113.113 177.867 113.61 177.69 114.134C177.598 114.408 177.392 114.569 177.111 114.626C177.02 114.644 176.925 114.643 176.832 114.655C176.582 114.684 176.33 114.695 176.08 114.735C175.785 114.783 175.539 114.672 175.367 114.427C175.192 114.182 175.189 113.918 175.309 113.657ZM184.031 110.64C184.324 110.791 184.479 111.06 184.457 111.359C184.432 111.679 184.263 111.894 183.968 112.01C183.902 112.037 183.829 112.057 183.758 112.059C183.485 112.073 183.211 112.081 182.937 112.083C182.784 112.083 182.635 112.034 182.511 111.943C182.258 111.758 182.144 111.457 182.218 111.16C182.294 110.86 182.531 110.629 182.836 110.6C183.136 110.571 183.44 110.571 183.742 110.565C183.843 110.563 183.943 110.589 184.031 110.64Z" fill="#E1E4E5"/>
</g>
<defs>
<clipPath id="clip0_240_1195">
<rect width="228" height="152" fill="white"/>
</clipPath>
</defs>
</svg>
