<svg width="55" height="57" viewBox="0 0 55 57" fill="none" xmlns="http://www.w3.org/2000/svg">
<path d="M25.0859 56.0533C24.1203 56.0533 23.6376 55.5706 23.1548 55.0878C22.4307 54.1223 22.4307 52.674 23.3962 51.9499L48.9824 26.3637C49.4652 25.8809 49.7065 25.1568 49.7065 24.4327L48.4996 6.32921L30.6376 4.88093C29.9134 4.88093 29.1893 5.12231 28.7065 5.60507L6.25827 28.0533C5.29275 29.0189 5.29275 30.4671 6.25827 31.4327L19.7755 44.9499C20.741 45.9154 20.741 47.3637 19.7755 48.3292C18.81 49.2947 17.3617 49.2947 16.3962 48.3292L2.87896 34.812C-0.017595 31.9154 -0.017595 27.3292 2.87896 24.674L25.3272 2.22576C26.7755 0.777483 28.9479 0.0533447 31.1203 0.0533447L51.1548 1.50162C52.3617 1.50162 53.3272 2.46714 53.3272 3.67403L54.7755 23.7085C55.0169 25.8809 54.0514 27.812 52.6031 29.5016L26.7755 55.3292C26.2928 55.812 25.81 56.0533 25.0859 56.0533ZM42.2238 22.743C45.1203 19.8464 45.1203 15.2602 42.2238 12.6051C39.3272 9.9499 34.741 9.70852 32.0859 12.6051C29.1893 15.5016 29.1893 20.0878 32.0859 22.743C33.5341 24.1913 35.4652 24.9154 37.1548 24.9154C38.8445 24.9154 40.7755 24.1913 42.2238 22.743ZM38.8445 15.9844C39.81 16.9499 39.81 18.3982 38.8445 19.3637C37.879 20.3292 36.4307 20.3292 35.4652 19.3637C34.4996 18.3982 34.4996 16.9499 35.4652 15.9844C35.9479 15.5016 36.6721 15.2602 37.1548 15.2602C37.6376 15.2602 38.3617 15.5016 38.8445 15.9844Z" fill="#526138"/>
</svg>
