<svg width="50" height="50" viewBox="0 0 50 50" fill="none" xmlns="http://www.w3.org/2000/svg">
<circle cx="25" cy="25" r="25" fill="#811418"/>
<path d="M32.9516 16.4V19.52H31.9916C31.2182 19.52 30.6049 19.64 30.1516 19.88C29.6982 20.12 29.3649 20.5333 29.1516 21.12C28.9382 21.68 28.8316 22.44 28.8316 23.4V26.36L27.6716 24.12C27.8582 23.9867 28.1249 23.88 28.4716 23.8C28.8182 23.6933 29.1782 23.64 29.5516 23.64C30.4316 23.64 31.1649 23.92 31.7516 24.48C32.3382 25.0133 32.6316 25.76 32.6316 26.72C32.6316 27.6267 32.3516 28.4 31.7916 29.04C31.2316 29.6533 30.4316 29.96 29.3916 29.96C28.7249 29.96 28.0982 29.8133 27.5116 29.52C26.9516 29.2 26.4982 28.6667 26.1516 27.92C25.8049 27.1467 25.6316 26.0933 25.6316 24.76V24.08C25.6316 22.1867 25.8849 20.68 26.3916 19.56C26.9249 18.44 27.6849 17.64 28.6716 17.16C29.6582 16.6533 30.8582 16.4 32.2716 16.4H32.9516ZM24.1116 16.4V19.52H23.1516C22.3782 19.52 21.7649 19.64 21.3116 19.88C20.8582 20.12 20.5249 20.5333 20.3116 21.12C20.0982 21.68 19.9916 22.44 19.9916 23.4V26.36L18.8316 24.12C19.0182 23.9867 19.2849 23.88 19.6316 23.8C19.9782 23.6933 20.3382 23.64 20.7116 23.64C21.5916 23.64 22.3249 23.92 22.9116 24.48C23.4982 25.0133 23.7916 25.76 23.7916 26.72C23.7916 27.6267 23.5116 28.4 22.9516 29.04C22.3916 29.6533 21.5916 29.96 20.5516 29.96C19.8849 29.96 19.2582 29.8133 18.6716 29.52C18.1116 29.2 17.6582 28.6667 17.3116 27.92C16.9649 27.1467 16.7916 26.0933 16.7916 24.76V24.08C16.7916 22.1867 17.0449 20.68 17.5516 19.56C18.0849 18.44 18.8449 17.64 19.8316 17.16C20.8182 16.6533 22.0182 16.4 23.4316 16.4H24.1116Z" fill="#FDFAEC"/>
</svg>
